<?xml version="1.0" encoding="utf-8"?>
<!-- Generator: Adobe Illustrator 27.3.1, SVG Export Plug-In . SVG Version: 6.00 Build 0)  -->
<svg version="1.1" id="Camada_1" xmlns="http://www.w3.org/2000/svg" xmlns:xlink="http://www.w3.org/1999/xlink" x="0px" y="0px"
	 viewBox="0 0 500 500" style="enable-background:new 0 0 500 500;" xml:space="preserve">
<style type="text/css">
	.st0{fill:#EA6C16;}
	.st1{fill:#287A7A;}
	.st2{fill:#D94E4E;}
	.st3{fill:#4652A0;}
	.st4{fill:#F2F2F2;}
	.st5{fill:none;stroke:#000000;stroke-width:13;}
	.st6{fill:none;}
	.st7{fill:#131313;}
	.st8{fill:#61615E;}
	.st9{fill:#F2F2F2;stroke:#F1F1F1;stroke-miterlimit:10;}
</style>
<path d="M-636.56-236.21"/>
<path d="M-601.79-23.18"/>
<path d="M-359.64-34.45"/>
<g>
	<g>
		<circle class="st0" cx="-550.71" cy="-441.83" r="65.81"/>
		<circle class="st1" cx="-437.55" cy="-483.09" r="41.25"/>
		<circle class="st2" cx="-357.8" cy="-478.77" r="29.92"/>
		<circle class="st3" cx="-301.31" cy="-456.78" r="18.89"/>
	</g>
	<path class="st4" d="M-212.68-358.47c-12.32-52.44-40.41-60.7-69.02-52.44c-34.49,9.96-43.17,109.39-77.1,101.65
		c-45.97-10.45-43.3-78.09-83.59-78.09c-39.65,0-46.29,66.66-84.85,70.96c-35.74,8.03-54.2-39.96-81.18-39.96
		c-26.97,0-35.24,90.59-35.24,138.43c0,6.08,0,11.94,0.11,17.46c-0.07,1.32-0.11,2.64-0.11,3.99c0,6.37,0.59,12.59,1.76,18.52
		c0.7,4.27,1.68,8.02,3.05,11.13c8.55,23.88,28.9,40.73,63.98,39.34c42.06-1.66,83.92-6.2,119.42-7.37
		c1.97,0.04,4.29-0.02,7.01-0.18c2.19-0.04,4.35-0.08,6.48-0.09c0.58,0,1.13-0.02,1.68-0.04c37.59,0.4,154.24,10.03,164.34,9.6
		c11.25-0.48,29.17-1.08,43.77-14.14C-192.72-171.21-205.09-326.16-212.68-358.47z M-502.3-173.04h-31.29l14.3-116.21h79.74
		l-3.4,26.82h-48.45l-2.24,18.86h40.76l-3.04,24.32h-40.76L-502.3-173.04z M-441.51-171.43c-9.83,0-16.18-6.88-16.18-16.27
		c0-10.73,8.23-18.41,18.51-18.41c9.83,0,16.18,6.88,16.18,16.27C-423.01-179.12-431.23-171.43-441.51-171.43z M-311.62-249.74
		l-28.6,3.04c-0.09-12.78-6.44-18.32-18.51-18.32c-7.16,0-13.14,1.97-13.14,8.23c0,7.24,7.87,9.57,18.95,12.61
		c24.67,6.8,38.26,13.77,38.26,33.7c0,23.96-19.58,39.07-49.97,39.07c-26.37,0-47.38-11.35-46.04-40.68l30.22-3.04
		c0,12.78,6.26,17.7,18.68,17.7c9.92,0,14.75-3.22,14.75-8.67c0-5.19-4.02-7.6-19.49-11.18c-25.48-5.81-37.28-15.2-37.28-34.86
		c0-23.87,17.7-38.71,48.18-38.71C-326.46-290.86-311.09-277.36-311.62-249.74z"/>
</g>
<g>
	<g>
		<path class="st5" d="M29.94-511.85"/>
	</g>
	<g>
		<path class="st5" d="M42.57-510.32"/>
	</g>
	<g>
		<path class="st0" d="M29.94-511.85"/>
	</g>
	<g>
		<path class="st0" d="M42.57-510.32"/>
	</g>
	<g>
		<path class="st0" d="M47.97-516.7c-0.1-27.34-20.49-51-48.34-54.44c-30.21-3.74-57.73,17.72-61.47,47.94
			c-3.65,29.49,16.71,56.4,45.78,61.15l1.56-12.63c-22.09-3.88-37.5-24.45-34.72-46.96c2.88-23.24,24.04-39.74,47.28-36.87
			c20.86,2.58,36.29,19.91,37.15,40.23L47.97-516.7z"/>
	</g>
	<path class="st1" d="M76.74-561.51c-12.68-1.57-24.87,1.31-35.04,7.4c2.59,3.36,4.82,7,6.67,10.83c7.79-4.62,17.12-6.8,26.81-5.61
		c20.83,2.58,36.23,19.85,37.14,40.14l12.76,1.58C124.94-534.46,104.56-558.06,76.74-561.51z"/>
	<path class="st1" d="M27.9-512.01c0.2-1.61,0.49-3.18,0.86-4.72c-0.03-6.95-2.06-13.54-5.63-19.13c-4.08,6.57-6.85,14.1-7.86,22.28
		c-3.65,29.49,16.71,56.4,45.78,61.15l1.56-12.63C40.52-468.92,25.12-489.5,27.9-512.01z"/>
	<path class="st2" d="M203.78-497.43c-0.1-27.34-20.49-51-48.34-54.44c-12.68-1.57-24.87,1.31-35.04,7.4
		c2.59,3.36,4.82,7,6.67,10.83c7.79-4.62,17.12-6.8,26.81-5.61c20.86,2.58,36.29,19.91,37.15,40.23l12.02,1.49L203.78-497.43z"/>
	<path class="st2" d="M106.59-502.37c0.2-1.61,0.49-3.18,0.86-4.72c-0.03-6.95-2.06-13.54-5.63-19.13
		c-4.08,6.57-6.85,14.1-7.86,22.28c-3.65,29.49,16.71,56.4,45.78,61.15l1.56-12.63C119.21-459.29,103.81-479.86,106.59-502.37z"/>
	<path class="st3" d="M278.97-488.12l3.48,0.43c-0.1-27.34-20.49-51-48.34-54.44c-12.68-1.57-24.87,1.31-35.04,7.4
		c2.59,3.36,4.82,7,6.67,10.83c7.79-4.62,17.12-6.8,26.81-5.61c20.86,2.58,36.29,19.91,37.15,40.23l8.54,1.06L278.97-488.12z"/>
	<path class="st3" d="M185.27-492.63c0.2-1.61,0.49-3.18,0.86-4.72c-0.03-6.95-2.06-13.54-5.63-19.13
		c-4.08,6.57-6.85,14.1-7.86,22.28c-3.65,29.49,16.71,56.4,45.78,61.15l1.56-12.63C197.89-449.55,182.49-470.12,185.27-492.63z"/>
	<g>
		
			<rect x="64.61" y="-359.87" transform="matrix(0.1228 -0.9924 0.9924 0.1228 268.2838 -116.7214)" class="st4" width="7" height="299.5"/>
		
			<rect x="70.6" y="-408.2" transform="matrix(0.1228 -0.9924 0.9924 0.1228 321.499 -153.1701)" class="st4" width="7" height="299.5"/>
		
			<rect x="82.56" y="-504.86" transform="matrix(0.1228 -0.9924 0.9924 0.1228 427.9138 -226.0882)" class="st4" width="7" height="299.5"/>
		<path class="st4" d="M191.73-491.86L191.73-491.86c-2.35,19,10.56,36.47,29.39,39.77l6.09,1.07l-3.15,25.47l-6.67-1.09
			c-32.78-5.36-55.27-35.39-51.18-68.36v-0.01l-53.13-6.57c-0.03,0.21-0.07,0.43-0.1,0.64c-2.32,18.75,10.61,36.02,29.44,39.31
			l6.09,1.06l-3.11,25.15l-6.67-1.09c-32.78-5.34-55.31-35.03-51.28-67.59c0.03-0.21,0.07-0.42,0.1-0.64l-53.16-6.58
			c-0.01,0.04-0.01,0.08-0.02,0.12c-2.35,18.99,10.56,36.46,29.39,39.76l6.09,1.07L66.7-444.9l-6.67-1.09
			c-32.78-5.36-55.27-35.39-51.18-68.36c0.01-0.04,0.01-0.08,0.02-0.12l-51.6-6.38c0,0.01,0,0.02,0,0.03
			c-2.35,18.99,10.56,36.46,29.39,39.76l6.09,1.07l-3.15,25.47l-6.67-1.09c-32.54-5.32-54.92-34.94-51.26-67.63l0.09-0.73h-0.02
			c0-0.01,0-0.02,0-0.03l-3.18-0.39v0.03l-10-1.24l-46.37,374.48l10,1.24l3.2,0.4l358.4,44.35l46.34-374.55L191.73-491.86z
			 M-85.39-294.83l323.05,39.97l-4.05,32.75l-323.05-39.97L-85.39-294.83z M227.63-173.78l-323.05-39.97l4.05-32.75l323.05,39.97
			L227.63-173.78z M239.59-270.43l-323.05-39.98l4.05-32.75l323.05,39.97L239.59-270.43z M245.57-318.76l-323.05-39.97l4.05-32.75
			l323.05,39.97L245.57-318.76z"/>
		
			<rect x="76.58" y="-456.53" transform="matrix(0.1228 -0.9924 0.9924 0.1228 374.7065 -189.629)" class="st4" width="7" height="299.5"/>
	</g>
	<g>
		
			<rect x="76.06" y="-511.36" transform="matrix(0.1228 -0.9924 0.9924 0.1228 427.9138 -226.0888)" class="st0" width="20" height="312.5"/>
	</g>
	<path class="st6" d="M101.61-503.01c0.19-1.36,0.44-2.71,0.76-4.02c-0.04-6.86-2.08-13.38-5.66-18.9
		c-3.96,6.31-6.67,13.53-7.73,21.36L101.61-503.01z"/>
	
		<rect x="70.09" y="-463.04" transform="matrix(0.1228 -0.9924 0.9924 0.1228 374.723 -189.6389)" class="st1" width="20" height="312.5"/>
	
		<rect x="64.11" y="-414.73" transform="matrix(0.1228 -0.9924 0.9924 0.1228 321.5256 -153.1878)" class="st2" width="20" height="312.5"/>
	
		<rect x="58.13" y="-366.4" transform="matrix(0.1228 -0.9924 0.9924 0.1228 268.3172 -116.7292)" class="st3" width="20" height="312.5"/>
</g>
<path class="st7" d="M-417.59,215.83"/>
<g>
	<path class="st8" d="M-310.53,201.71c5.08-42.22-3.95-71.49-17.25-96.63l1.98,14.63l-183.27,24.84l-4.6-33.9l175.28-23.76
		c-3.2-5.1-6.48-10.12-9.75-15.13L-497.48,92l-4.06-29.96l136.16-18.46c-1.08-1.99-2.14-4.01-3.16-6.06L-502.4,55.68l-0.75-5.53
		c-1.82,0.27-3.65,0.55-5.47,0.82l5.73,42.3l-170,23.05l-5.44-40.14c-29.71,4.3-59.43,8.58-89.14,12.93
		c14.42,14.84,31.52,35.57,46.42,62.9c25.87,47.45,32.71,92.04,34.62,119.37l378.4-53.56C-306.3,209.15-311.65,211.01-310.53,201.71
		z M-654.81,249.65l-17.35-127.96l127.96-17.35l17.35,127.96L-654.81,249.65z M-508.07,151.84l183.27-24.84l4.6,33.9l-183.27,24.84
		L-508.07,151.84z M-497.82,227.43l-4.6-33.9l183.27-24.84l4.6,33.9L-497.82,227.43z"/>
	<g>
		
			<rect x="-671.7" y="44.18" transform="matrix(0.9909 -0.1343 0.1343 0.9909 -14.9591 -78.9337)" class="st0" width="158.56" height="54.41"/>
	</g>
	<g>
		
			<rect x="-498.69" y="20.91" transform="matrix(0.9909 -0.1343 0.1343 0.9909 -7.7903 -56.4181)" class="st1" width="153.41" height="17.23"/>
	</g>
	<g>
		
			<rect x="-657.57" y="118.93" transform="matrix(0.9909 -0.1343 0.1343 0.9909 -29.2095 -78.9289)" class="st2" width="116.13" height="116.13"/>
	</g>
	<g>
		
			<rect x="-505.69" y="104.57" transform="matrix(0.9909 -0.1343 0.1343 0.9909 -19.2758 -55.3382)" class="st3" width="171.94" height="21.21"/>
	</g>
	<g>
		
			<rect x="-500.11" y="145.76" transform="matrix(0.9909 -0.1343 0.1343 0.9909 -24.7587 -54.2147)" class="st3" width="171.94" height="21.21"/>
	</g>
	<g>
		
			<rect x="-494.46" y="187.45" transform="matrix(0.9909 -0.1343 0.1343 0.9909 -30.308 -53.0776)" class="st3" width="171.94" height="21.21"/>
	</g>
	
		<rect x="-487.26" y="63.73" transform="matrix(0.9909 -0.1344 0.1344 0.9909 -12.6335 -55.456)" class="st4" width="140.41" height="4.23"/>
	<path class="st9" d="M-340.75-19.54c-126.37,17.13-252.74,34.26-379.11,51.4c21.28,54.25,39.88,125.98,35.51,208.37
		c-0.59,11.15-1.57,21.93-2.87,32.33l379.11-51.4c1.75-8.66,3.21-17.64,4.33-26.94C-293.51,108.72-316.98,33.1-340.75-19.54z
		 M-332.58,69.64L-497.48,92l-4.06-29.96l164.9-22.35L-332.58,69.64z M-341.56,3.37l4.06,29.96l-164.9,22.35l-4.06-29.96
		L-341.56,3.37z M-681.95,49.51l170-23.05l9.06,66.8l-170,23.05L-681.95,49.51z M-654.81,249.65l-17.35-127.96l127.96-17.35
		l17.35,127.96L-654.81,249.65z M-513.65,110.64l183.27-24.84l4.6,33.9l-183.27,24.84L-513.65,110.64z M-508.07,151.84l183.26-24.84
		l4.6,33.9l-183.27,24.84L-508.07,151.84z M-497.82,227.43l-4.6-33.9l183.27-24.84l4.6,33.9L-497.82,227.43z"/>
	<g>
		
			<rect x="-493.76" y="57.23" transform="matrix(0.9909 -0.1343 0.1343 0.9909 -12.6249 -55.4275)" class="st1" width="153.41" height="17.23"/>
	</g>
</g>
<g>
	<g>
		<path class="st0" d="M-949.49-159.05c0-15.21,10.56-26.2,24.93-26.2c15.21,0,24.93,10.99,24.93,26.2c0,14.79-9.72,26.2-24.93,26.2
			C-939.35-132.86-949.49-144.26-949.49-159.05z"/>
	</g>
	<polygon class="st0" points="-938.93,-223.48 -944.85,-341.65 -904.28,-341.65 -910.2,-223.48 	"/>
	<g>
		<rect x="-1141.56" y="-134" class="st2" width="150.33" height="41.06"/>
	</g>
	<g>
		<rect x="-1141.56" y="-66.88" class="st1" width="150.33" height="41.06"/>
	</g>
	<path class="st4" d="M-1176.15-206.44v318.67h314.11v-318.67H-1176.15z M-984.73,47.79h-163.33V-6.27h163.33V47.79z M-984.73-19.32
		h-163.33v-54.06h163.33V-19.32z M-984.73-86.44h-163.33v-54.06h163.33V-86.44z M-924.56-126.36c-17.92,0-31.43-14.06-31.43-32.7
		c0-18.64,13.51-32.7,31.43-32.7c18.5,0,31.43,13.45,31.43,32.7C-893.14-140.11-906.35-126.36-924.56-126.36z"/>
	<g>
		<rect x="-1141.56" y="0.23" class="st3" width="150.33" height="41.06"/>
	</g>
</g>
<g>
	<g>
		<defs>
			<rect id="SVGID_1_" x="642.57" y="-4.72" width="186.57" height="186.57"/>
		</defs>
		<clipPath id="SVGID_00000134946306840467993160000009746077655821967509_">
			<use xlink:href="#SVGID_1_"  style="overflow:visible;"/>
		</clipPath>
	</g>
</g>
<g>
	<path class="st9" d="M388.45,302.37l0.72-4.68l27.12-15.32l-5.56-23.97l-33.01-2.26l-1.85-4.08c-3.1-5.6-7.06-10.99-11.88-16.19
		l-3.56-3.69l8.85-31.83l-21.1-13.15l-24.68,21.97l-4.88-1.57l-19.77-3.53l-4.48,0.14l-16.57-28.64l-23.97,5.56l-2.26,33.01
		l-4.08,1.85c-5.6,3.1-10.99,7.06-16.19,11.88l-3.69,3.56l-31.83-8.85l-13.15,21.1l21.97,24.68l-1.57,4.88l-3.53,19.77l0.14,4.48
		l-28.64,16.57l5.56,23.97l33.01,2.27l1.85,4.08c3.1,5.6,7.06,10.99,11.88,16.19l3.56,3.68l-8.85,31.83l21.1,13.15l24.68-21.97
		l4.88,1.57c6.79,2.03,13.38,3.21,19.77,3.53l4.68,0.72l16.37,27.78l23.97-5.56l2.46-32.15l3.88-2.71
		c6.45-3.3,11.85-7.26,17.05-12.08l3.68-3.56l30.97,9.05l13.15-21.1l-21.11-24.87l1.57-4.88
		C387.15,316.21,388.33,309.62,388.45,302.37z M306.7,358.33c-33.39,7.75-66.09-12.63-73.84-46.02
		c-7.75-33.39,12.63-66.09,46.02-73.84c33.39-7.75,66.09,12.63,73.84,46.02C360.47,317.89,340.09,350.58,306.7,358.33z"/>
	<circle class="st0" cx="121.82" cy="143.61" r="65.81"/>
	<circle class="st1" cx="245.84" cy="102.36" r="41.25"/>
	<circle class="st2" cx="354.37" cy="111.51" r="29.92"/>
	<circle class="st3" cx="425.1" cy="174.77" r="18.89"/>
	<path class="st4" d="M320.77,253.52c-8.38-5.22-17.9-7.91-27.64-7.91c-4.07,0-8.17,0.47-12.25,1.41
		c-13.85,3.21-25.56,11.53-32.96,23.4c-7.4,11.88-9.71,26.04-6.49,39.9c3.21,13.85,11.53,25.56,23.4,32.96
		c11.88,7.4,26.05,9.71,39.9,6.49c13.85-3.21,25.56-11.52,32.96-23.4c7.4-11.88,9.71-26.04,6.49-39.9
		C340.96,272.63,332.65,260.93,320.77,253.52z M302.73,341.23c-3.47,0.81-6.93,1.19-10.32,1.19c-20.03,0-37.68-13.54-42.44-34.08
		c-5.57-24.01,8.87-47.19,32.88-52.76c24.01-5.57,47.19,8.87,52.76,32.88C341.19,312.48,326.74,335.65,302.73,341.23z"/>
	<path class="st4" d="M173.5,355.86l25.76,2.14l8.12,11.65l-6.82,25.04c-1.38,5.73,1.07,12.38,6.34,15.67l25.31,15.78
		c5.27,3.29,12.32,2.55,16.86-1.21l19.48-17.15l14.03,2.16l13.27,22.18c2.9,4.74,9.03,7.83,15.03,6.44l29.11-6.76
		c5.99-1.39,10.14-6.86,9.6-13.06l2.14-25.76c4.94-2.05,8.82-4.75,12.51-8.32l25.04,6.82c5.73,1.38,12.38-1.07,15.67-6.34
		l15.78-25.32c3.29-5.27,2.55-12.32-1.21-16.86l-16.1-18.82c0.72-4.68,1.24-10.21,1.96-14.89L427.57,296
		c4.74-2.9,7.83-9.03,6.44-15.03l-6.76-29.11c-1.39-5.99-6.86-10.14-13.25-10.46l-25.76-2.14l-8.12-11.65l6.82-25.04
		c1.38-5.73-1.07-12.38-6.34-15.67l-25.32-15.78c-5.27-3.29-12.32-2.55-16.86,1.21l-19.48,17.15l-14.03-2.16l-13.47-23.04
		c-2.9-4.74-9.03-7.83-15.03-6.44l-29.11,6.76c-5.99,1.39-10.14,6.86-10.66,12.4l-1.94,26.62l-11.65,8.12l-25.04-6.82
		c-5.73-1.38-12.38,1.07-15.67,6.34l-15.78,25.31c-3.29,5.27-2.55,12.32,1.21,16.86l17.15,19.48l-2.16,14.03l-23.04,13.47
		c-4.74,2.9-7.83,9.03-6.44,15.03l6.76,29.11C161.44,350.54,167.11,355.54,173.5,355.86z M171.01,314.03l28.64-16.57l-0.14-4.48
		l3.53-19.77l1.57-4.88l-21.97-24.68l13.15-21.1l31.83,8.85l3.69-3.56c5.2-4.81,10.59-8.77,16.19-11.88l4.08-1.85l2.26-33.01
		l23.97-5.56l16.57,28.64l4.48-0.14l19.77,3.53l4.88,1.57l24.68-21.97l21.1,13.15l-8.85,31.83l3.56,3.69
		c4.82,5.2,8.77,10.59,11.88,16.19l1.85,4.08l33.01,2.26l5.56,23.97l-27.12,15.32l-0.72,4.68c-0.12,7.25-1.3,13.84-3.33,20.62
		l-1.57,4.88l21.11,24.87l-13.15,21.1l-30.97-9.05l-3.68,3.56c-5.2,4.82-10.59,8.77-17.05,12.08l-3.88,2.71l-2.46,32.15l-23.97,5.56
		l-16.37-27.78l-4.68-0.72c-6.39-0.32-12.98-1.5-19.77-3.53l-4.88-1.57l-24.68,21.97l-21.1-13.15l8.85-31.83l-3.56-3.68
		c-4.81-5.2-8.77-10.59-11.88-16.19l-1.85-4.08l-33.01-2.27L171.01,314.03z"/>
</g>
</svg>
