<?xml version="1.0" encoding="utf-8"?>
<!-- Generator: Adobe Illustrator 27.3.1, SVG Export Plug-In . SVG Version: 6.00 Build 0)  -->
<svg version="1.1" id="Camada_1" xmlns="http://www.w3.org/2000/svg" xmlns:xlink="http://www.w3.org/1999/xlink" x="0px" y="0px"
	 viewBox="0 0 500 500" style="enable-background:new 0 0 500 500;" xml:space="preserve">
<style type="text/css">
	.st0{fill:#EA6C16;}
	.st1{fill:#287A7A;}
	.st2{fill:#D94E4E;}
	.st3{fill:#4652A0;}
	.st4{fill:#F2F2F2;}
	.st5{fill:none;stroke:#000000;stroke-width:13;}
	.st6{fill:none;}
	.st7{fill:#131313;}
	.st8{fill:#61615E;}
	.st9{fill:#F2F2F2;stroke:#F1F1F1;stroke-miterlimit:10;}
	.st10{fill:none;stroke:#F2F2F2;stroke-width:10;stroke-miterlimit:10;}
	.st11{fill:#F2F2F2;stroke:#F1F1F1;stroke-width:1;stroke-miterlimit:10;}
	.st12{fill:#F1F1F1;}
</style>
<path d="M-636.6-236.2"/>
<path d="M-601.8-23.2"/>
<path d="M-359.6-34.5"/>
<g>
	<g>
		<circle class="st0" cx="-550.7" cy="-441.8" r="65.8"/>
		<circle class="st1" cx="-437.5" cy="-483.1" r="41.2"/>
		<circle class="st2" cx="-357.8" cy="-478.8" r="29.9"/>
		<circle class="st3" cx="-301.3" cy="-456.8" r="18.9"/>
	</g>
	<path class="st4" d="M-212.7-358.5c-12.3-52.4-40.4-60.7-69-52.4c-34.5,10-43.2,109.4-77.1,101.6c-46-10.5-43.3-78.1-83.6-78.1
		c-39.6,0-46.3,66.7-84.9,71c-35.7,8-54.2-40-81.2-40c-27,0-35.2,90.6-35.2,138.4c0,6.1,0,11.9,0.1,17.5c-0.1,1.3-0.1,2.6-0.1,4
		c0,6.4,0.6,12.6,1.8,18.5c0.7,4.3,1.7,8,3,11.1c8.5,23.9,28.9,40.7,64,39.3c42.1-1.7,83.9-6.2,119.4-7.4c2,0,4.3,0,7-0.2
		c2.2,0,4.4-0.1,6.5-0.1c0.6,0,1.1,0,1.7,0c37.6,0.4,154.2,10,164.3,9.6c11.2-0.5,29.2-1.1,43.8-14.1
		C-192.7-171.2-205.1-326.2-212.7-358.5z M-502.3-173h-31.3l14.3-116.2h79.7l-3.4,26.8h-48.5l-2.2,18.9h40.8l-3,24.3h-40.8
		L-502.3-173z M-441.5-171.4c-9.8,0-16.2-6.9-16.2-16.3c0-10.7,8.2-18.4,18.5-18.4c9.8,0,16.2,6.9,16.2,16.3
		C-423-179.1-431.2-171.4-441.5-171.4z M-311.6-249.7l-28.6,3c-0.1-12.8-6.4-18.3-18.5-18.3c-7.2,0-13.1,2-13.1,8.2
		c0,7.2,7.9,9.6,19,12.6c24.7,6.8,38.3,13.8,38.3,33.7c0,24-19.6,39.1-50,39.1c-26.4,0-47.4-11.4-46-40.7l30.2-3
		c0,12.8,6.3,17.7,18.7,17.7c9.9,0,14.8-3.2,14.8-8.7c0-5.2-4-7.6-19.5-11.2c-25.5-5.8-37.3-15.2-37.3-34.9
		c0-23.9,17.7-38.7,48.2-38.7C-326.5-290.9-311.1-277.4-311.6-249.7z"/>
</g>
<g>
	<g>
		<path class="st5" d="M29.9-511.9"/>
	</g>
	<g>
		<path class="st5" d="M42.6-510.3"/>
	</g>
	<g>
		<path class="st0" d="M29.9-511.9"/>
	</g>
	<g>
		<path class="st0" d="M42.6-510.3"/>
	</g>
	<g>
		<path class="st0" d="M48-516.7c-0.1-27.3-20.5-51-48.3-54.4c-30.2-3.7-57.7,17.7-61.5,47.9c-3.6,29.5,16.7,56.4,45.8,61.1
			l1.6-12.6c-22.1-3.9-37.5-24.5-34.7-47c2.9-23.2,24-39.7,47.3-36.9c20.9,2.6,36.3,19.9,37.2,40.2L48-516.7z"/>
	</g>
	<path class="st1" d="M76.7-561.5c-12.7-1.6-24.9,1.3-35,7.4c2.6,3.4,4.8,7,6.7,10.8c7.8-4.6,17.1-6.8,26.8-5.6
		c20.8,2.6,36.2,19.8,37.1,40.1l12.8,1.6C124.9-534.5,104.6-558.1,76.7-561.5z"/>
	<path class="st1" d="M27.9-512c0.2-1.6,0.5-3.2,0.9-4.7c0-7-2.1-13.5-5.6-19.1c-4.1,6.6-6.9,14.1-7.9,22.3
		C11.6-484.1,32-457.2,61-452.4l1.6-12.6C40.5-468.9,25.1-489.5,27.9-512z"/>
	<path class="st2" d="M203.8-497.4c-0.1-27.3-20.5-51-48.3-54.4c-12.7-1.6-24.9,1.3-35,7.4c2.6,3.4,4.8,7,6.7,10.8
		c7.8-4.6,17.1-6.8,26.8-5.6c20.9,2.6,36.3,19.9,37.1,40.2l12,1.5L203.8-497.4z"/>
	<path class="st2" d="M106.6-502.4c0.2-1.6,0.5-3.2,0.9-4.7c0-6.9-2.1-13.5-5.6-19.1c-4.1,6.6-6.8,14.1-7.9,22.3
		c-3.7,29.5,16.7,56.4,45.8,61.1l1.6-12.6C119.2-459.3,103.8-479.9,106.6-502.4z"/>
	<path class="st3" d="M279-488.1l3.5,0.4c-0.1-27.3-20.5-51-48.3-54.4c-12.7-1.6-24.9,1.3-35,7.4c2.6,3.4,4.8,7,6.7,10.8
		c7.8-4.6,17.1-6.8,26.8-5.6c20.9,2.6,36.3,19.9,37.2,40.2l8.5,1.1L279-488.1z"/>
	<path class="st3" d="M185.3-492.6c0.2-1.6,0.5-3.2,0.9-4.7c0-7-2.1-13.5-5.6-19.1c-4.1,6.6-6.9,14.1-7.9,22.3
		c-3.6,29.5,16.7,56.4,45.8,61.1l1.6-12.6C197.9-449.5,182.5-470.1,185.3-492.6z"/>
	<g>
		
			<rect x="64.6" y="-359.9" transform="matrix(0.1228 -0.9924 0.9924 0.1228 268.2848 -116.7044)" class="st4" width="7" height="299.5"/>
		
			<rect x="70.6" y="-408.2" transform="matrix(0.1228 -0.9924 0.9924 0.1228 321.4998 -153.1549)" class="st4" width="7" height="299.5"/>
		
			<rect x="82.6" y="-504.8" transform="matrix(0.1228 -0.9924 0.9924 0.1228 427.9149 -226.0745)" class="st4" width="7" height="299.5"/>
		<path class="st4" d="M191.7-491.9L191.7-491.9c-2.4,19,10.6,36.5,29.4,39.8l6.1,1.1l-3.1,25.5l-6.7-1.1
			c-32.8-5.4-55.3-35.4-51.2-68.4v0l-53.1-6.6c0,0.2-0.1,0.4-0.1,0.6c-2.3,18.8,10.6,36,29.4,39.3l6.1,1.1l-3.1,25.1l-6.7-1.1
			c-32.8-5.3-55.3-35-51.3-67.6c0-0.2,0.1-0.4,0.1-0.6l-53.2-6.6c0,0,0,0.1,0,0.1c-2.3,19,10.6,36.5,29.4,39.8l6.1,1.1l-3.1,25.5
			L60-446c-32.8-5.4-55.3-35.4-51.2-68.4c0,0,0-0.1,0-0.1l-51.6-6.4c0,0,0,0,0,0c-2.3,19,10.6,36.5,29.4,39.8l6.1,1.1l-3.1,25.5
			l-6.7-1.1c-32.5-5.3-54.9-34.9-51.3-67.6l0.1-0.7h0c0,0,0,0,0,0l-3.2-0.4v0l-10-1.2l-46.4,374.5l10,1.2l3.2,0.4l358.4,44.3
			l46.3-374.5L191.7-491.9z M-85.4-294.8l323,40l-4.1,32.8l-323-40L-85.4-294.8z M227.6-173.8l-323-40l4.1-32.8l323,40L227.6-173.8z
			 M239.6-270.4l-323-40l4.1-32.8l323,40L239.6-270.4z M245.6-318.8l-323-40l4.1-32.8l323,40L245.6-318.8z"/>
		
			<rect x="76.6" y="-456.5" transform="matrix(0.1228 -0.9924 0.9924 0.1228 374.7073 -189.6144)" class="st4" width="7" height="299.5"/>
	</g>
	<g>
		
			<rect x="76.1" y="-511.3" transform="matrix(0.1228 -0.9924 0.9924 0.1228 427.9155 -226.075)" class="st0" width="20" height="312.5"/>
	</g>
	<path class="st6" d="M101.6-503c0.2-1.4,0.4-2.7,0.8-4c0-6.9-2.1-13.4-5.7-18.9c-4,6.3-6.7,13.5-7.7,21.4L101.6-503z"/>
	
		<rect x="70.1" y="-463" transform="matrix(0.1228 -0.9924 0.9924 0.1228 374.735 -189.6252)" class="st1" width="20" height="312.5"/>
	
		<rect x="64.1" y="-414.7" transform="matrix(0.1228 -0.9924 0.9924 0.1228 321.5292 -153.1843)" class="st2" width="20" height="312.5"/>
	
		<rect x="58.1" y="-366.4" transform="matrix(0.1228 -0.9924 0.9924 0.1228 268.3212 -116.7258)" class="st3" width="20" height="312.5"/>
</g>
<path class="st7" d="M-417.6,215.8"/>
<g>
	<path class="st8" d="M-310.5,201.7c5.1-42.2-4-71.5-17.2-96.6l2,14.6l-183.3,24.8l-4.6-33.9l175.3-23.8c-3.2-5.1-6.5-10.1-9.8-15.1
		L-497.5,92l-4.1-30l136.2-18.5c-1.1-2-2.1-4-3.2-6.1l-133.9,18.2l-0.8-5.5c-1.8,0.3-3.6,0.5-5.5,0.8l5.7,42.3l-170,23.1l-5.4-40.1
		c-29.7,4.3-59.4,8.6-89.1,12.9c14.4,14.8,31.5,35.6,46.4,62.9c25.9,47.4,32.7,92,34.6,119.4l378.4-53.6
		C-306.3,209.1-311.6,211-310.5,201.7z M-654.8,249.6l-17.3-128l128-17.3l17.3,128L-654.8,249.6z M-508.1,151.8l183.3-24.8l4.6,33.9
		l-183.3,24.8L-508.1,151.8z M-497.8,227.4l-4.6-33.9l183.3-24.8l4.6,33.9L-497.8,227.4z"/>
	<g>
		
			<rect x="-671.7" y="44.2" transform="matrix(0.9909 -0.1343 0.1343 0.9909 -14.9517 -78.9161)" class="st0" width="158.6" height="54.4"/>
	</g>
	<g>
		
			<rect x="-498.7" y="20.9" transform="matrix(0.9909 -0.1343 0.1343 0.9909 -7.7865 -56.4055)" class="st1" width="153.4" height="17.2"/>
	</g>
	<g>
		
			<rect x="-657.6" y="118.9" transform="matrix(0.9909 -0.1343 0.1343 0.9909 -29.1993 -78.9112)" class="st2" width="116.1" height="116.1"/>
	</g>
	<g>
		
			<rect x="-505.7" y="104.6" transform="matrix(0.9909 -0.1343 0.1343 0.9909 -19.2688 -55.3258)" class="st3" width="171.9" height="21.2"/>
	</g>
	<g>
		
			<rect x="-500.1" y="145.7" transform="matrix(0.9909 -0.1343 0.1343 0.9909 -24.7502 -54.2034)" class="st3" width="171.9" height="21.2"/>
	</g>
	<g>
		
			<rect x="-494.4" y="187.4" transform="matrix(0.9909 -0.1343 0.1343 0.9909 -30.2981 -53.0671)" class="st3" width="171.9" height="21.2"/>
	</g>
	
		<rect x="-487.2" y="63.7" transform="matrix(0.9909 -0.1344 0.1344 0.9909 -12.6334 -55.4548)" class="st4" width="140.4" height="4.2"/>
	<path class="st9" d="M-340.8-19.5C-467.1-2.4-593.5,14.7-719.9,31.9c21.3,54.2,39.9,126,35.5,208.4c-0.6,11.1-1.6,21.9-2.9,32.3
		l379.1-51.4c1.8-8.7,3.2-17.6,4.3-26.9C-293.5,108.7-317,33.1-340.8-19.5z M-332.6,69.6L-497.5,92l-4.1-30l164.9-22.3L-332.6,69.6z
		 M-341.6,3.4l4.1,30l-164.9,22.4l-4.1-30L-341.6,3.4z M-682,49.5l170-23l9.1,66.8l-170,23L-682,49.5z M-654.8,249.6l-17.3-128
		l128-17.3l17.3,128L-654.8,249.6z M-513.7,110.6l183.3-24.8l4.6,33.9L-509,144.5L-513.7,110.6z M-508.1,151.8l183.3-24.8l4.6,33.9
		l-183.3,24.8L-508.1,151.8z M-497.8,227.4l-4.6-33.9l183.3-24.8l4.6,33.9L-497.8,227.4z"/>
	<g>
		
			<rect x="-493.7" y="57.2" transform="matrix(0.9909 -0.1343 0.1343 0.9909 -12.6196 -55.4146)" class="st1" width="153.4" height="17.2"/>
	</g>
</g>
<g>
	<g>
		<path class="st0" d="M-949.5-159.1c0-15.2,10.6-26.2,24.9-26.2c15.2,0,24.9,11,24.9,26.2c0,14.8-9.7,26.2-24.9,26.2
			C-939.3-132.9-949.5-144.3-949.5-159.1z"/>
	</g>
	<polygon class="st0" points="-938.9,-223.5 -944.8,-341.6 -904.3,-341.6 -910.2,-223.5 	"/>
	<g>
		<rect x="-1141.6" y="-134" class="st2" width="150.3" height="41.1"/>
	</g>
	<g>
		<rect x="-1141.6" y="-66.9" class="st1" width="150.3" height="41.1"/>
	</g>
	<path class="st4" d="M-1176.2-206.4v318.7H-862v-318.7H-1176.2z M-984.7,47.8h-163.3V-6.3h163.3L-984.7,47.8L-984.7,47.8z
		 M-984.7-19.3h-163.3v-54.1h163.3L-984.7-19.3L-984.7-19.3z M-984.7-86.4h-163.3v-54.1h163.3L-984.7-86.4L-984.7-86.4z
		 M-924.6-126.4c-17.9,0-31.4-14.1-31.4-32.7s13.5-32.7,31.4-32.7c18.5,0,31.4,13.4,31.4,32.7C-893.1-140.1-906.3-126.4-924.6-126.4
		z"/>
	<g>
		<rect x="-1141.6" y="0.2" class="st3" width="150.3" height="41.1"/>
	</g>
</g>
<g>
	<path class="st9" d="M-908.7,461.4l0.7-4.7l27.1-15.3l-5.6-24l-33-2.3l-1.8-4.1c-3.1-5.6-7.1-11-11.9-16.2l-3.6-3.7l8.8-31.8
		l-21.1-13.1l-24.7,22l-4.9-1.6l-19.8-3.5l-4.5,0.1l-16.6-28.6l-24,5.6l-2.3,33l-4.1,1.9c-5.6,3.1-11,7.1-16.2,11.9l-3.7,3.6
		l-31.8-8.9l-13.2,21.1l22,24.7l-1.6,4.9l-3.5,19.8l0.1,4.5l-28.6,16.6l5.6,24l33,2.3l1.8,4.1c3.1,5.6,7.1,11,11.9,16.2l3.6,3.7
		l-8.8,31.8l21.1,13.2l24.7-22l4.9,1.6c6.8,2,13.4,3.2,19.8,3.5l4.7,0.7l16.4,27.8l24-5.6l2.5-32.2l3.9-2.7
		c6.5-3.3,11.8-7.3,17-12.1l3.7-3.6l31,9l13.2-21.1l-21.1-24.9l1.6-4.9C-910,475.2-908.8,468.6-908.7,461.4z M-990.4,517.3
		c-33.4,7.8-66.1-12.6-73.8-46s12.6-66.1,46-73.8s66.1,12.6,73.8,46S-957,509.6-990.4,517.3z"/>
	<circle class="st0" cx="-1175.3" cy="302.6" r="65.8"/>
	<circle class="st1" cx="-1051.3" cy="261.4" r="41.2"/>
	<circle class="st2" cx="-942.7" cy="270.5" r="29.9"/>
	<circle class="st3" cx="-872" cy="333.8" r="18.9"/>
	<path class="st4" d="M-976.3,412.5c-8.4-5.2-17.9-7.9-27.6-7.9c-4.1,0-8.2,0.5-12.2,1.4c-13.9,3.2-25.6,11.5-33,23.4
		c-7.4,11.9-9.7,26-6.5,39.9c3.2,13.9,11.5,25.6,23.4,33c11.9,7.4,26,9.7,39.9,6.5c13.8-3.2,25.6-11.5,33-23.4s9.7-26,6.5-39.9
		C-956.2,431.6-964.5,419.9-976.3,412.5z M-994.4,500.2c-3.5,0.8-6.9,1.2-10.3,1.2c-20,0-37.7-13.5-42.4-34.1
		c-5.6-24,8.9-47.2,32.9-52.8s47.2,8.9,52.8,32.9C-955.9,471.5-970.4,494.7-994.4,500.2z"/>
	<path class="st4" d="M-1123.6,514.9l25.8,2.1l8.1,11.7l-6.8,25c-1.4,5.7,1.1,12.4,6.3,15.7l25.3,15.8c5.3,3.3,12.3,2.5,16.9-1.2
		l19.5-17.2l14,2.2l13.3,22.2c2.9,4.7,9,7.8,15,6.4l29.1-6.8c6-1.4,10.1-6.9,9.6-13.1l2.1-25.8c4.9-2,8.8-4.8,12.5-8.3l25,6.8
		c5.7,1.4,12.4-1.1,15.7-6.3l15.8-25.3c3.3-5.3,2.5-12.3-1.2-16.9l-16.1-18.8c0.7-4.7,1.2-10.2,2-14.9l22.2-13.3
		c4.7-2.9,7.8-9,6.4-15l-6.8-29.1c-1.4-6-6.9-10.1-13.2-10.5l-25.8-2.1l-8.1-11.6l6.8-25c1.4-5.7-1.1-12.4-6.3-15.7l-25.3-15.8
		c-5.3-3.3-12.3-2.5-16.9,1.2l-19.5,17.1l-14-2.2l-13.5-23c-2.9-4.7-9-7.8-15-6.4l-29.1,6.8c-6,1.4-10.1,6.9-10.7,12.4l-1.9,26.6
		l-11.7,8.1l-25-6.8c-5.7-1.4-12.4,1.1-15.7,6.3l-15.8,25.3c-3.3,5.3-2.6,12.3,1.2,16.9l17.2,19.5l-2.2,14l-23,13.5
		c-4.7,2.9-7.8,9-6.4,15l6.8,29.1C-1135.7,509.6-1130,514.6-1123.6,514.9z M-1126.1,473l28.6-16.6l-0.1-4.5l3.5-19.8l1.6-4.9
		l-22-24.7l13.2-21.1l31.8,8.9l3.7-3.6c5.2-4.8,10.6-8.8,16.2-11.9l4.1-1.9l2.3-33l24-5.6l16.6,28.6l4.5-0.1l19.8,3.5l4.9,1.6
		l24.7-22l21.1,13.1l-8.8,31.8l3.6,3.7c4.8,5.2,8.8,10.6,11.9,16.2l1.8,4.1l33,2.3l5.6,24l-27.1,15.3l-0.7,4.7
		c-0.1,7.2-1.3,13.8-3.3,20.6l-1.6,4.9l21.1,24.9l-13.2,21.1l-31-9l-3.7,3.6c-5.2,4.8-10.6,8.8-17,12.1l-3.9,2.7l-2.5,32.2l-24,5.6
		l-16.4-27.8l-4.7-0.7c-6.4-0.3-13-1.5-19.8-3.5l-4.9-1.6l-24.7,22l-21.1-13.2l8.8-31.8l-3.6-3.7c-4.8-5.2-8.8-10.6-11.9-16.2
		l-1.8-4.1l-33-2.3L-1126.1,473z"/>
</g>
<g>
	<path class="st3" d="M-370.5,700.2c0,14.3-11.6,25.9-25.9,25.9h-30.9v13h30.9c21.5,0,38.9-17.5,38.9-38.9v-30.9h-13L-370.5,700.2
		L-370.5,700.2z"/>
	<path class="st1" d="M-357.5,391.6c0-21.5-17.5-38.9-38.9-38.9h-30.9v13h30.9c14.3,0,25.9,11.6,25.9,25.9v30.9h13L-357.5,391.6
		L-357.5,391.6z"/>
	<path class="st0" d="M-730.9,391.6c0-14.3,11.6-25.9,25.9-25.9h30.9v-13H-705c-21.5,0-38.9,17.5-38.9,38.9v30.9h13V391.6z"/>
	<path class="st2" d="M-743.9,700.2c0,21.5,17.5,38.9,38.9,38.9h30.9v-13H-705c-14.3,0-25.9-11.6-25.9-25.9v-30.9h-13V700.2z"/>
	<path class="st10" d="M-674.1,489.1c0-64.1,44.5-78,80-76.9c55.4,1.8,70.9,26.3,69,69.4c-2.5,53.9-142.2,85.1-116.2,106.4
		c40,32.7,28.3,19.8,95.2,71.2"/>
	<circle class="st10" cx="-461.7" cy="499.5" r="25.1"/>
	<circle class="st10" cx="-619.3" cy="499.5" r="25.1"/>
</g>
<g>
	<path class="st9" d="M-1448.5,180.7c-12.5,0-23.2-4.5-32.2-13.5c-8.9-9-13.3-19.7-13.3-32.2l91.1,0.2c0,12.5-4.5,23.2-13.5,32.2
		C-1425.3,176.3-1436,180.7-1448.5,180.7z"/>
	
		<rect x="-1471.1" y="-1.6" transform="matrix(2.134378e-03 -1 1 2.134378e-03 -1534.8022 -1358.9869)" class="st11" width="45.6" height="182.2"/>
	<g>
		<circle class="st0" cx="-1475.4" cy="-47.4" r="68.3"/>
	</g>
	<g>
		<path class="st12" d="M-1326.7-224.8c-33.2-33.3-73.5-50-120.9-50.1c-47.4-0.1-87.8,16.4-121.1,49.6
			c-33.3,33.1-50,73.5-50.1,120.9c-0.1,30.8,7.5,59.2,22.9,85.5c15.3,26.2,36.1,47.1,62.2,62.8l170.8,0.4
			c26.2-15.5,47.1-36.3,62.5-62.5c15.4-26.2,23.2-54.6,23.2-85.4C-1277-151.1-1293.5-191.5-1326.7-224.8z M-1333.3-53.3
			c-1.1,2.4-2.2,4.7-3.4,7c-9.3,17.8-22.6,32.8-39.7,44.9l-40-0.1c-13.7,17.6-35,28.9-59,28.9c-34.7,0-64-23.8-72.4-55.9
			c-4.4-5.7-8.2-11.8-11.6-18.2c-9.3-17.9-13.9-37-13.8-57.5c0.1-22.9,5.3-43.6,15.9-61.9c-1.2-4.3-1.9-8.8-1.9-13.4
			c0-27.2,22.1-49.3,49.3-49.3c8.1,0,15.8,2,22.6,5.5c12.3-3.9,25.5-5.9,39.6-5.8c30.9,0.1,57.7,9.6,80.2,28.8
			c0.9-0.1,1.9-0.1,2.8-0.1c20.7,0,37.6,16.9,37.6,37.6c0,5.3-1.1,10.3-3.1,14.8c5,13.7,7.5,28.6,7.5,44.5c0,6.9-0.6,13.6-1.6,20.2
			c1.1,2.9,1.7,5.9,1.7,9.2C-1322.6-65.7-1326.8-58.1-1333.3-53.3z"/>
	</g>
	<g>
		<circle class="st1" cx="-1509.9" cy="-179.7" r="42.8"/>
	</g>
	<g>
		<circle class="st2" cx="-1364.7" cy="-163.1" r="31.1"/>
	</g>
	<g>
		<circle class="st3" cx="-1348.7" cy="-74.4" r="19.6"/>
	</g>
</g>
<g>
	<g>
		<path class="st4" d="M131.4,408.4c-8.3,0-16.2,3.3-22,9.1c-5.8,5.8-9.1,13.8-9.1,22c0,8.3,3.3,16.2,9.1,22
			c5.8,5.8,13.8,9.1,22,9.1c8.3,0,16.2-3.3,22-9.1c5.8-5.8,9.1-13.8,9.1-22c0-8.3-3.3-16.2-9.1-22
			C147.6,411.7,139.7,408.4,131.4,408.4z"/>
		<path class="st4" d="M380.8,408.4c-8.3,0-16.2,3.3-22,9.1c-5.8,5.8-9.1,13.8-9.1,22c0,8.3,3.3,16.2,9.1,22
			c5.8,5.8,13.8,9.1,22,9.1c8.3,0,16.2-3.3,22-9.1c5.8-5.8,9.1-13.8,9.1-22c0-8.3-3.3-16.2-9.1-22C397,411.7,389,408.4,380.8,408.4z
			"/>
	</g>
	<g>
		<circle class="st1" cx="347.1" cy="231.2" r="39.8"/>
	</g>
	<g>
		<circle class="st0" cx="200.2" cy="210.7" r="63.5"/>
	</g>
	<g>
		<circle class="st2" cx="298.9" cy="149.8" r="28.9"/>
	</g>
	<g>
		<path class="st9" d="M466.8,113.8c-0.6-3.2-1.9-6.2-3.8-8.8c-1.9-2.6-4.5-4.7-7.3-6.2c-2.9-1.5-6.1-2.2-9.3-2.2H129.6L62.2,29.3
			L32.8,58.7l67.4,67.4v240.8c0,5.5,2.2,10.8,6.1,14.7c3.9,3.9,9.2,6.1,14.7,6.1h249.4V346H141.8v-41.6h254.7
			c4.5,0,8.8-1.4,12.4-4.1c3.6-2.7,6.2-6.4,7.5-10.7l49.9-166.3C467.2,120.3,467.4,117,466.8,113.8z M393.4,221.6
			c0.6,3.1,1,6.3,1,9.6c0,26.1-21.2,47.3-47.3,47.3c-13.9,0-26.4-6-35.1-15.6h-63.7c-12.7,11.7-29.6,18.9-48.1,18.9
			s-35.5-7.2-48.1-18.9l-6.1-6.2l-4.2-5.6c-7.9-11.5-12.6-25.4-12.6-40.3s4.7-28.9,12.6-40.3v-32.2h122.7
			c4.9-14.4,18.5-24.8,34.5-24.8c16,0,29.6,10.4,34.5,24.8h30.1c3.8-2.2,8.2-3.5,13-3.5c4.7,0,9.1,1.3,13,3.5h29L393.4,221.6z"/>
	</g>
	<g>
		<circle class="st3" cx="376.5" cy="160.4" r="18.2"/>
	</g>
</g>
</svg>
