<svg width="500" height="500" viewBox="0 0 500 500" fill="none" xmlns="http://www.w3.org/2000/svg">
<path d="M107.43 435.34V465.87H152.08H201.32V435.34H107.43Z" fill="#F5F5F5"/>
<path d="M103.49 426.81V435.34H204.61V426.81H152.08H103.49Z" fill="#E0E0E0"/>
<path d="M154.05 465.87H201.32V435.34H204.61V426.81H152.08V434.55L154.05 465.87Z" fill="#E0E0E0"/>
<path d="M139.6 440.26H120.56V444.86H139.6V440.26Z" fill="#E0E0E0"/>
<path d="M142.56 450.61H118.11V460.31H142.56V450.61Z" fill="white"/>
<path d="M121.88 396.32V426.85H166.53H215.77V396.32H121.88Z" fill="#F5F5F5"/>
<path d="M117.94 387.78V396.32H219.05V387.78H166.53H117.94Z" fill="#E0E0E0"/>
<path d="M168.5 426.85H215.77V396.32H219.05V387.78H166.53V395.53L168.5 426.85Z" fill="#E0E0E0"/>
<path d="M154.05 401.24H135.01V405.84H154.05V401.24Z" fill="#E0E0E0"/>
<path d="M157.01 411.58H132.56V421.28H157.01V411.58Z" fill="white"/>
<path d="M122.37 59.74C124.903 58.2149 127.626 57.0313 130.47 56.22L132.13 48.22L145.66 48L147.66 55.94C150.528 56.648 153.288 57.7342 155.87 59.17L162.71 54.69L172.45 64.09L168.21 71.09C169.739 73.621 170.923 76.3451 171.73 79.19L179.73 80.85L179.96 94.39L172 96.3C171.292 99.1677 170.206 101.929 168.77 104.51L173.25 111.35L163.85 121.09L156.85 116.85C154.319 118.379 151.595 119.563 148.75 120.37L147.09 128.37L133.56 128.6L131.56 120.66C128.692 119.952 125.931 118.866 123.35 117.43L116.51 121.91L106.77 112.51L111.01 105.51C109.481 102.982 108.297 100.262 107.49 97.42L99.4898 95.75L99.2598 82.22L107.2 80.27C107.908 77.4023 108.994 74.6414 110.43 72.06L106 65.24L115.4 55.5L122.4 59.74H122.37ZM129.59 77.74C127.595 79.8059 126.257 82.4169 125.746 85.243C125.235 88.069 125.574 90.9831 126.719 93.6167C127.865 96.2503 129.765 98.4852 132.181 100.039C134.596 101.592 137.418 102.394 140.289 102.344C143.161 102.294 145.953 101.393 148.312 99.7558C150.672 98.1186 152.493 95.8185 153.545 93.1463C154.597 90.4742 154.833 87.55 154.224 84.7436C153.614 81.9372 152.186 79.3747 150.12 77.38C147.346 74.7094 143.624 73.2502 139.774 73.3233C135.924 73.3964 132.261 74.9959 129.59 77.77V77.74Z" fill="#EBEBEB"/>
<path d="M340.08 43.61C343.092 41.7904 346.334 40.3813 349.72 39.42L351.72 29.88L367.83 29.6L370.15 39.06C373.567 39.9019 376.856 41.1967 379.93 42.91L388.08 37.57L399.68 48.77L394.63 57.1C396.451 60.1116 397.86 63.3538 398.82 66.74L408.36 68.74L408.64 84.86L399.18 87.18C398.333 90.5955 397.039 93.8841 395.33 96.96L400.67 105.11L389.47 116.7L381.14 111.65C378.13 113.475 374.888 114.885 371.5 115.84L369.5 125.38L353.38 125.67L351.06 116.2C347.641 115.362 344.352 114.067 341.28 112.35L333.13 117.69L321.54 106.5L326.59 98.17C324.766 95.1596 323.357 91.9171 322.4 88.53L312.86 86.53L312.57 70.41L322.04 68.09C322.881 64.6728 324.176 61.3835 325.89 58.31L320.55 50.17L331.74 38.57L340.07 43.57L340.08 43.61ZM348.68 65.08C346.305 67.5403 344.713 70.6496 344.105 74.0146C343.497 77.3797 343.901 80.8494 345.265 83.9851C346.629 87.1208 348.892 89.7815 351.769 91.631C354.645 93.4804 358.005 94.4354 361.424 94.3753C364.843 94.3152 368.167 93.2426 370.977 91.2932C373.786 89.3437 375.954 86.605 377.207 83.4233C378.46 80.2416 378.742 76.7599 378.016 73.4183C377.29 70.0766 375.59 67.0253 373.13 64.65C369.829 61.4669 365.4 59.7242 360.816 59.8048C356.231 59.8854 351.866 61.7828 348.68 65.08Z" fill="#EBEBEB"/>
<path d="M342.52 174.48C344.873 173.058 347.405 171.959 350.05 171.21L351.6 163.76L364.19 163.53L366 170.93C368.668 171.587 371.238 172.596 373.64 173.93L380.01 169.76L389.06 178.51L385.12 185.01C386.542 187.363 387.641 189.895 388.39 192.54L395.84 194.09L396.07 206.68L388.67 208.5C388.012 211.168 387.003 213.737 385.67 216.14L389.84 222.5L381.09 231.56L374.59 227.61C372.236 229.031 369.704 230.134 367.06 230.89L365.51 238.34L352.92 238.56L351.1 231.17C348.432 230.513 345.862 229.504 343.46 228.17L337.1 232.34L328 223.58L331.95 217.08C330.529 214.726 329.426 212.194 328.67 209.55L321.26 208L321 195.41L328.39 193.6C329.047 190.932 330.056 188.362 331.39 185.96L327.22 179.59L335.96 170.53L342.47 174.48H342.52ZM349.23 191.25C347.373 193.172 346.128 195.601 345.651 198.23C345.175 200.86 345.489 203.571 346.554 206.022C347.619 208.473 349.387 210.553 351.634 211.999C353.881 213.445 356.507 214.192 359.178 214.146C361.85 214.1 364.448 213.263 366.644 211.74C368.84 210.217 370.535 208.077 371.515 205.591C372.494 203.105 372.714 200.384 372.148 197.772C371.581 195.161 370.252 192.776 368.33 190.92C365.753 188.431 362.293 187.068 358.712 187.13C355.13 187.192 351.719 188.674 349.23 191.25Z" fill="#E0E0E0"/>
<path d="M409.73 135.74C411.037 134.952 412.442 134.341 413.91 133.92L414.77 129.78L421.77 129.66L422.77 133.77C424.252 134.13 425.679 134.692 427.01 135.44L430.55 133.12L435.55 137.98L433.36 141.59C434.151 142.899 434.763 144.308 435.18 145.78L439.32 146.64L439.44 153.64L435.33 154.64C434.966 156.121 434.408 157.546 433.67 158.88L435.98 162.42L431.12 167.42L427.51 165.23C426.202 166.018 424.797 166.63 423.33 167.05L422.46 171.19L415.46 171.31L414.46 167.2C412.979 166.833 411.553 166.272 410.22 165.53L406.68 167.85L401.68 162.99L403.87 159.38C403.082 158.069 402.47 156.66 402.05 155.19L397.91 154.33L397.79 147.33L401.9 146.33C402.266 144.849 402.828 143.423 403.57 142.09L401.25 138.55L406.11 133.55L409.73 135.74ZM413.45 145.06C412.422 146.128 411.734 147.477 411.472 148.936C411.21 150.396 411.387 151.9 411.98 153.258C412.572 154.617 413.555 155.77 414.802 156.571C416.049 157.372 417.506 157.785 418.988 157.759C420.471 157.732 421.912 157.267 423.13 156.422C424.348 155.577 425.288 154.39 425.832 153.011C426.375 151.631 426.498 150.122 426.185 148.673C425.871 147.224 425.135 145.901 424.07 144.87C423.36 144.184 422.523 143.644 421.605 143.283C420.687 142.921 419.707 142.743 418.72 142.761C417.734 142.779 416.76 142.991 415.856 143.385C414.951 143.78 414.134 144.349 413.45 145.06Z" fill="#F5F5F5"/>
<path d="M209.89 43.63C211.195 42.8384 212.601 42.2262 214.07 41.81L214.93 37.67L221.93 37.55L222.93 41.65C224.41 42.0194 225.835 42.5808 227.17 43.32L230.71 41L235.71 45.86L233.52 49.47C234.312 50.7753 234.924 52.1813 235.34 53.65L239.48 54.51L239.6 61.51L235.49 62.51C235.127 63.9906 234.569 65.4164 233.83 66.75L236.14 70.29L231.28 75.29L227.67 73.1C226.378 73.917 224.982 74.5561 223.52 75L222.65 79.14L215.65 79.27L214.65 75.16C213.169 74.7934 211.743 74.2318 210.41 73.49L206.87 75.81L201.87 70.95L204 67.29C203.212 65.9826 202.6 64.5772 202.18 63.11L198.05 62.25L197.92 55.25L202.03 54.25C202.404 52.7638 202.976 51.3344 203.73 50L201.41 46.47L206.27 41.47L209.89 43.66V43.63ZM213.61 53C212.582 54.0683 211.894 55.4172 211.632 56.8764C211.371 58.3356 211.547 59.8396 212.14 61.1984C212.733 62.5572 213.715 63.7099 214.962 64.5109C216.21 65.3119 217.667 65.7252 219.149 65.6987C220.631 65.6722 222.072 65.207 223.29 64.3619C224.508 63.5168 225.448 62.3297 225.992 60.9506C226.536 59.5714 226.659 58.0621 226.345 56.6132C226.031 55.1643 225.295 53.8409 224.23 52.81C223.52 52.1251 222.682 51.5867 221.765 51.2255C220.847 50.8644 219.867 50.6876 218.881 50.7052C217.894 50.7229 216.921 50.9346 216.017 51.3284C215.113 51.7221 214.295 52.2901 213.61 53Z" fill="#F5F5F5"/>
<path d="M146.9 156.58C148.205 155.788 149.611 155.176 151.08 154.76L151.94 150.62L158.94 150.5L159.94 154.61C161.426 154.97 162.856 155.532 164.19 156.28L167.72 153.96L172.72 158.82L170.52 162.43C171.313 163.738 171.926 165.147 172.34 166.62L176.48 167.48L176.6 174.48L172.5 175.48C172.133 176.961 171.572 178.387 170.83 179.72L173.14 183.26L168.29 188.26L164.67 186.07C163.363 186.858 161.957 187.47 160.49 187.89L159.63 192.03L152.63 192.15L151.63 188.04C150.145 187.675 148.716 187.114 147.38 186.37L143.85 188.69L138.85 183.83L141.05 180.22C140.258 178.911 139.646 177.502 139.23 176.03L135.09 175.17L134.96 168.17L139.07 167.17C139.435 165.688 139.997 164.262 140.74 162.93L138.42 159.39L143.28 154.39L146.9 156.58ZM150.63 165.9C149.601 166.968 148.911 168.317 148.648 169.776C148.386 171.236 148.562 172.741 149.154 174.1C149.746 175.46 150.728 176.613 151.976 177.415C153.224 178.217 154.681 178.63 156.164 178.604C157.647 178.577 159.089 178.112 160.307 177.266C161.525 176.42 162.465 175.232 163.009 173.852C163.552 172.472 163.674 170.962 163.359 169.513C163.044 168.064 162.307 166.74 161.24 165.71C160.531 165.025 159.694 164.487 158.777 164.126C157.86 163.765 156.881 163.588 155.896 163.606C154.91 163.624 153.938 163.835 153.034 164.229C152.131 164.623 151.314 165.19 150.63 165.9Z" fill="#F5F5F5"/>
<path d="M462.67 466.85C462.67 466.99 367.45 467.11 250.01 467.11C132.57 467.11 37.3301 467 37.3301 466.85C37.3301 466.7 132.53 466.59 250.01 466.59C367.49 466.59 462.67 466.71 462.67 466.85Z" fill="#263238"/>
<path d="M322.25 466.66L192.57 466.58C176.97 466.58 164.33 453.28 164.34 436.89L164.4 95.22C164.4 78.82 177.06 65.53 192.67 65.54L322.35 65.62C337.95 65.62 350.59 78.92 350.58 95.31L350.52 437C350.52 453.38 337.86 466.67 322.25 466.66Z" fill="#263238"/>
<path d="M322.21 77.7H297.07C293.7 77.7 290.96 80.7 290.96 84.4V89.19C290.96 92.9 288.23 95.9 284.86 95.9H235.86C232.48 95.9 229.75 92.9 229.75 89.19V84.39C229.75 80.69 227.02 77.68 223.65 77.68H214.8H192.8C181.87 77.68 173 86.98 173 98.47L172.94 431.97C172.94 443.45 181.79 452.76 192.71 452.76L322.14 452.84C333.07 452.84 341.93 443.54 341.93 432.05L342 98.5C342 87 333.14 77.71 322.21 77.7Z" fill="white"/>
<path d="M281.24 241.47C281.24 243.25 280.712 244.99 279.723 246.47C278.734 247.95 277.328 249.104 275.684 249.785C274.039 250.466 272.23 250.644 270.484 250.297C268.738 249.95 267.134 249.093 265.876 247.834C264.617 246.575 263.76 244.972 263.413 243.226C263.065 241.48 263.244 239.67 263.925 238.026C264.606 236.381 265.76 234.976 267.24 233.987C268.72 232.998 270.46 232.47 272.24 232.47C274.627 232.47 276.916 233.418 278.604 235.106C280.292 236.794 281.24 239.083 281.24 241.47Z" fill="#FD6703"/>
<path d="M245.46 251.09C250.762 251.09 255.06 246.783 255.06 241.47C255.06 236.157 250.762 231.85 245.46 231.85C240.158 231.85 235.86 236.157 235.86 241.47C235.86 246.783 240.158 251.09 245.46 251.09Z" fill="#FD6703"/>
<path d="M224.89 234.66C230.517 234.66 235.08 230.089 235.08 224.45C235.08 218.811 230.517 214.24 224.89 214.24C219.262 214.24 214.7 218.811 214.7 224.45C214.7 230.089 219.262 234.66 224.89 234.66Z" fill="#FD6703"/>
<path d="M220.72 208.94C226.596 208.94 231.36 204.163 231.36 198.27C231.36 192.377 226.596 187.6 220.72 187.6C214.844 187.6 210.08 192.377 210.08 198.27C210.08 204.163 214.844 208.94 220.72 208.94Z" fill="#FD6703"/>
<path d="M233.75 186.39C239.825 186.39 244.75 181.452 244.75 175.36C244.75 169.268 239.825 164.33 233.75 164.33C227.675 164.33 222.75 169.268 222.75 175.36C222.75 181.452 227.675 186.39 233.75 186.39Z" fill="#FD6703"/>
<path d="M258.8 178.32C265.422 178.32 270.79 172.938 270.79 166.3C270.79 159.662 265.422 154.28 258.8 154.28C252.178 154.28 246.81 159.662 246.81 166.3C246.81 172.938 252.178 178.32 258.8 178.32Z" fill="#FD6703"/>
<path d="M300.82 224.24C300.816 225.962 300.302 227.644 299.342 229.074C298.383 230.503 297.021 231.617 295.429 232.273C293.837 232.929 292.087 233.099 290.398 232.76C288.71 232.422 287.16 231.591 285.944 230.372C284.728 229.153 283.9 227.601 283.566 225.912C283.231 224.223 283.405 222.473 284.065 220.882C284.725 219.292 285.841 217.933 287.273 216.977C288.705 216.02 290.388 215.51 292.11 215.51C293.255 215.511 294.389 215.738 295.446 216.178C296.504 216.617 297.464 217.26 298.273 218.071C299.082 218.882 299.723 219.844 300.16 220.902C300.597 221.961 300.821 223.095 300.82 224.24Z" fill="#FD6703"/>
<path d="M296.77 206.08C301.232 206.08 304.85 202.454 304.85 197.98C304.85 193.506 301.232 189.88 296.77 189.88C292.307 189.88 288.69 193.506 288.69 197.98C288.69 202.454 292.307 206.08 296.77 206.08Z" fill="#FD6703"/>
<path d="M283.33 182.45C287.406 182.45 290.71 179.137 290.71 175.05C290.71 170.963 287.406 167.65 283.33 167.65C279.254 167.65 275.95 170.963 275.95 175.05C275.95 179.137 279.254 182.45 283.33 182.45Z" fill="#FD6703"/>
<g opacity="0.5">
<path d="M281.24 241.47C281.24 243.25 280.712 244.99 279.723 246.47C278.734 247.95 277.328 249.104 275.684 249.785C274.039 250.466 272.23 250.644 270.484 250.297C268.738 249.95 267.134 249.093 265.876 247.834C264.617 246.575 263.76 244.972 263.413 243.226C263.065 241.48 263.244 239.67 263.925 238.026C264.606 236.381 265.76 234.976 267.24 233.987C268.72 232.998 270.46 232.47 272.24 232.47C274.627 232.47 276.916 233.418 278.604 235.106C280.292 236.794 281.24 239.083 281.24 241.47Z" fill="white"/>
</g>
<g opacity="0.4">
<path d="M245.46 251.09C250.762 251.09 255.06 246.783 255.06 241.47C255.06 236.157 250.762 231.85 245.46 231.85C240.158 231.85 235.86 236.157 235.86 241.47C235.86 246.783 240.158 251.09 245.46 251.09Z" fill="white"/>
</g>
<g opacity="0.3">
<path d="M224.89 234.66C230.517 234.66 235.08 230.089 235.08 224.45C235.08 218.811 230.517 214.24 224.89 214.24C219.262 214.24 214.7 218.811 214.7 224.45C214.7 230.089 219.262 234.66 224.89 234.66Z" fill="white"/>
</g>
<g opacity="0.2">
<path d="M220.72 208.94C226.596 208.94 231.36 204.163 231.36 198.27C231.36 192.377 226.596 187.6 220.72 187.6C214.844 187.6 210.08 192.377 210.08 198.27C210.08 204.163 214.844 208.94 220.72 208.94Z" fill="white"/>
</g>
<g opacity="0.1">
<path d="M233.75 186.39C239.825 186.39 244.75 181.452 244.75 175.36C244.75 169.268 239.825 164.33 233.75 164.33C227.675 164.33 222.75 169.268 222.75 175.36C222.75 181.452 227.675 186.39 233.75 186.39Z" fill="white"/>
</g>
<g opacity="0.2">
<path d="M258.8 178.32C265.422 178.32 270.79 172.938 270.79 166.3C270.79 159.662 265.422 154.28 258.8 154.28C252.178 154.28 246.81 159.662 246.81 166.3C246.81 172.938 252.178 178.32 258.8 178.32Z" fill="white"/>
</g>
<g opacity="0.6">
<path d="M300.82 224.24C300.816 225.962 300.302 227.644 299.342 229.074C298.383 230.503 297.021 231.617 295.429 232.273C293.837 232.929 292.087 233.099 290.398 232.76C288.71 232.422 287.16 231.591 285.944 230.372C284.728 229.153 283.9 227.601 283.566 225.912C283.231 224.223 283.405 222.473 284.065 220.882C284.725 219.292 285.841 217.933 287.273 216.977C288.705 216.02 290.388 215.51 292.11 215.51C293.255 215.511 294.389 215.738 295.446 216.178C296.504 216.617 297.464 217.26 298.273 218.071C299.082 218.882 299.723 219.844 300.16 220.902C300.597 221.961 300.821 223.095 300.82 224.24Z" fill="white"/>
</g>
<g opacity="0.7">
<path d="M296.77 206.08C301.232 206.08 304.85 202.454 304.85 197.98C304.85 193.507 301.232 189.88 296.77 189.88C292.307 189.88 288.69 193.507 288.69 197.98C288.69 202.454 292.307 206.08 296.77 206.08Z" fill="white"/>
</g>
<g opacity="0.8">
<path d="M283.33 182.45C287.406 182.45 290.71 179.137 290.71 175.05C290.71 170.963 287.406 167.65 283.33 167.65C279.254 167.65 275.95 170.963 275.95 175.05C275.95 179.137 279.254 182.45 283.33 182.45Z" fill="white"/>
</g>
<path d="M230.06 328C230.053 327.566 230.134 327.135 230.3 326.734C230.465 326.333 230.711 325.97 231.022 325.668C231.333 325.365 231.703 325.129 232.108 324.975C232.514 324.821 232.947 324.751 233.38 324.77C233.81 324.754 234.239 324.829 234.639 324.989C235.038 325.149 235.4 325.391 235.7 325.7L235.27 326.12C235.026 325.874 234.735 325.68 234.413 325.551C234.091 325.422 233.746 325.36 233.4 325.37C233.055 325.37 232.713 325.438 232.394 325.57C232.074 325.702 231.785 325.896 231.54 326.14C231.296 326.385 231.102 326.674 230.97 326.994C230.838 327.313 230.77 327.655 230.77 328C230.77 328.345 230.838 328.687 230.97 329.006C231.102 329.326 231.296 329.615 231.54 329.86C231.785 330.104 232.074 330.298 232.394 330.43C232.713 330.562 233.055 330.63 233.4 330.63C233.747 330.64 234.093 330.578 234.415 330.447C234.737 330.316 235.028 330.12 235.27 329.87L235.7 330.29C235.399 330.601 235.036 330.845 234.635 331.007C234.233 331.168 233.802 331.245 233.37 331.23C232.937 331.248 232.506 331.177 232.101 331.022C231.697 330.867 231.329 330.631 231.019 330.329C230.709 330.026 230.464 329.664 230.299 329.263C230.134 328.863 230.053 328.433 230.06 328Z" fill="#263238"/>
<path d="M242.42 324.77V331.12H241.76V328.19H237.76V331.12H237.09V324.77H237.76V327.61H241.76V324.77H242.42Z" fill="#263238"/>
<path d="M249 330.54V331.12H244.52V324.77H248.86V325.35H245.19V327.61H248.47V328.19H245.19V330.54H249Z" fill="#263238"/>
<path d="M249.94 328C249.933 327.566 250.014 327.135 250.18 326.734C250.345 326.333 250.591 325.97 250.902 325.668C251.213 325.365 251.583 325.129 251.988 324.975C252.394 324.821 252.826 324.751 253.26 324.77C253.69 324.754 254.119 324.829 254.518 324.989C254.918 325.149 255.28 325.391 255.58 325.7L255.15 326.12C254.906 325.874 254.614 325.68 254.293 325.551C253.971 325.422 253.626 325.36 253.28 325.37C252.935 325.37 252.593 325.438 252.273 325.57C251.954 325.702 251.664 325.896 251.42 326.14C251.176 326.385 250.982 326.674 250.85 326.994C250.718 327.313 250.65 327.655 250.65 328C250.65 328.345 250.718 328.687 250.85 329.006C250.982 329.326 251.176 329.615 251.42 329.86C251.664 330.104 251.954 330.298 252.273 330.43C252.593 330.562 252.935 330.63 253.28 330.63C253.627 330.64 253.973 330.578 254.295 330.447C254.617 330.316 254.908 330.12 255.15 329.87L255.58 330.29C255.279 330.601 254.916 330.845 254.514 331.007C254.113 331.168 253.682 331.245 253.25 331.23C252.817 331.248 252.386 331.177 251.981 331.022C251.577 330.867 251.208 330.631 250.899 330.329C250.589 330.026 250.344 329.664 250.179 329.263C250.014 328.863 249.933 328.433 249.94 328Z" fill="#263238"/>
<path d="M259 328.14L257.7 329.46V331.12H257V324.77H257.67V328.61L261.39 324.77H262.16L259.42 327.65L262.35 331.12H261.56L259 328.14Z" fill="#263238"/>
<path d="M263.44 324.77H264.11V331.12H263.44V324.77Z" fill="#263238"/>
<path d="M271.46 324.77V331.12H270.91L266.84 326V331.15H266.17V324.8H266.72L270.8 329.96V324.8L271.46 324.77Z" fill="#263238"/>
<path d="M278 328H278.64V330.42C277.991 330.964 277.166 331.252 276.32 331.23C275.896 331.23 275.476 331.146 275.084 330.984C274.692 330.822 274.336 330.584 274.036 330.284C273.736 329.984 273.498 329.628 273.336 329.236C273.173 328.844 273.09 328.424 273.09 328C273.09 327.576 273.173 327.156 273.336 326.764C273.498 326.372 273.736 326.016 274.036 325.716C274.336 325.416 274.692 325.178 275.084 325.016C275.476 324.854 275.896 324.77 276.32 324.77C276.756 324.75 277.191 324.822 277.597 324.981C278.003 325.139 278.372 325.381 278.68 325.69L278.26 326.11C277.954 325.786 277.573 325.544 277.15 325.405C276.727 325.265 276.276 325.234 275.838 325.312C275.4 325.391 274.988 325.577 274.64 325.855C274.292 326.133 274.019 326.493 273.845 326.902C273.671 327.312 273.601 327.759 273.643 328.202C273.685 328.645 273.837 329.071 274.084 329.441C274.332 329.811 274.668 330.113 275.062 330.321C275.455 330.528 275.895 330.635 276.34 330.63C276.931 330.648 277.513 330.476 278 330.14V328Z" fill="#263238"/>
<path d="M280.06 330.67C280.058 330.606 280.07 330.543 280.093 330.483C280.117 330.424 280.152 330.37 280.197 330.324C280.241 330.278 280.295 330.242 280.354 330.217C280.413 330.193 280.476 330.18 280.54 330.18C280.67 330.18 280.794 330.232 280.886 330.324C280.978 330.415 281.03 330.54 281.03 330.67C281.03 330.801 280.978 330.927 280.887 331.02C280.795 331.114 280.671 331.167 280.54 331.17C280.475 331.169 280.412 331.155 280.353 331.129C280.294 331.103 280.241 331.066 280.196 331.019C280.152 330.973 280.117 330.918 280.093 330.858C280.07 330.798 280.058 330.734 280.06 330.67Z" fill="#263238"/>
<path d="M282 330.67C281.999 330.606 282.01 330.543 282.034 330.483C282.057 330.424 282.092 330.37 282.137 330.324C282.182 330.278 282.235 330.242 282.294 330.217C282.353 330.193 282.416 330.18 282.48 330.18C282.544 330.18 282.608 330.193 282.667 330.217C282.727 330.242 282.781 330.278 282.826 330.324C282.872 330.369 282.908 330.423 282.933 330.482C282.957 330.542 282.97 330.606 282.97 330.67C282.97 330.801 282.919 330.927 282.827 331.02C282.735 331.114 282.611 331.167 282.48 331.17C282.415 331.17 282.351 331.157 282.291 331.132C282.232 331.106 282.178 331.069 282.133 331.022C282.088 330.976 282.053 330.92 282.031 330.86C282.008 330.799 281.997 330.735 282 330.67Z" fill="#263238"/>
<path d="M283.9 330.67C283.898 330.606 283.91 330.543 283.933 330.483C283.957 330.424 283.992 330.37 284.037 330.324C284.082 330.278 284.135 330.242 284.194 330.217C284.253 330.193 284.316 330.18 284.38 330.18C284.444 330.18 284.507 330.193 284.566 330.217C284.625 330.242 284.678 330.278 284.723 330.324C284.768 330.37 284.803 330.424 284.826 330.483C284.85 330.543 284.861 330.606 284.86 330.67C284.861 330.734 284.85 330.798 284.826 330.858C284.803 330.918 284.768 330.973 284.723 331.019C284.679 331.066 284.626 331.103 284.567 331.129C284.508 331.155 284.444 331.169 284.38 331.17C284.315 331.17 284.251 331.157 284.191 331.132C284.132 331.106 284.078 331.069 284.033 331.022C283.988 330.976 283.953 330.92 283.93 330.86C283.908 330.799 283.897 330.735 283.9 330.67Z" fill="#263238"/>
<path d="M307.33 288.03H207.7C201.503 288.03 196.48 293.053 196.48 299.25V301.11C196.48 307.307 201.503 312.33 207.7 312.33H307.33C313.527 312.33 318.55 307.307 318.55 301.11V299.25C318.55 293.053 313.527 288.03 307.33 288.03Z" fill="#F5F5F5"/>
<path d="M253.12 288.03H207.7C201.503 288.03 196.48 293.053 196.48 299.25V301.11C196.48 307.307 201.503 312.33 207.7 312.33H253.12C259.317 312.33 264.34 307.307 264.34 301.11V299.25C264.34 293.053 259.317 288.03 253.12 288.03Z" fill="#FD6703"/>
<path d="M293.52 302C293.52 303.26 292.65 304.22 290.89 304.22C290.405 304.241 289.921 304.163 289.467 303.991C289.013 303.819 288.599 303.557 288.25 303.22L288.53 302.8C288.836 303.109 289.203 303.351 289.608 303.511C290.012 303.671 290.445 303.746 290.88 303.73C292.27 303.73 292.98 303.03 292.98 302.03C292.98 301.03 292.32 300.3 290.28 300.3H288.76L289.16 296.65H293.16V297.15H289.64L289.35 299.8H290.42C292.69 299.75 293.52 300.62 293.52 302Z" fill="#FD6703"/>
<path d="M299.46 302C299.46 303.26 298.59 304.22 296.83 304.22C296.345 304.241 295.861 304.163 295.407 303.991C294.953 303.819 294.539 303.557 294.19 303.22L294.47 302.8C294.776 303.109 295.143 303.351 295.548 303.511C295.952 303.671 296.385 303.746 296.82 303.73C298.21 303.73 298.91 303.03 298.91 302.03C298.91 301.03 298.26 300.3 296.22 300.3H294.7L295.09 296.65H299.09V297.15H295.56L295.28 299.8H296.35C298.62 299.75 299.46 300.62 299.46 302Z" fill="#FD6703"/>
<path d="M300.28 298.59C300.28 297.37 300.96 296.59 301.93 296.59C302.9 296.59 303.6 297.4 303.6 298.59C303.6 299.78 302.91 300.59 301.93 300.59C300.95 300.59 300.28 299.82 300.28 298.59ZM303.19 298.59C303.19 297.59 302.68 296.93 301.93 296.93C301.18 296.93 300.69 297.56 300.69 298.59C300.69 299.62 301.19 300.26 301.93 300.26C302.67 300.26 303.19 299.63 303.19 298.59ZM306.51 296.59H307L301.87 304.12H301.41L306.51 296.59ZM304.77 302.13C304.77 300.9 305.45 300.13 306.43 300.13C307.41 300.13 308.08 300.93 308.08 302.13C308.08 303.33 307.41 304.13 306.43 304.13C305.45 304.13 304.77 303.37 304.77 302.14V302.13ZM307.67 302.13C307.67 301.13 307.17 300.46 306.43 300.46C305.69 300.46 305.17 301.09 305.17 302.13C305.17 303.17 305.68 303.8 306.43 303.8C307.18 303.8 307.67 303.17 307.67 302.14V302.13Z" fill="#FD6703"/>
<g opacity="0.2">
<path d="M225.99 288.03L216.87 312.04H223.57L232.08 288.03H225.99Z" fill="white"/>
</g>
<g opacity="0.2">
<path d="M242.45 288.03L233.32 312.04H240.03L248.53 288.03H242.45Z" fill="white"/>
</g>
<g opacity="0.2">
<path d="M258.57 289.84L250.07 312.19H254.07C255.128 311.964 256.16 311.628 257.15 311.19L263 294.63C261.954 292.683 260.43 291.034 258.57 289.84Z" fill="white"/>
</g>
<g opacity="0.2">
<path d="M210 288L201.61 310.08C203.402 311.246 205.474 311.913 207.61 312.01L216.12 288.01L210 288Z" fill="white"/>
</g>
<path d="M307.11 312.33C308.03 312.275 308.943 312.141 309.84 311.93C312.416 311.272 314.68 309.733 316.24 307.58C317.368 306.04 318.081 304.235 318.31 302.34C318.423 301.254 318.45 300.16 318.39 299.07C318.347 297.898 318.117 296.74 317.71 295.64C317.024 293.754 315.847 292.085 314.299 290.807C312.752 289.529 310.892 288.688 308.91 288.37C307.419 288.213 305.918 288.163 304.42 288.22L207.92 288.3C206.772 288.317 205.631 288.492 204.53 288.82C203.446 289.182 202.419 289.697 201.48 290.35C199.641 291.671 198.246 293.519 197.48 295.65C196.13 299.86 196.57 304.94 199.48 308.2C200.896 309.841 202.758 311.036 204.84 311.64C206.84 312.26 209.07 312.03 211.21 312.08H223.75L267.13 312.13L296.38 312.22H304.38L296.38 312.27L267.13 312.35L223.75 312.41H208C206.891 312.401 205.788 312.246 204.72 311.95C202.52 311.318 200.553 310.055 199.063 308.317C197.574 306.578 196.627 304.441 196.34 302.17C196.223 301.024 196.197 299.87 196.26 298.72C196.309 297.548 196.542 296.39 196.95 295.29C197.768 293.047 199.251 291.108 201.2 289.73C202.182 289.051 203.256 288.515 204.39 288.14C205.542 287.793 206.737 287.608 207.94 287.59L304.44 287.66C305.966 287.661 307.49 287.775 309 288C311.036 288.334 312.945 289.207 314.528 290.53C316.111 291.853 317.31 293.576 318 295.52C319.46 300.28 318.6 304.93 316.42 307.68C314.823 309.856 312.505 311.394 309.88 312.02C309.489 312.12 309.091 312.19 308.69 312.23C308.403 312.279 308.111 312.303 307.82 312.3C307.35 312.34 307.11 312.33 307.11 312.33Z" fill="#263238"/>
<path d="M208.29 421.31V429.47C208.29 429.631 208.246 429.789 208.165 429.927C208.083 430.066 207.965 430.179 207.824 430.257C207.683 430.335 207.524 430.373 207.363 430.368C207.203 430.364 207.046 430.316 206.91 430.23L200.49 426.15C200.364 426.067 200.261 425.954 200.189 425.822C200.118 425.689 200.081 425.541 200.081 425.39C200.081 425.239 200.118 425.091 200.189 424.958C200.261 424.826 200.364 424.713 200.49 424.63L206.91 420.55C207.046 420.464 207.203 420.416 207.363 420.412C207.524 420.407 207.683 420.445 207.824 420.523C207.965 420.601 208.083 420.715 208.165 420.853C208.246 420.991 208.29 421.149 208.29 421.31Z" fill="#E0E0E0"/>
<path d="M261 425.31C260.998 426.423 260.666 427.511 260.046 428.435C259.426 429.36 258.546 430.08 257.517 430.504C256.488 430.929 255.357 431.039 254.265 430.821C253.174 430.602 252.172 430.065 251.385 429.277C250.599 428.49 250.064 427.487 249.847 426.395C249.631 425.303 249.743 424.171 250.169 423.143C250.596 422.115 251.317 421.236 252.243 420.618C253.169 420 254.257 419.67 255.37 419.67C256.11 419.67 256.843 419.816 257.527 420.1C258.21 420.383 258.831 420.799 259.354 421.322C259.877 421.846 260.292 422.468 260.574 423.152C260.856 423.837 261.001 424.57 261 425.31Z" fill="#E0E0E0"/>
<path d="M309.95 420.41H303.31C302.277 420.41 301.44 421.247 301.44 422.28V428.95C301.44 429.983 302.277 430.82 303.31 430.82H309.95C310.983 430.82 311.82 429.983 311.82 428.95V422.28C311.82 421.247 310.983 420.41 309.95 420.41Z" fill="#E0E0E0"/>
<path d="M429.55 286.89C430.131 282.794 430.358 278.655 430.23 274.52C430.096 270.366 428.931 266.311 426.84 262.72C426.51 262.19 423.9 258.72 423.3 258.88C422.87 259.01 424.73 262.38 424.58 262.81C423.345 266.936 423.387 271.339 424.7 275.44C425.884 279.426 427.511 283.266 429.55 286.89Z" fill="#263238"/>
<path d="M411.37 314C410.76 311.14 410.27 308.89 410.25 308.9C410.23 308.91 400.25 309.9 397.61 300.29C396.35 295.65 394.53 285.89 392.98 277.04C392.178 272.449 393.134 267.725 395.658 263.808C398.182 259.89 402.088 257.067 406.6 255.9L407.53 255.66C417.7 253.66 425.09 261.17 426.82 271.39L434 306.92L418.21 323.67L411.37 314Z" fill="#FFBE9D"/>
<path d="M410.25 308.85C414.7 307.672 418.719 305.243 421.83 301.85C421.83 301.85 420.67 309.78 410.83 311.4L410.25 308.85Z" fill="#EB996E"/>
<path d="M398 284.61C398.098 284.962 398.329 285.263 398.644 285.449C398.959 285.636 399.333 285.693 399.69 285.61C399.869 285.579 400.039 285.512 400.192 285.414C400.344 285.315 400.475 285.187 400.577 285.037C400.679 284.886 400.749 284.717 400.784 284.539C400.819 284.361 400.817 284.178 400.78 284C400.683 283.648 400.454 283.348 400.141 283.162C399.828 282.975 399.455 282.917 399.1 283C398.921 283.031 398.75 283.098 398.597 283.196C398.444 283.295 398.312 283.423 398.21 283.573C398.107 283.723 398.036 283.892 398 284.07C397.964 284.248 397.964 284.432 398 284.61Z" fill="#263238"/>
<path d="M396.07 280.45C396.29 280.59 397.13 279.55 398.61 279.17C400.09 278.79 401.37 279.25 401.49 279.02C401.61 278.79 401.29 278.64 400.72 278.42C399.967 278.143 399.146 278.105 398.37 278.31C397.589 278.507 396.889 278.944 396.37 279.56C396 280 396 280.39 396.07 280.45Z" fill="#263238"/>
<path d="M411.39 281.93C411.488 282.282 411.719 282.583 412.034 282.769C412.349 282.956 412.724 283.013 413.08 282.93C413.258 282.9 413.429 282.834 413.582 282.737C413.735 282.64 413.867 282.513 413.969 282.363C414.072 282.214 414.143 282.046 414.18 281.868C414.216 281.691 414.216 281.508 414.18 281.33C414.09 280.97 413.863 280.659 413.547 280.463C413.232 280.267 412.853 280.201 412.49 280.28C412.307 280.312 412.133 280.381 411.978 280.482C411.822 280.583 411.689 280.715 411.587 280.869C411.484 281.024 411.413 281.197 411.379 281.38C411.346 281.562 411.349 281.749 411.39 281.93Z" fill="#263238"/>
<path d="M410.73 277.29C410.95 277.43 411.79 276.39 413.27 276.01C414.75 275.63 416.03 276.09 416.14 275.87C416.25 275.65 415.94 275.49 415.38 275.27C414.625 274.983 413.799 274.945 413.02 275.16C412.237 275.347 411.536 275.782 411.02 276.4C410.7 276.87 410.62 277.24 410.73 277.29Z" fill="#263238"/>
<path d="M408.37 290C407.526 289.966 406.68 290.029 405.85 290.19C405.46 290.25 405.08 290.27 404.95 290.03C404.834 289.642 404.834 289.228 404.95 288.84C405.07 287.84 405.2 286.78 405.33 285.67C405.82 281.17 406.07 277.51 405.89 277.5C405.71 277.49 405.16 281.11 404.67 285.61C404.56 286.72 404.45 287.77 404.35 288.78C404.232 289.3 404.299 289.844 404.54 290.32C404.63 290.437 404.745 290.533 404.876 290.6C405.008 290.668 405.152 290.705 405.3 290.71C405.526 290.712 405.751 290.685 405.97 290.63C406.793 290.521 407.6 290.31 408.37 290Z" fill="#263238"/>
<path d="M413 289.94C412.75 289.99 413.17 291.6 412.09 293.09C411.01 294.58 409.25 294.86 409.3 295.09C409.35 295.32 409.76 295.31 410.49 295.14C411.432 294.906 412.263 294.351 412.84 293.57C413.394 292.816 413.631 291.876 413.5 290.95C413.38 290.25 413.09 289.9 413 289.94Z" fill="#263238"/>
<path d="M409.25 271.27C409.5 271.63 410.93 271.06 412.72 270.82C414.51 270.58 416.04 270.69 416.18 270.27C416.24 270.07 415.89 269.75 415.23 269.51C414.352 269.216 413.415 269.138 412.5 269.28C411.584 269.409 410.71 269.752 409.95 270.28C409.38 270.69 409.14 271.09 409.25 271.27Z" fill="#263238"/>
<path d="M395.41 275.37C395.76 275.64 396.69 275.03 397.91 274.69C399.13 274.35 400.23 274.33 400.38 273.92C400.44 273.72 400.19 273.43 399.65 273.23C398.943 273.002 398.183 272.992 397.47 273.2C396.757 273.409 396.123 273.827 395.65 274.4C395.31 274.86 395.25 275.24 395.41 275.37Z" fill="#263238"/>
<path d="M427.88 278.68C428.03 278.57 433.99 275.01 435.49 281.68C436.99 288.35 430.01 288.45 429.95 288.26C429.89 288.07 427.88 278.68 427.88 278.68Z" fill="#FFBE9D"/>
<path d="M431.41 285.26C431.41 285.26 431.55 285.31 431.76 285.36C432.062 285.413 432.374 285.349 432.63 285.18C433 284.814 433.265 284.356 433.397 283.853C433.529 283.35 433.523 282.82 433.38 282.32C433.266 281.745 433.027 281.202 432.68 280.73C432.572 280.536 432.418 280.371 432.231 280.251C432.045 280.131 431.831 280.058 431.61 280.04C431.47 280.036 431.332 280.081 431.221 280.167C431.11 280.252 431.032 280.373 431 280.51C430.95 280.72 431 280.84 431 280.86C431 280.88 430.83 280.78 430.83 280.49C430.826 280.311 430.886 280.137 431 280C431.076 279.91 431.169 279.837 431.273 279.783C431.378 279.73 431.493 279.698 431.61 279.69C431.894 279.682 432.175 279.747 432.427 279.878C432.679 280.009 432.893 280.203 433.05 280.44C433.46 280.951 433.738 281.556 433.86 282.2C434.12 283.55 433.72 284.96 432.86 285.45C432.694 285.545 432.508 285.6 432.317 285.61C432.126 285.62 431.935 285.586 431.76 285.51C431.46 285.42 431.39 285.28 431.41 285.26Z" fill="#EB996E"/>
<path d="M394.9 265C393.7 264.64 396.18 260.45 398.56 258.68C402.17 256 408.04 253.56 411.95 253.81C416.66 254.11 420.82 255.53 423.95 259.08C426.982 262.734 428.99 267.126 429.77 271.81C430.125 273.214 430.105 274.687 429.71 276.08C429.1 277.75 427.51 279.08 428.03 281.08C428.134 281.442 428.166 281.821 428.123 282.195C428.08 282.569 427.963 282.931 427.78 283.26C426.84 284.82 425.09 283.93 424.14 282.85C422.14 280.56 421.28 277.49 420.51 274.53C419.843 272.457 419.522 270.288 419.56 268.11C419.65 266.93 419.94 265.77 419.97 264.59C420.016 263.999 419.933 263.405 419.728 262.849C419.523 262.294 419.199 261.789 418.78 261.37C418.57 261.211 418.35 261.067 418.12 260.94C417.016 260.331 415.77 260.026 414.51 260.058C413.25 260.09 412.021 260.456 410.95 261.12C407.49 263.25 401.52 266.61 399.58 265.7C398.216 265.17 396.98 264.359 395.95 263.32L394.9 265Z" fill="#263238"/>
<path d="M410.51 250.15C410.97 250.1 422.23 249.81 426.9 257.07C431.57 264.33 431.4 266.96 431.4 266.96C431.882 267.119 432.34 267.344 432.76 267.63C433.33 268.04 433.32 270.71 431.86 270.78C420.29 268.78 407.86 271.46 394.25 275.35L383.71 277.88C380.86 278.97 379.63 278.45 380.71 277.39C381.52 276.59 389.02 271.13 389.02 271.13L390.35 269.51L393.17 262.4C393.17 262.4 392.42 261.7 393.31 260.74C394.2 259.78 401.52 251.14 410.51 250.15Z" fill="#FD6703"/>
<path d="M390.32 269.51C390.459 269.487 390.596 269.453 390.73 269.41L391.9 269.09C392.9 268.79 394.38 268.43 396.21 268.01C400.991 266.979 405.853 266.367 410.74 266.18C415.629 266.012 420.523 266.119 425.4 266.5C427.28 266.63 428.79 266.77 429.84 266.86L431.04 266.96H431.46L431.05 266.9L429.84 266.77C428.84 266.66 427.29 266.5 425.41 266.36C420.532 265.93 415.633 265.803 410.74 265.98C405.84 266.165 400.966 266.794 396.18 267.86C392.52 268.74 390.32 269.51 390.32 269.51Z" fill="#263238"/>
<g opacity="0.3">
<path d="M421.42 252.36C421.42 252.36 409.47 253.36 404.96 257.18L405.48 256.73L401.16 260.1C400.841 260.433 400.452 260.691 400.022 260.855C399.591 261.02 399.129 261.086 398.67 261.05C400.418 258.729 402.586 256.755 405.06 255.23C409.45 252.39 416.9 249.76 421.42 252.36Z" fill="black"/>
</g>
<path d="M421.6 252.38C421.211 252.214 420.81 252.077 420.4 251.97C419.288 251.657 418.144 251.476 416.99 251.43C415.273 251.363 413.555 251.545 411.89 251.97C409.835 252.448 407.906 253.358 406.23 254.64C405.384 255.325 404.582 256.063 403.83 256.85C403.1 257.6 402.36 258.29 401.72 259.02C401.16 259.743 400.534 260.412 399.85 261.02C399.234 261.507 398.516 261.849 397.75 262.02C394.94 262.77 393.06 262.62 393.14 262.41C393.172 262.457 393.214 262.496 393.262 262.525C393.31 262.554 393.364 262.573 393.42 262.58C393.729 262.646 394.045 262.67 394.36 262.65C395.515 262.605 396.662 262.434 397.78 262.14C398.572 261.981 399.315 261.638 399.95 261.14C400.641 260.531 401.277 259.861 401.85 259.14C402.48 258.43 403.23 257.73 403.96 256.98C404.708 256.205 405.503 255.477 406.34 254.8C407.996 253.53 409.901 252.624 411.93 252.14C413.578 251.711 415.278 251.519 416.98 251.57C418.131 251.602 419.275 251.763 420.39 252.05L421.29 252.3C421.391 252.334 421.495 252.361 421.6 252.38Z" fill="#263238"/>
<g opacity="0.3">
<path d="M428.73 260.13C426.781 260.489 424.8 260.636 422.82 260.57C420.52 260.64 418.27 260.81 415.97 260.78C414.23 260.78 412.2 260.85 410.84 259.94C410.867 260.356 411 260.757 411.226 261.107C411.451 261.457 411.763 261.744 412.13 261.94C413.378 262.373 414.689 262.596 416.01 262.6C420.575 262.838 425.153 262.573 429.66 261.81C429.391 261.216 429.08 260.641 428.73 260.09" fill="black"/>
</g>
<path d="M426.35 256.28C427.79 256.52 428.69 256.7 429.01 257.8C429.27 258.71 429.37 259.89 428.5 260.28C428.229 260.385 427.94 260.436 427.65 260.43L412.72 261.17C412.217 261.256 411.699 261.161 411.26 260.9C410.989 260.622 410.837 260.249 410.837 259.86C410.837 259.471 410.989 259.098 411.26 258.82C411.832 258.295 412.544 257.947 413.31 257.82C417.556 256.736 421.928 256.228 426.31 256.31" fill="#FD6703"/>
<path d="M411.53 261.05C411.308 260.927 411.121 260.748 410.99 260.53C410.831 260.226 410.758 259.884 410.781 259.542C410.804 259.199 410.922 258.87 411.12 258.59C411.84 257.843 412.792 257.364 413.82 257.23C414.97 257 416.25 256.76 417.59 256.56C419.88 256.185 422.2 256.018 424.52 256.06C425.41 256.06 426.12 256.14 426.62 256.18L427.19 256.24H427.39L427.2 256.19L426.63 256.1C426.13 256.04 425.41 255.95 424.52 255.92C422.178 255.84 419.833 255.991 417.52 256.37C416.18 256.57 414.9 256.82 413.75 257.06C412.688 257.204 411.708 257.713 410.98 258.5C410.771 258.799 410.651 259.152 410.635 259.517C410.619 259.882 410.708 260.244 410.89 260.56C410.994 260.726 411.139 260.864 411.31 260.96L411.53 261.05Z" fill="#263238"/>
<path d="M392.26 264.63L401.14 262.18L401.03 264.89L391.26 267.15L392.26 264.63Z" fill="white"/>
<path d="M407.78 269.14C407.78 269.09 403.65 269.53 398.56 270.14C393.47 270.75 389.36 271.26 389.36 271.31C389.36 271.36 393.5 270.92 398.58 270.31C403.66 269.7 407.79 269.19 407.78 269.14Z" fill="#263238"/>
<path d="M382.12 323.67L391.12 345.51L395.12 328.72C395.94 325.484 397.559 322.506 399.83 320.06C400.632 319.217 401.501 318.441 402.43 317.74L409.5 350.12C409.5 350.12 403.5 368.56 389.25 368.99C385.11 369.11 378.8 366.48 376.83 361.87C375.83 359.59 363.16 329.51 363.16 329.51L382.12 323.67Z" fill="#E0E0E0"/>
<path d="M385.97 341.13L386.48 337.9L375.87 328.9L373.99 331.01L367.94 337.94L390.8 356.48L396.31 349.86L385.97 341.13Z" fill="#263238"/>
<path d="M471.69 381.59C471.99 377.09 466.53 325.59 466.53 325.59L454.82 308.29L432.49 304.36C432.15 307.08 430.4 314.18 421.19 316.8C416.45 318.15 411.3 313.42 411.3 313.42L402.43 317.73L405.8 341.85L410.15 369.37L471.92 386.93C471.92 386.93 471.39 386.1 471.69 381.59Z" fill="#E0E0E0"/>
<path d="M412.92 372.23L410.15 339.03L442.45 332.49L471.48 375.45L472.33 390.13L427.69 388.74L412.92 372.23Z" fill="#FD6703"/>
<path d="M404.58 329.09C404.754 329.597 404.878 330.119 404.95 330.65C405.16 331.65 405.42 333.13 405.72 334.94C406.31 338.58 406.97 343.63 407.63 349.21C408.29 354.79 408.88 359.83 409.38 363.48C409.63 365.23 409.83 366.68 409.98 367.79C410.082 368.314 410.139 368.846 410.15 369.38C409.989 368.87 409.865 368.348 409.78 367.82C409.57 366.82 409.31 365.35 409.02 363.53C408.42 359.89 407.76 354.85 407.11 349.27C406.46 343.69 405.85 338.64 405.35 335C405.11 333.25 404.91 331.79 404.75 330.68C404.654 330.155 404.597 329.624 404.58 329.09Z" fill="#263238"/>
<path d="M386 341.07C386 341.07 390.33 341.62 391.85 342.41C393.37 343.2 397.8 346.13 397.8 346.13L406.72 347.82L404.59 362.56L398.59 359.56L385.43 360.87C385.43 360.87 382.56 360.21 382.56 358.16C381.877 357.745 381.293 357.183 380.853 356.516C380.412 355.848 380.124 355.092 380.01 354.3C378.629 352.536 377.347 350.696 376.17 348.79C375.85 347.9 377.64 345.79 377.64 345.79C377.64 345.79 381.4 348.98 383.64 349.48C385.88 349.98 387.99 349.08 388.19 347.61C388.64 344.66 386 341.07 386 341.07Z" fill="#FFBE9D"/>
<g opacity="0.3">
<path d="M409.66 366.5C409.66 366.5 439.66 377.24 449.66 376.6C458.17 376.06 462.36 372.07 463.04 366.5C463.72 360.93 464.65 337.24 464.65 337.24L448.6 365.11L409.5 363.88L409.66 366.5Z" fill="black"/>
</g>
<path d="M458.3 365C460.46 358.84 462.83 347 462.83 347L466.56 327.27C466.693 322.126 464.967 317.106 461.7 313.13C459.25 310.19 455.82 307.68 451.24 307.7C441.55 307.7 441.89 325.61 441.89 325.61L439.25 351.2L401.31 345L398.9 363.24L443.52 372.87C445.397 373.339 447.353 373.393 449.253 373.028C451.152 372.664 452.95 371.89 454.52 370.76C456.334 369.267 457.652 367.258 458.3 365Z" fill="#E0E0E0"/>
<path d="M452.31 309.27C452.31 309.35 451.54 309.39 450.36 309.71C448.812 310.107 447.375 310.855 446.162 311.895C444.948 312.936 443.99 314.241 443.36 315.71C442.87 316.84 442.72 317.6 442.64 317.59C442.603 316.903 442.73 316.218 443.01 315.59C443.574 314.016 444.535 312.614 445.8 311.521C447.065 310.427 448.591 309.68 450.23 309.35C450.907 309.157 451.62 309.13 452.31 309.27Z" fill="#263238"/>
<path d="M466.56 327.26C466.56 327.26 466.56 327.43 466.5 327.74C466.44 328.05 466.36 328.53 466.26 329.12L465.31 334.44C464.88 336.75 464.36 339.58 463.76 342.85C463.16 346.12 462.45 349.85 461.5 353.94C461.03 355.99 460.5 358.13 459.92 360.34C459.63 361.45 459.3 362.57 458.92 363.71C458.575 364.886 458.137 366.033 457.61 367.14C457.064 368.3 456.316 369.353 455.4 370.25C454.422 371.137 453.303 371.857 452.09 372.38C449.542 373.465 446.728 373.761 444.01 373.23L408.73 365.64L398.82 363.5L398.58 363.45V363.22C399.41 356.92 400.22 350.82 400.99 344.97V344.72H401.24L439.28 351L439.07 351.16C439.92 343.23 440.61 336.84 441.07 332.41C441.31 330.23 441.51 328.53 441.64 327.35C441.71 326.79 441.76 326.35 441.8 326.04C441.84 325.73 441.87 325.59 441.87 325.59C441.87 325.59 441.87 325.75 441.87 326.04C441.87 326.33 441.81 326.8 441.76 327.36C441.65 328.54 441.49 330.24 441.28 332.43C440.85 336.87 440.21 343.26 439.43 351.2V351.39H439.24L401.24 345.27L401.52 345.06C400.76 350.9 399.96 357 399.13 363.3L399 363L408.91 365.13L444.17 372.76C446.791 373.282 449.509 373.003 451.97 371.96C453.14 371.482 454.22 370.805 455.16 369.96C456.047 369.096 456.772 368.08 457.3 366.96C457.815 365.874 458.246 364.751 458.59 363.6C458.94 362.47 459.27 361.35 459.59 360.25C460.2 358.04 460.72 355.91 461.2 353.87C462.2 349.79 462.92 346.08 463.53 342.8C464.14 339.52 464.72 336.72 465.17 334.41C465.62 332.1 465.97 330.35 466.22 329.11C466.34 328.53 466.44 328.11 466.51 327.74C466.58 327.37 466.56 327.26 466.56 327.26Z" fill="#263238"/>
<path d="M443.66 357.68C442.689 356.666 441.84 355.542 441.13 354.33C440.49 353.33 439.94 352.44 439.55 351.84C439.327 351.526 439.018 351.283 438.66 351.14C438.66 351.14 438.78 351.05 439.02 351.09C439.338 351.175 439.621 351.357 439.83 351.61C440.449 352.389 441.026 353.2 441.56 354.04C442.408 355.162 443.113 356.385 443.66 357.68Z" fill="#263238"/>
<path d="M437.17 334.25C437.17 334.25 430.42 317.13 437.46 308.76C438.283 307.802 439.32 307.053 440.488 306.573C441.656 306.094 442.921 305.897 444.18 306C446.4 306.17 449.35 306.6 451.24 307.69C451.24 307.69 445.24 306.62 442.75 309.27C440.91 311.27 436.48 317.58 441.15 332.75L437.17 334.25Z" fill="#FD6703"/>
<path d="M410.27 339.83L403.39 317.27C403.787 316.551 404.401 315.976 405.145 315.628C405.889 315.279 406.724 315.175 407.53 315.33L414.17 339.83H410.27Z" fill="#FD6703"/>
<path d="M387.84 347.81C387.75 347.92 384.02 345.11 379.5 341.53C376.724 339.438 374.053 337.209 371.5 334.85C371.59 334.74 375.32 337.55 379.84 341.13C382.616 343.222 385.287 345.451 387.84 347.81Z" fill="#455A64"/>
<path d="M369.9 335.7L367.85 333.81L368.83 332.6L371.21 334.2L369.9 335.7Z" fill="#455A64"/>
<path d="M350.62 306.2C350.391 305.308 350.517 304.362 350.973 303.562C351.428 302.761 352.176 302.169 353.06 301.91C356.78 300.81 362.52 299.44 364.06 300.91C366.43 303.08 372.06 308.33 372.06 308.33L379.88 324.56L367.22 328.29L363.62 315.94C363.62 315.94 357.86 316.25 358.37 313.16C358.37 313.16 355.49 312.03 355.9 310.28C356.31 308.53 358.68 308.12 358.68 308.12L358.17 305.03L350.6 306.36L350.62 306.2Z" fill="#FFBE9D"/>
<path d="M356.85 310.49H350.47V303H356.85C357.847 303 358.803 303.396 359.508 304.101C360.214 304.806 360.61 305.763 360.61 306.76C360.599 307.751 360.199 308.698 359.495 309.396C358.791 310.095 357.841 310.487 356.85 310.49Z" fill="#455A64"/>
<path d="M361.71 306.59L352.13 304.12C352.13 304.12 349.56 303.4 350.9 306.18C352.24 308.96 356.25 308.34 357.79 309.99C359.33 311.64 360.21 314.42 366.6 315.45" fill="#FFBE9D"/>
<path d="M366.6 315.45C366.173 315.449 365.747 315.402 365.33 315.31C364.186 315.1 363.073 314.744 362.02 314.25C361.294 313.895 360.621 313.441 360.02 312.9C359.35 312.265 358.741 311.569 358.2 310.82C357.2 309.09 354.84 309.18 352.76 308.23C352.228 307.989 351.746 307.649 351.34 307.23C350.961 306.806 350.666 306.314 350.47 305.78C350.369 305.513 350.305 305.234 350.28 304.95C350.268 304.786 350.292 304.621 350.351 304.467C350.409 304.313 350.501 304.174 350.62 304.06C350.865 303.91 351.141 303.817 351.426 303.789C351.712 303.762 352.001 303.8 352.27 303.9L357.21 305.23L360.53 306.17C360.942 306.268 361.344 306.405 361.73 306.58C361.306 306.56 360.887 306.489 360.48 306.37L357.11 305.58L352.11 304.36C351.917 304.288 351.712 304.258 351.506 304.272C351.301 304.286 351.101 304.343 350.92 304.44C350.67 304.63 350.74 305.15 350.92 305.6C351.094 306.069 351.351 306.503 351.68 306.88C352.051 307.24 352.48 307.534 352.95 307.75C353.946 308.143 354.964 308.477 356 308.75C356.52 308.895 357.016 309.118 357.47 309.41C357.881 309.723 358.242 310.098 358.54 310.52C359.058 311.257 359.64 311.946 360.28 312.58C360.851 313.104 361.486 313.554 362.17 313.92C363.598 314.561 365.081 315.073 366.6 315.45Z" fill="#EB996E"/>
<path d="M366 362.11C364.868 362.076 363.764 361.755 362.791 361.176C361.818 360.596 361.009 359.779 360.44 358.8C359.703 357.467 359.284 355.983 359.215 354.462C359.145 352.941 359.428 351.424 360.04 350.03C360.12 349.85 360.2 349.66 360.29 349.49L360.2 349.26C359.621 347.569 359.318 345.797 359.3 344.01C358.94 338.15 358.6 332.7 358.3 327.26C358 321.82 357.64 316.34 357.3 310.47H357.8C358.16 316.34 358.5 321.8 358.8 327.26C359.1 332.72 359.46 338.15 359.8 344.01C359.812 345.708 360.085 347.395 360.61 349.01C361.223 347.872 362.262 347.024 363.5 346.65C363.931 346.555 364.378 346.553 364.81 346.642C365.243 346.732 365.652 346.912 366.01 347.17C366.358 347.406 366.65 347.716 366.866 348.077C367.082 348.438 367.216 348.842 367.26 349.26C367.289 349.708 367.222 350.157 367.065 350.577C366.908 350.998 366.664 351.38 366.348 351.7C366.033 352.019 365.653 352.268 365.235 352.43C364.816 352.592 364.368 352.664 363.92 352.64C363.202 352.519 362.523 352.227 361.941 351.789C361.36 351.35 360.893 350.778 360.58 350.12L360.5 350.3C359.918 351.62 359.648 353.056 359.711 354.497C359.773 355.938 360.166 357.345 360.86 358.61C361.496 359.765 362.505 360.671 363.721 361.181C364.937 361.691 366.29 361.775 367.56 361.42C369.89 360.58 371.71 357.77 371.98 354.57C372.102 351.54 371.411 348.533 369.98 345.86C369.34 344.52 368.6 343.21 367.89 341.94C367.18 340.67 366.41 339.3 365.76 337.94C365.218 336.945 364.907 335.841 364.85 334.71C364.812 334.127 364.946 333.546 365.233 333.038C365.521 332.53 365.951 332.117 366.47 331.85C366.752 331.758 367.052 331.737 367.344 331.787C367.636 331.838 367.912 331.959 368.146 332.141C368.381 332.322 368.568 332.558 368.69 332.828C368.813 333.098 368.868 333.394 368.85 333.69H368.36C368.373 333.478 368.332 333.265 368.241 333.073C368.15 332.881 368.012 332.715 367.84 332.59C367.675 332.457 367.481 332.367 367.273 332.327C367.066 332.286 366.852 332.298 366.65 332.36C366.23 332.598 365.885 332.949 365.655 333.373C365.425 333.798 365.319 334.278 365.35 334.76C365.415 335.811 365.708 336.835 366.21 337.76C366.85 339.13 367.6 340.46 368.33 341.76C369.06 343.06 369.78 344.35 370.43 345.71C371.894 348.475 372.585 351.585 372.43 354.71C372.19 357.57 370.63 360.93 367.69 361.99C367.137 362.123 366.566 362.164 366 362.11ZM360.85 349.5C361.115 350.155 361.539 350.734 362.084 351.184C362.628 351.635 363.277 351.943 363.97 352.08C364.342 352.098 364.714 352.035 365.059 351.895C365.404 351.755 365.715 351.542 365.97 351.27C366.24 351.015 366.449 350.704 366.582 350.357C366.715 350.011 366.769 349.64 366.74 349.27C366.707 348.927 366.601 348.595 366.428 348.296C366.256 347.997 366.021 347.74 365.74 347.54C365.442 347.32 365.1 347.167 364.738 347.089C364.376 347.011 364.002 347.012 363.64 347.09C363.041 347.285 362.488 347.6 362.014 348.014C361.54 348.428 361.154 348.933 360.88 349.5H360.85Z" fill="#455A64"/>
<path d="M424.24 454.09L447.36 446.18C447.36 446.18 463.16 467 467.58 466L453.86 420.6L417.32 431.44L424.24 454.09Z" fill="#455A64"/>
<path d="M441.15 432.74C441.15 432.263 441.327 431.802 441.646 431.448C441.966 431.093 442.405 430.869 442.88 430.82C443.355 430.803 443.819 430.968 444.177 431.283C444.534 431.597 444.757 432.036 444.8 432.51C444.79 433.011 444.598 433.49 444.259 433.859C443.92 434.227 443.458 434.459 442.96 434.51C442.459 434.477 441.99 434.249 441.654 433.875C441.318 433.502 441.141 433.012 441.16 432.51" fill="#E0E0E0"/>
<path d="M454.8 420.28L451.26 421.28L464.73 464.84C464.73 464.84 466.23 466.6 467.58 465.94L454.8 420.28Z" fill="#E0E0E0"/>
<path d="M447.35 447C447.57 446.93 447.35 445.79 447.72 444.49C448.09 443.19 448.86 442.32 448.72 442.14C448.58 441.96 447.39 442.68 446.95 444.27C446.51 445.86 447.16 447.09 447.35 447Z" fill="#263238"/>
<path d="M450.76 451.15C450.99 451.15 451.08 450.06 451.76 449.02C452.44 447.98 453.39 447.47 453.32 447.25C453.25 447.03 451.94 447.25 451.08 448.58C450.22 449.91 450.55 451.21 450.76 451.15Z" fill="#263238"/>
<path d="M457.27 452.13C457.27 451.91 456.06 451.94 455.02 452.88C453.98 453.82 453.81 454.99 454.02 455.03C454.23 455.07 454.69 454.23 455.56 453.48C456.43 452.73 457.32 452.36 457.27 452.13Z" fill="#263238"/>
<path d="M441.88 448.2C442.06 448.05 441.44 447.12 441.15 445.84C440.86 444.56 440.96 443.47 440.73 443.41C440.5 443.35 440 444.53 440.37 446.03C440.74 447.53 441.74 448.36 441.88 448.2Z" fill="#263238"/>
<path d="M421.43 392.43C420.54 392.19 381.38 434.19 380.49 441.14C379.6 448.09 381.02 454.14 385.65 458.04C390.28 461.94 442.96 449.14 442.96 449.14L437.96 427.07L456.96 420.67L439.96 389.52L421.43 392.43Z" fill="#FD6703"/>
<g opacity="0.3">
<path d="M412.16 401.74L410.91 403.09C410.91 403.09 433.35 426.64 440.24 426.31L451.24 422.58L414 399.7L412.16 401.74Z" fill="black"/>
</g>
<path d="M438.11 427.65C438.11 427.79 429.98 430.31 419.87 433.28C409.76 436.25 401.51 438.55 401.47 438.41C401.43 438.27 409.6 435.76 419.72 432.78C429.84 429.8 438.07 427.51 438.11 427.65Z" fill="#263238"/>
<path d="M389.21 430.08L396.82 454.22C396.82 454.22 374.82 470.07 375.82 474.67L423.17 461.59L412.86 423.48L389.21 430.08Z" fill="#455A64"/>
<path d="M410.89 448.13C411.383 448.141 411.856 448.333 412.216 448.671C412.576 449.009 412.798 449.468 412.84 449.96C412.859 450.464 412.68 450.955 412.342 451.329C412.004 451.702 411.533 451.929 411.03 451.96C410.509 451.931 410.017 451.711 409.647 451.342C409.278 450.973 409.059 450.481 409.03 449.96C409.1 448.96 410.17 447.96 411.13 448.15" fill="#E0E0E0"/>
<path d="M423.46 462.58L422.46 458.88L377 471.75C377 471.75 375.14 473.25 375.79 474.67L423.46 462.58Z" fill="#E0E0E0"/>
<path d="M396 454.19C396.08 454.42 397.26 454.19 398.6 454.64C399.94 455.09 400.82 455.87 401.01 455.72C401.2 455.57 400.48 454.33 398.85 453.84C397.22 453.35 395.88 454 396 454.19Z" fill="#263238"/>
<path d="M391.59 457.62C391.59 457.86 392.7 457.97 393.76 458.73C394.82 459.49 395.33 460.47 395.55 460.39C395.77 460.31 395.55 458.97 394.24 458.05C392.93 457.13 391.53 457.4 391.59 457.62Z" fill="#263238"/>
<path d="M390.41 464.34C390.63 464.34 390.63 463.09 389.69 461.99C388.75 460.89 387.53 460.68 387.48 460.9C387.43 461.12 388.29 461.61 389.05 462.53C389.81 463.45 390.17 464.38 390.41 464.34Z" fill="#263238"/>
<path d="M394.86 448.5C395.01 448.68 395.99 448.07 397.32 447.8C398.65 447.53 399.78 447.66 399.85 447.42C399.92 447.18 398.71 446.64 397.14 446.98C395.57 447.32 394.7 448.35 394.86 448.5Z" fill="#263238"/>
<g opacity="0.3">
<path d="M423.49 453.54L420.57 442.09L422.75 441.08L409.5 405.02L406.97 407.22L417.38 440.25L421.11 454.04L423.49 453.54Z" fill="black"/>
</g>
<path d="M392.23 364.28C389.661 363.728 387.005 363.729 384.436 364.28C381.868 364.832 379.446 365.922 377.33 367.48C375.191 368.986 373.529 371.075 372.543 373.499C371.558 375.922 371.289 378.578 371.77 381.15C373.9 396.15 393.01 447.15 393.01 447.15L419.45 439.2C419.6 439.2 419.75 438.72 419.66 438.85C419.45 439.2 406.25 396.69 406.58 397.19C406.91 397.69 433.26 419 444.2 422.86C449.097 424.636 454.436 424.79 459.428 423.299C464.42 421.808 468.799 418.751 471.92 414.58C474.48 411 474.66 395.26 471.92 386.94C471.92 386.94 395.62 365.31 394.19 364.78C393.548 364.571 392.893 364.404 392.23 364.28Z" fill="#FD6703"/>
<path d="M391.15 379.84C395.373 382.691 398.94 386.41 401.613 390.749C404.286 395.087 406.003 399.946 406.65 405" fill="#FD6703"/>
<path d="M473 414.06L472.68 414.57C472.349 415.053 471.992 415.517 471.61 415.96C470.089 417.656 468.335 419.127 466.4 420.33C463.327 422.295 459.882 423.605 456.28 424.18C454.013 424.547 451.705 424.578 449.43 424.27C446.86 423.96 444.364 423.209 442.05 422.05C440.79 421.52 439.6 420.8 438.33 420.15C437.06 419.5 435.82 418.72 434.56 417.92C432.033 416.353 429.44 414.647 426.78 412.8C421.446 409.12 415.9 404.98 410.14 400.38L407.98 398.63L406.9 397.73L406.61 397.46L406.47 397.33C406.56 397.33 406.22 397.21 406.66 397.39C407.01 397.02 406.76 397.21 406.84 397.17V397.24L407.03 397.92C407.59 399.72 408.15 401.55 408.73 403.41C409.903 407.11 411.1 410.9 412.32 414.78C414.8 422.54 417.38 430.64 420.05 439.01L420.13 439.25L419.88 439.33L393.11 447.39L392.87 447.46L392.79 447.23C391.08 442.65 389.31 437.78 387.54 432.83C383.7 422.09 380.05 411.57 376.84 401.3C375.23 396.17 373.73 391.1 372.53 386.05C372.38 385.42 372.21 384.8 372.09 384.16C371.97 383.52 371.86 382.89 371.74 382.26C371.477 381.001 371.353 379.716 371.37 378.43C371.374 375.867 372.109 373.359 373.49 371.2C374.887 369.19 376.692 367.496 378.787 366.23C380.882 364.963 383.22 364.152 385.65 363.85C387.981 363.514 390.354 363.613 392.65 364.14L394.32 364.57L395.93 365.05L399.12 366L422.53 373L456.43 383.16L465.64 385.95L468.03 386.68C468.57 386.85 468.84 386.95 468.84 386.95C468.84 386.95 468.56 386.89 468.01 386.73L465.61 386.05L456.37 383.35L422.37 373.35L398.93 366.41L395.74 365.47L394.1 365L392.49 364.6C390.262 364.096 387.961 364.001 385.7 364.32C383.337 364.616 381.063 365.406 379.026 366.64C376.99 367.874 375.236 369.523 373.88 371.48C372.554 373.572 371.859 376.003 371.88 378.48C371.864 379.74 371.988 380.998 372.25 382.23C372.36 382.85 372.48 383.48 372.6 384.11C372.72 384.74 372.89 385.36 373.03 385.99C374.23 390.99 375.73 396.07 377.35 401.2C380.56 411.45 384.21 421.97 388.05 432.71C389.82 437.65 391.59 442.53 393.29 447.1L392.98 446.94L419.76 438.94L419.59 439.25C416.93 430.88 414.36 422.78 411.89 415.02C410.67 411.133 409.476 407.337 408.31 403.63C407.74 401.78 407.18 399.94 406.62 398.13L406.43 397.44V397.34C406.51 397.28 406.25 397.42 406.6 397.05C407.07 397.24 406.75 397.11 406.86 397.17L406.98 397.27L407.22 397.48L408.29 398.38L410.44 400.13C416.19 404.72 421.74 408.89 427.03 412.58C429.67 414.44 432.26 416.14 434.78 417.72C436.03 418.51 437.3 419.22 438.52 419.95C439.74 420.68 440.97 421.32 442.21 421.86C444.494 423.013 446.96 423.764 449.5 424.08C451.747 424.397 454.029 424.376 456.27 424.02C459.847 423.471 463.274 422.194 466.34 420.27C468.273 419.093 470.034 417.653 471.57 415.99C471.961 415.557 472.328 415.103 472.67 414.63C472.83 414.22 473 414.06 473 414.06Z" fill="#263238"/>
<path d="M394.5 385.47C395.283 385.768 396.022 386.168 396.7 386.66C398.394 387.756 399.981 389.008 401.44 390.4C402.904 391.788 404.218 393.327 405.36 394.99C405.877 395.653 406.289 396.391 406.58 397.18C406.031 396.546 405.524 395.878 405.06 395.18C403.849 393.597 402.511 392.116 401.06 390.75C399.615 389.381 398.082 388.108 396.47 386.94C395.78 386.497 395.121 386.006 394.5 385.47Z" fill="#263238"/>
<path d="M403.53 382.52C403.957 383.136 404.294 383.809 404.53 384.52C405.177 386.178 405.695 387.883 406.08 389.62C406.47 391.354 406.721 393.116 406.83 394.89C406.926 395.624 406.926 396.366 406.83 397.1C406.67 397.1 406.5 393.75 405.59 389.73C404.68 385.71 403.38 382.58 403.53 382.52Z" fill="#263238"/>
<path d="M462 381.48L471.66 378.7L477.97 379.84L480.97 390.38C483.97 399.7 483.3 405.04 477.12 409.13C475.31 410.33 473.59 410.99 472.34 410.46C468 408.62 462 381.48 462 381.48Z" fill="#455A64"/>
<path d="M471.66 378.7L410.01 368.56L410.15 369.38L471.66 387.78V378.7Z" fill="#455A64"/>
<path d="M86.8802 426.67L80.8202 448C80.8202 448 100.13 461.39 99.3902 465.43L58.2402 455L66.3502 421.45L86.8802 426.67Z" fill="#455A64"/>
<path d="M68.5404 442.91C68.1123 442.936 67.7088 443.119 67.4065 443.423C67.1042 443.727 66.9241 444.132 66.9004 444.56C66.9049 444.99 67.0728 445.401 67.37 445.712C67.6672 446.022 68.0714 446.207 68.5004 446.23C68.9548 446.201 69.3825 446.005 69.7017 445.681C70.0209 445.356 70.2092 444.925 70.2304 444.47C70.1504 443.61 69.2304 442.72 68.3804 442.93" fill="#E0E0E0"/>
<g opacity="0.6">
<path d="M58.2402 455L59.1902 451.65L98.2902 462.9C98.2902 462.9 99.9202 464.18 99.3902 465.43L58.2402 455Z" fill="white"/>
</g>
<path d="M81.5403 447.9C81.4803 448.1 80.4603 447.9 79.3103 448.35C78.1603 448.8 77.4203 449.47 77.2503 449.35C77.0803 449.23 77.6803 448.12 79.0803 447.65C80.4803 447.18 81.6303 447.73 81.5403 447.9Z" fill="#263238"/>
<path d="M85.4104 450.81C85.4104 451.01 84.4104 451.14 83.5604 451.81C82.7104 452.48 82.2404 453.36 82.0404 453.3C81.8404 453.24 82.0404 452.05 83.1304 451.22C84.2204 450.39 85.4504 450.61 85.4104 450.81Z" fill="#263238"/>
<path d="M86.57 456.66C86.37 456.66 86.35 455.57 87.14 454.59C87.93 453.61 88.98 453.4 89.02 453.59C89.06 453.78 88.33 454.23 87.7 455.04C87.07 455.85 86.77 456.69 86.57 456.66Z" fill="#263238"/>
<path d="M82.39 442.9C82.26 443.06 81.39 442.55 80.25 442.34C79.11 442.13 78.12 442.27 78.06 442.07C78 441.87 79.06 441.35 80.39 441.62C81.72 441.89 82.53 442.76 82.39 442.9Z" fill="#263238"/>
<path d="M72.4604 431.68L71.4604 453.8C71.4604 453.8 93.3404 462.22 93.5604 466.33L51.1904 466L51.2804 431.46L72.4604 431.68Z" fill="#455A64"/>
<path d="M58.4003 451.84C57.9887 451.967 57.6383 452.242 57.4153 452.61C57.1923 452.979 57.1122 453.416 57.1903 453.84C57.2949 454.255 57.5539 454.614 57.9144 454.845C58.275 455.075 58.7098 455.159 59.1303 455.08C59.558 454.946 59.9226 454.661 60.1562 454.279C60.3897 453.896 60.4765 453.442 60.4003 453C60.2524 452.577 59.9442 452.228 59.5421 452.03C59.14 451.832 58.676 451.8 58.2503 451.94" fill="#E0E0E0"/>
<g opacity="0.6">
<path d="M51.1904 466L51.3304 462.52L91.9404 464.14C91.9404 464.14 93.8204 464.99 93.6004 466.34L51.1904 466Z" fill="white"/>
</g>
<path d="M72.1902 453.59C72.1902 453.8 71.1902 453.89 70.1202 454.59C69.0502 455.29 68.5502 456.14 68.3602 456.05C68.1702 455.96 68.4902 454.76 69.7402 453.98C70.9902 453.2 72.2402 453.4 72.1902 453.59Z" fill="#263238"/>
<path d="M76.63 455.49C76.63 455.69 75.77 456.04 75.06 456.93C74.35 457.82 74.14 458.75 73.94 458.73C73.74 458.71 73.61 457.54 74.51 456.46C75.41 455.38 76.62 455.29 76.63 455.49Z" fill="#263238"/>
<path d="M79.1103 460.91C78.9203 460.91 78.6403 459.91 79.1803 458.75C79.7203 457.59 80.7003 457.16 80.7803 457.33C80.8603 457.5 80.2703 458.12 79.8403 459.07C79.4103 460.02 79.3203 460.89 79.1103 460.91Z" fill="#263238"/>
<path d="M71.8603 448.52C71.7703 448.71 70.8603 448.42 69.6503 448.52C68.4403 448.62 67.5703 448.96 67.4603 448.78C67.3503 448.6 68.2403 447.85 69.6203 447.78C71.0003 447.71 72.0003 448.36 71.8603 448.52Z" fill="#263238"/>
<path d="M46.2203 269.75V287.25L50.8603 355.41C50.8603 355.41 48.0003 388.48 46.2003 407.15C44.6603 423.36 47.2003 451.59 47.2003 451.59H74.2003L83.8603 357.44L89.8603 298.72L100.26 272L46.2203 269.75Z" fill="#263238"/>
<path d="M112.53 269.75L115.14 340.8C114.96 354.13 111.29 379.02 106.52 391.45L84.8302 439.1L83.5802 443.39L67.4502 439.44L79.4402 271L112.53 269.75Z" fill="#263238"/>
<path d="M93.8501 288.57C93.8636 288.713 93.8636 288.857 93.8501 289C93.8501 289.3 93.8501 289.71 93.8501 290.24C93.8501 291.37 93.8501 292.98 93.8501 295.04C93.8501 299.21 93.8501 305.24 93.7201 312.69C93.5901 320.14 93.3601 329.01 92.8301 338.85C92.3001 348.69 91.5901 359.54 89.2801 370.7C87.2501 381.87 85.0001 392.47 83.0001 402.11C81.0001 411.75 79.2201 420.44 77.8901 427.77C76.5601 435.1 75.5901 441.05 75.0001 445.18C74.6901 447.24 74.5301 448.85 74.3801 449.93C74.3101 450.46 74.2501 450.87 74.2101 451.17C74.1986 451.312 74.1717 451.453 74.1301 451.59C74.1168 451.447 74.1168 451.303 74.1301 451.16C74.1301 450.86 74.1901 450.45 74.2401 449.92C74.3601 448.83 74.4901 447.22 74.7701 445.15C75.2601 441.01 76.1501 435.05 77.4301 427.7C78.7101 420.35 80.4301 411.7 82.4301 402.01C84.4301 392.32 86.6701 381.77 88.8001 370.6C91.1001 359.47 91.8001 348.6 92.3801 338.82C92.9601 329.04 93.2001 320.13 93.3801 312.68C93.5601 305.23 93.6301 299.21 93.6801 295.04C93.6801 292.98 93.6801 291.37 93.6801 290.24C93.6801 289.71 93.6801 289.3 93.6801 289C93.727 288.853 93.7838 288.709 93.8501 288.57Z" fill="#455A64"/>
<path d="M127.84 251.59C128.206 252.921 128.341 254.304 128.24 255.68C128.04 257.77 127.94 262.93 122.36 264.68C116.78 266.43 111.51 262.25 109.81 260.36C108.11 258.47 108.3 252.28 108.3 252.28L117.47 248.2L127.84 251.59Z" fill="#FD6703"/>
<path d="M64.45 172.86L59.81 180.32L41 188.32L45.71 265.53L49.09 279.53L111.72 277.45L113.27 266.61V214.54C111.85 201.18 105.4 192.88 99.41 189.59L95.5 186.91L94 182L88.48 176.83L70.79 172.24L64.45 172.86Z" fill="#FD6703"/>
<g opacity="0.3">
<path d="M43.6304 259.66C45.6485 262.726 48.5036 265.149 51.8571 266.641C55.2106 268.134 58.9217 268.633 62.5504 268.08C68.8404 267.02 74.1504 262.87 80.1804 260.8C90.6704 257.18 102.64 260.06 112.98 256.03C113.18 254.25 113.06 252.03 113.18 250.85C108.01 250.58 102.5 250.29 97.9304 247.85L93.7804 246.32L43.6304 259.66Z" fill="black"/>
</g>
<path d="M41.0002 188.33C41.0002 188.33 32.0702 195.97 34.6602 215.89C37.0602 234.39 41.3202 260.17 47.0002 263.16C52.6802 266.15 64.9402 264.65 73.9102 259.57C82.8802 254.49 108.91 240.73 108.91 240.73L98.1402 221.59L63.4502 235.05C63.4502 235.05 58.9602 204.35 56.2702 199.05" fill="#FD6703"/>
<path d="M56.2702 199.07C56.2702 199.07 56.3702 199.26 56.5402 199.65C56.6202 199.85 56.7402 200.09 56.8502 200.39L57.1902 201.44C57.7002 203.02 58.3102 205.44 58.9702 208.51C60.3102 214.72 61.9702 223.76 63.6302 235.02L63.3802 234.87L98.0502 221.37L98.2402 221.29L98.3502 221.47C101.75 227.52 105.35 233.95 109.12 240.6L109.25 240.83L109 241L86.7602 253L75.8502 258.87C74.0602 259.87 72.2702 260.87 70.4202 261.63C68.576 262.42 66.6819 263.088 64.7502 263.63C60.9867 264.676 57.0831 265.128 53.1802 264.97C51.2742 264.896 49.3944 264.5 47.6202 263.8L46.9702 263.51C46.7524 263.393 46.542 263.263 46.3402 263.12C45.974 262.821 45.6389 262.486 45.3402 262.12C44.7722 261.385 44.2797 260.594 43.8702 259.76C42.3881 256.549 41.2258 253.199 40.4002 249.76C39.5202 246.43 38.8302 243.16 38.2102 240C36.9802 233.66 36.0702 227.72 35.3102 222.29C34.5502 216.86 33.8802 211.91 34.0802 207.54C34.1826 203.793 34.857 200.083 36.0802 196.54C36.8626 194.306 37.9713 192.2 39.3702 190.29C39.7344 189.797 40.132 189.329 40.5602 188.89C40.7016 188.737 40.8554 188.597 41.0202 188.47L40.5902 188.92C40.3202 189.23 39.9202 189.7 39.4502 190.35C38.1052 192.279 37.0349 194.386 36.2702 196.61C35.0975 200.138 34.467 203.823 34.4002 207.54C34.2302 211.88 34.9202 216.8 35.7002 222.23C36.4802 227.66 37.4202 233.58 38.7002 239.9C39.3302 243.06 40.0302 246.32 40.9102 249.63C41.7316 253.05 42.8906 256.379 44.3702 259.57C44.7682 260.374 45.2438 261.138 45.7902 261.85C46.0669 262.192 46.3786 262.503 46.7202 262.78C46.8947 262.907 47.0785 263.021 47.2702 263.12L47.8902 263.4C49.6133 264.078 51.4396 264.457 53.2902 264.52C57.1298 264.611 60.9599 264.098 64.6402 263C66.5477 262.478 68.4185 261.83 70.2402 261.06C72.0702 260.27 73.8102 259.28 75.6102 258.32L86.5302 252.44L108.78 240.44L108.68 240.79L97.9302 221.71L98.2202 221.81L63.5102 235.22L63.3002 235.31V235.07C61.6402 223.82 60.0802 214.76 58.8102 208.56C58.1802 205.45 57.6002 203.06 57.1302 201.47C57.0102 201.07 56.9102 200.72 56.8102 200.41L56.5302 199.67C56.3402 199.28 56.2702 199.07 56.2702 199.07Z" fill="#263238"/>
<path d="M59.2603 210.41L81.7903 208.93L86.7703 218.3L61.5203 222.84L59.2603 210.41Z" fill="#FD6703"/>
<path d="M59.26 210.41C59.3468 210.706 59.4169 211.006 59.47 211.31C59.59 211.94 59.76 212.77 59.97 213.81C60.39 216 60.97 219.06 61.71 222.81L61.48 222.65L84.21 218.5L86.73 218.05L86.54 218.42C84.8 215.12 83.12 211.97 81.54 209.05L81.77 209.17L65.63 210.11L60.95 210.36H59.69H59.23C59.3631 210.349 59.4969 210.349 59.63 210.36L60.83 210.25L65.45 209.88L81.74 208.69H81.9L81.97 208.83L86.97 218.19L87.14 218.5L86.79 218.57L84.28 219.02L61.52 223.02H61.33V222.83C60.69 219.01 60.16 215.89 59.78 213.66C59.61 212.66 59.48 211.81 59.38 211.2C59.325 210.939 59.2849 210.675 59.26 210.41Z" fill="#263238"/>
<path d="M63.4501 235.05C63.5901 235.16 61.5701 237.53 59.8901 240.91C58.2101 244.29 57.4901 247.33 57.3101 247.28C57.3376 246.598 57.4656 245.924 57.6901 245.28C58.1128 243.693 58.6923 242.152 59.4201 240.68C60.1543 239.211 61.0354 237.821 62.0501 236.53C62.4388 235.968 62.9109 235.469 63.4501 235.05Z" fill="#263238"/>
<path d="M86.0803 192.12C85.6353 191.865 85.2166 191.567 84.8303 191.23L81.5603 188.63H81.8403C80.5779 190.671 79.0773 192.554 77.3703 194.24L77.2103 194.4L77.0303 194.25L73.5803 191.38C69.8803 188.38 66.4203 185.74 63.9003 183.88L60.9003 181.67C60.5203 181.422 60.1653 181.137 59.8403 180.82C60.2551 181.011 60.6503 181.242 61.0203 181.51C61.7603 181.98 62.8203 182.68 64.1103 183.58C66.6903 185.37 70.1903 187.95 73.9003 190.98C75.1103 191.98 76.2803 192.98 77.3503 193.87H77.0003C78.6926 192.217 80.2013 190.387 81.5003 188.41L81.6203 188.22L81.7803 188.37L85.0003 191.06C85.3852 191.387 85.7461 191.741 86.0803 192.12Z" fill="#263238"/>
<path d="M95.3404 187.39C95.4736 187.793 95.5345 188.216 95.5204 188.64C95.586 189.754 95.5492 190.872 95.4104 191.98L95.3404 192.57L95.0004 192.07C94.1691 190.87 93.2745 189.715 92.3204 188.61C91.9204 188.14 91.5104 187.7 91.1104 187.28C90.9271 187.074 90.7335 186.877 90.5304 186.69C90.3304 186.56 90.3604 186.56 90.1804 186.75L88.5204 189.06C88.0443 189.803 87.4949 190.497 86.8804 191.13C87.2513 190.328 87.7002 189.564 88.2204 188.85L89.8004 186.46C89.8486 186.376 89.9151 186.303 89.995 186.248C90.0749 186.193 90.1661 186.156 90.2621 186.141C90.358 186.125 90.4562 186.132 90.5493 186.159C90.6425 186.187 90.7283 186.235 90.8004 186.3C91.0604 186.52 91.2204 186.7 91.4404 186.92C91.8504 187.34 92.2704 187.79 92.6804 188.27C93.6503 189.389 94.5392 190.575 95.3404 191.82L94.9204 191.92C95.3704 189.23 95.2304 187.39 95.3404 187.39Z" fill="#263238"/>
<path d="M55.24 196C54.7256 195.489 54.2571 194.933 53.84 194.34C52.7867 192.977 51.5442 191.772 50.15 190.76C48.7121 189.845 47.0966 189.245 45.41 189C44.6898 188.941 43.9747 188.83 43.27 188.67C43.9947 188.546 44.7353 188.546 45.46 188.67C47.2479 188.849 48.9646 189.464 50.46 190.46C51.9039 191.495 53.156 192.774 54.16 194.24C54.6002 194.774 54.9637 195.366 55.24 196Z" fill="#263238"/>
<path d="M104.19 209.86C103.434 208.325 102.838 206.717 102.41 205.06C101.814 203.441 101.381 201.766 101.12 200.06C101.879 201.598 102.479 203.21 102.91 204.87C103.505 206.486 103.934 208.158 104.19 209.86Z" fill="#263238"/>
<path d="M113.05 254C113.194 254.657 113.261 255.328 113.25 256C113.33 257.22 113.47 258.9 113.55 260.77C113.639 262.374 113.606 263.982 113.45 265.58C113.431 266.267 113.285 266.945 113.02 267.58C112.986 266.913 113.006 266.244 113.08 265.58C113.08 264.36 113.08 262.68 113.08 260.82C113.08 258.96 112.92 257.27 112.94 256.04C112.865 255.359 112.902 254.669 113.05 254Z" fill="#263238"/>
<path d="M72.1702 217C71.9605 217.221 71.8417 217.512 71.8375 217.817C71.8334 218.121 71.9441 218.416 72.1478 218.643C72.3514 218.869 72.6329 219.01 72.9361 219.038C73.2393 219.066 73.5419 218.979 73.7836 218.794C74.0253 218.608 74.1882 218.339 74.2399 218.039C74.2915 217.739 74.2282 217.43 74.0624 217.175C73.8966 216.919 73.6406 216.736 73.3455 216.661C73.0504 216.586 72.7379 216.625 72.4702 216.77" fill="#E0E0E0"/>
<g opacity="0.3">
<path d="M57.7603 203.66L64.0803 222.38L84.9103 218.64L64.8303 226.51L63.1403 233L57.7603 203.66Z" fill="black"/>
</g>
<g opacity="0.3">
<path d="M60.3804 181.15L79.0004 198L81.8804 190.12L84.8804 191.12L81.6504 188.44C81.6504 188.44 78.1104 193.88 77.1704 193.98L60.3804 181.15Z" fill="black"/>
</g>
<path d="M95.8701 221.51C95.7016 221.149 95.5741 220.77 95.4901 220.38C95.2601 219.54 94.9601 218.49 94.6101 217.25C93.8701 214.61 92.8001 210.98 91.4901 207C90.1801 203.02 88.8601 199.48 87.8801 196.91C87.4301 195.71 87.0401 194.7 86.7301 193.91C86.5651 193.544 86.4378 193.162 86.3501 192.77C86.5763 193.101 86.7641 193.457 86.9101 193.83C87.2401 194.52 87.6901 195.54 88.2301 196.83C89.2901 199.36 90.6601 202.91 91.9801 206.89C93.3001 210.87 94.3201 214.54 94.9801 217.21C95.3101 218.54 95.5501 219.63 95.7001 220.38C95.8007 220.749 95.8578 221.128 95.8701 221.51Z" fill="#263238"/>
<path d="M95.6004 200.72C99.1204 204.23 108.04 213.39 108.04 213.39L110.43 211.95L97.8604 198.53C97.6071 198.264 97.2687 198.094 96.9036 198.05C96.5386 198.006 96.1696 198.091 95.8604 198.29C95.6634 198.417 95.4973 198.586 95.3743 198.786C95.2513 198.985 95.1745 199.21 95.1495 199.443C95.1246 199.676 95.1522 199.912 95.2302 200.133C95.3082 200.354 95.4347 200.554 95.6004 200.72Z" fill="#263238"/>
<path d="M98.1401 221.59L101.14 213.15C101.445 212.233 102.024 211.431 102.798 210.852C103.572 210.273 104.504 209.944 105.47 209.91C105.62 209.895 105.771 209.895 105.92 209.91C107.72 210.11 116.92 210.71 116.92 210.71L120.47 214.71C120.758 215.045 120.916 215.473 120.916 215.915C120.916 216.357 120.758 216.785 120.47 217.12L121.47 224.29L119.47 225.66L119.67 230.66C119.67 230.66 117.87 231.86 117.08 231.46L116.28 231.06L115.08 229.86L111.69 234.65L107 237.36L98.1401 221.59Z" fill="#FFBE9D"/>
<path d="M120.48 217.49C120.078 216.998 119.647 216.531 119.19 216.09C118.678 215.666 118.101 215.328 117.48 215.09C116.666 214.898 115.836 214.784 115 214.75C112.798 214.628 110.608 214.338 108.45 213.88C110.656 213.817 112.863 213.934 115.05 214.23C115.926 214.267 116.796 214.404 117.64 214.64C118.315 214.92 118.927 215.331 119.44 215.85C119.951 216.274 120.315 216.847 120.48 217.49Z" fill="#EB996E"/>
<path d="M120.28 224.09C120.077 223.46 119.829 222.845 119.54 222.25C118.728 220.883 117.482 219.827 116 219.25C114.495 218.716 112.907 218.449 111.31 218.46C110.643 218.506 109.973 218.486 109.31 218.4C109.954 218.184 110.631 218.083 111.31 218.1C112.969 217.969 114.637 218.197 116.2 218.77C117.787 219.376 119.096 220.543 119.88 222.05C120.241 222.665 120.382 223.384 120.28 224.09Z" fill="#EB996E"/>
<path d="M119.38 230.25C119.041 229.64 118.875 228.948 118.9 228.25C118.861 227.544 118.709 226.848 118.45 226.19C118.272 225.818 118.008 225.494 117.679 225.245C117.35 224.996 116.966 224.83 116.56 224.76C114.988 224.421 113.394 224.191 111.79 224.07C111.1 224.05 110.42 223.894 109.79 223.61C110.458 223.6 111.126 223.633 111.79 223.71C113.432 223.72 115.067 223.904 116.67 224.26C117.156 224.377 117.615 224.588 118.02 224.88C118.392 225.174 118.682 225.56 118.86 226C119.118 226.711 119.243 227.464 119.23 228.22C119.27 229.49 119.44 230.22 119.38 230.25Z" fill="#EB996E"/>
<path d="M124.37 214.4L84.8301 255.24L86.3501 256.78L114.68 253.59L152.8 217.27L152.76 215.53L124.37 214.4Z" fill="#455A64"/>
<g opacity="0.3">
<path d="M126.93 240.06C126.164 239.362 125.26 238.831 124.277 238.502C123.294 238.174 122.253 238.054 121.22 238.15C119.149 238.366 117.188 239.194 115.59 240.53C114.242 241.519 113.258 242.925 112.79 244.53C112.13 247.36 114.01 250.32 116.57 251.69L116.92 251.28L126.66 243.46C127.191 243.124 127.59 242.615 127.79 242.02C127.818 241.648 127.754 241.275 127.605 240.933C127.455 240.591 127.223 240.291 126.93 240.06Z" fill="black"/>
</g>
<path d="M122.76 236.24C122.76 236.24 126.59 236.32 127.84 236.94C129.09 237.56 132.53 241.23 132.53 241.23C132.53 241.23 132.53 243.72 131.53 243.82C131.648 244.376 131.715 244.942 131.73 245.51C131.83 246.91 132.03 247.71 130.13 248.9C130.13 248.9 130.33 251.2 129.63 251.79C129.159 252.19 128.661 252.558 128.14 252.89C128.14 252.89 125.95 255.58 124.65 255.38C123.35 255.18 121.48 256.78 121.48 256.78C121.48 256.78 114.48 253.86 115.18 253.03L117.62 250.33C117.62 250.33 112.79 246.81 112.89 245.71C112.99 244.61 113.39 244.52 113.39 244.52C113.39 244.52 113.19 242.42 114.88 242.22C114.88 242.22 116.18 239.63 117.47 239.53C118.76 239.43 127.54 242.62 127.54 242.62L124.25 239.83C124.25 239.83 120.96 239.33 121.06 238.24C121.16 237.15 122.76 236.24 122.76 236.24Z" fill="#FFBE9D"/>
<path d="M122.17 249.38C122.09 249.5 120.17 248.38 117.73 247.22C116.206 246.584 114.717 245.867 113.27 245.07C114.909 245.379 116.489 245.946 117.95 246.75C119.491 247.39 120.917 248.278 122.17 249.38Z" fill="#EB996E"/>
<path d="M126.74 246.32C124.782 245.874 122.868 245.255 121.02 244.47C119.107 243.852 117.254 243.066 115.48 242.12C117.436 242.585 119.35 243.214 121.2 244C123.109 244.616 124.962 245.392 126.74 246.32Z" fill="#EB996E"/>
<path d="M152.65 217.2C152.477 217.215 152.303 217.215 152.13 217.2H150.62L144.95 217.13L125.24 216.75L125.42 216.68L115.51 227C107.51 235.25 100.26 242.7 94.9701 248.15L88.7001 254.51L87.0001 256.21C86.8054 256.416 86.5947 256.607 86.3701 256.78C86.5394 256.549 86.7267 256.332 86.9301 256.13L88.5801 254.35L94.7301 247.87L115.16 226.62L125.09 216.37L125.16 216.29H125.27L144.98 216.86L150.64 217.07L152.15 217.14C152.319 217.137 152.487 217.157 152.65 217.2Z" fill="#263238"/>
<path d="M104.2 135.87C102.952 134.455 101.217 133.562 99.34 133.37C98.2932 133.09 97.1823 133.175 96.19 133.61C95.607 134.005 95.1462 134.555 94.8599 135.199C94.5736 135.842 94.4732 136.553 94.57 137.25C94.7871 138.633 95.1943 139.979 95.78 141.25C96.3675 142.535 96.5657 143.964 96.35 145.36L99.94 153.91C100.557 153.678 101.115 153.314 101.577 152.844C102.039 152.374 102.393 151.809 102.613 151.188C102.834 150.568 102.917 149.906 102.856 149.25C102.795 148.594 102.592 147.959 102.26 147.39C102.829 147.082 103.322 146.652 103.704 146.13C104.087 145.609 104.349 145.009 104.473 144.375C104.596 143.74 104.577 143.086 104.418 142.459C104.258 141.832 103.962 141.249 103.55 140.75C105.19 139.87 105.32 137.36 104.2 135.87Z" fill="#263238"/>
<path d="M71.0804 158.19L70.6604 140.91L59.7204 140.41C59.0533 140.578 58.4473 140.931 57.9723 141.429C57.4973 141.927 57.1727 142.549 57.0357 143.223C56.8988 143.897 56.9552 144.596 57.1984 145.24C57.4416 145.883 57.8618 146.445 58.4104 146.86C57.5667 147.24 56.8607 147.871 56.3887 148.667C55.9167 149.463 55.7015 150.385 55.7726 151.308C55.8436 152.231 56.1974 153.109 56.7858 153.824C57.3741 154.538 58.1684 155.053 59.0604 155.3C58.5587 155.922 58.2313 156.666 58.1116 157.456C57.992 158.246 58.0844 159.054 58.3794 159.797C58.6744 160.539 59.1615 161.19 59.7907 161.683C60.4199 162.175 61.1687 162.492 61.9604 162.6C61.9604 164.6 63.1004 166.84 65.0604 167.4C67.0204 167.96 69.3204 166.47 70.2404 164.53C71.1604 162.59 71.1304 160.34 71.0804 158.19Z" fill="#263238"/>
<path d="M59.4204 138.5C59.4204 138.5 60.5004 152.8 61.9004 157.16C63.0422 160.341 64.5453 163.381 66.3804 166.22L99.7404 155.86C100.87 148.14 102.04 140.38 101.56 134.3L90.9204 130.51L59.4204 138.5Z" fill="#263238"/>
<path d="M66.4803 157.16C65.0656 153.336 63.9784 149.398 63.2303 145.39C62.4907 141.366 62.7657 137.221 64.0303 133.33C64.2303 132.74 66.0303 128.83 66.6303 128.89C67.0703 128.89 65.9903 132.56 66.2203 132.94C68.2744 136.651 69.1564 140.898 68.7503 145.12C68.4364 149.191 67.6751 153.215 66.4803 157.12" fill="#263238"/>
<path d="M89.6403 183.93V174.25C89.6403 174.25 99.5003 173.11 100 163.32C100.25 158.59 100 148.81 99.5903 139.97C99.4002 135.384 97.4897 131.037 94.2393 127.796C90.9889 124.555 86.6371 122.657 82.0503 122.48H81.1103C70.9003 122.67 65.3603 131.48 65.8403 141.66V174.82L86.0003 189.34L89.6403 183.93Z" fill="#FFBE9D"/>
<path d="M89.6601 174.25C85.1401 174.067 80.7674 172.592 77.0601 170C77.0601 170 79.8901 177.25 89.7001 176.75L89.6601 174.25Z" fill="#EB996E"/>
<path d="M96.4104 148.34C96.3999 148.706 96.2464 149.053 95.9828 149.308C95.7193 149.562 95.3666 149.703 95.0004 149.7C94.8224 149.708 94.6446 149.68 94.4776 149.618C94.3106 149.556 94.1577 149.461 94.028 149.339C93.8984 149.217 93.7946 149.07 93.7229 148.907C93.6511 148.744 93.6128 148.568 93.6104 148.39C93.613 148.022 93.7603 147.67 94.0204 147.41C94.2805 147.15 94.6325 147.003 95.0004 147C95.1825 146.989 95.3649 147.016 95.5363 147.078C95.7077 147.141 95.8644 147.238 95.9966 147.364C96.1289 147.489 96.2339 147.641 96.305 147.809C96.3762 147.977 96.4121 148.158 96.4104 148.34Z" fill="#263238"/>
<path d="M97.3604 144C97.1804 144.17 96.1504 143.35 94.6404 143.29C93.1304 143.23 92.0004 143.95 91.8504 143.76C91.7004 143.57 91.9604 143.35 92.4604 143.02C93.1266 142.592 93.9095 142.382 94.7004 142.42C95.483 142.447 96.2363 142.724 96.8504 143.21C97.3004 143.53 97.4504 143.87 97.3604 144Z" fill="#263238"/>
<path d="M82.9201 148.58C82.9097 148.944 82.7576 149.29 82.4962 149.544C82.2348 149.798 81.8846 149.94 81.5201 149.94C81.3412 149.947 81.1627 149.918 80.995 149.855C80.8274 149.792 80.674 149.696 80.5437 149.573C80.4134 149.45 80.3088 149.303 80.2361 149.139C80.1634 148.976 80.124 148.799 80.1201 148.62C80.1331 148.255 80.2873 147.909 80.5504 147.655C80.8134 147.401 81.1647 147.26 81.5301 147.26C81.7086 147.253 81.8866 147.282 82.0536 147.345C82.2207 147.409 82.3735 147.504 82.503 147.627C82.6325 147.75 82.7361 147.898 82.8077 148.062C82.8794 148.225 82.9176 148.401 82.9201 148.58Z" fill="#263238"/>
<path d="M82.5902 144C82.4102 144.18 81.3802 143.35 79.8702 143.3C78.3602 143.25 77.2402 143.95 77.0802 143.76C76.9202 143.57 77.1902 143.35 77.6902 143.02C78.3575 142.595 79.1396 142.385 79.9302 142.42C80.7149 142.452 81.4701 142.728 82.0902 143.21C82.5302 143.57 82.6802 143.9 82.5902 144Z" fill="#263238"/>
<path d="M87.54 155.76C88.3416 155.538 89.1684 155.421 90 155.41C90.38 155.41 90.75 155.33 90.83 155.07C90.873 154.673 90.7964 154.273 90.61 153.92C90.29 152.973 89.9566 151.973 89.61 150.92C88.2 146.69 87.19 143.22 87.36 143.16C87.53 143.1 88.82 146.49 90.23 150.72C90.57 151.72 90.9 152.72 91.23 153.72C91.4533 154.194 91.5062 154.731 91.38 155.24C91.3166 155.373 91.2245 155.491 91.1104 155.584C90.9963 155.677 90.863 155.744 90.72 155.78C90.5034 155.828 90.2816 155.848 90.06 155.84C89.2198 155.916 88.3736 155.889 87.54 155.76Z" fill="#263238"/>
<path d="M83.0702 156.63C83.3102 156.63 83.2502 158.26 84.6002 159.47C85.9502 160.68 87.7002 160.57 87.7102 160.8C87.7202 161.03 87.3102 161.1 86.5702 161.09C85.6151 161.077 84.6964 160.722 83.9802 160.09C83.2899 159.481 82.8633 158.628 82.7902 157.71C82.7602 157 83.0002 156.61 83.0702 156.63Z" fill="#263238"/>
<path d="M83.2801 138.81C83.1201 139.21 81.6201 138.96 79.8501 139.1C78.0801 139.24 76.6301 139.67 76.4101 139.3C76.3101 139.12 76.5701 138.74 77.1601 138.37C77.9451 137.905 78.8295 137.635 79.7401 137.58C80.6477 137.502 81.5607 137.646 82.4001 138C83.0001 138.28 83.3501 138.62 83.2801 138.81Z" fill="#263238"/>
<path d="M96.9302 138.92C96.6502 139.25 95.6301 138.86 94.3801 138.79C93.1301 138.72 92.0701 138.93 91.8401 138.56C91.7401 138.39 91.9202 138.05 92.4002 137.75C93.0287 137.373 93.7603 137.205 94.4902 137.27C95.2188 137.313 95.9169 137.578 96.4902 138.03C96.9202 138.4 97.0502 138.76 96.9302 138.92Z" fill="#263238"/>
<path d="M66.3702 148.91C66.2102 148.83 59.7202 146.65 59.6702 153.36C59.6202 160.07 66.3602 158.73 66.3802 158.54C66.4002 158.35 66.3702 148.91 66.3702 148.91Z" fill="#FFBE9D"/>
<path d="M64.3504 156C64.3504 156 64.2304 156.08 64.0304 156.17C63.8929 156.229 63.7449 156.259 63.5954 156.259C63.4459 156.259 63.2979 156.229 63.1604 156.17C62.7274 155.895 62.3764 155.508 62.1442 155.051C61.9119 154.593 61.807 154.082 61.8404 153.57C61.8289 152.995 61.945 152.425 62.1804 151.9C62.2451 151.692 62.3588 151.503 62.5119 151.348C62.6651 151.193 62.8532 151.077 63.0604 151.01C63.1958 150.976 63.3389 150.991 63.4648 151.051C63.5907 151.111 63.6917 151.213 63.7504 151.34C63.8404 151.52 63.7504 151.66 63.8304 151.67C63.9104 151.68 63.9804 151.56 63.9204 151.28C63.8877 151.113 63.7952 150.964 63.6604 150.86C63.4779 150.721 63.2489 150.656 63.0204 150.68C62.7479 150.73 62.4924 150.848 62.2774 151.023C62.0625 151.197 61.895 151.423 61.7904 151.68C61.5009 152.26 61.3568 152.902 61.3704 153.55C61.3356 154.147 61.4773 154.742 61.7778 155.259C62.0783 155.777 62.5243 156.194 63.0604 156.46C63.2405 156.51 63.4293 156.521 63.614 156.492C63.7986 156.462 63.9748 156.394 64.1304 156.29C64.3304 156.14 64.3704 156 64.3504 156Z" fill="#EB996E"/>
<path d="M95.2503 128.87C96.3403 128.27 93.0803 124.76 90.4103 123.55C86.4103 121.73 80.2203 120.61 76.5003 121.67C72.0303 122.95 68.3203 125.18 66.0803 129.26C63.9213 133.409 62.9065 138.059 63.1403 142.73C63.1025 144.158 63.4478 145.57 64.1403 146.82C65.0803 148.3 66.8803 149.23 66.8003 151.28C66.7669 152.012 67.0177 152.729 67.5003 153.28C68.7303 154.59 70.2303 153.36 70.9203 152.13C72.3903 149.5 72.5503 146.36 72.6703 143.35C72.8741 141.217 72.7289 139.066 72.2403 136.98C71.9103 135.86 71.3803 134.81 71.1103 133.67C70.9446 133.11 70.9007 132.522 70.9818 131.944C71.0629 131.366 71.267 130.812 71.5803 130.32C71.7481 130.122 71.9321 129.938 72.1303 129.77C73.062 128.972 74.1871 128.433 75.3928 128.206C76.5985 127.98 77.8426 128.074 79.0003 128.48C82.7803 129.81 89.2303 131.79 90.9103 130.48C92.1057 129.697 93.1269 128.675 93.9103 127.48L95.2503 128.87Z" fill="#263238"/>
<path d="M76.2904 114.74C75.8204 114.79 64.3504 116.98 61.2104 125.37C58.0704 133.76 58.8304 136.37 58.8304 136.37C58.3763 136.641 57.9651 136.978 57.6104 137.37C57.1204 137.91 57.7204 140.6 59.2104 140.37C70.5004 135.82 83.6804 135.77 98.3304 136.71L109.56 136.95C112.69 137.42 113.83 136.62 112.56 135.79C111.56 135.15 102.76 131.27 102.76 131.27L101 129.91L96.5804 123.33C96.5804 123.33 97.1804 122.45 96.0704 121.67C94.9604 120.89 85.6204 113.76 76.2904 114.74Z" fill="#FD6703"/>
<path d="M101 129.91C100.853 129.919 100.707 129.919 100.56 129.91L99.31 129.84C98.22 129.76 96.65 129.72 94.7 129.7C89.6352 129.695 84.5796 130.13 79.59 131C74.5995 131.904 69.6647 133.092 64.81 134.56C62.94 135.1 61.44 135.56 60.4 135.9L59.2 136.26L58.77 136.38L59.18 136.23L60.37 135.83C61.37 135.49 62.91 134.99 64.77 134.43C69.6218 132.926 74.561 131.721 79.56 130.82C84.563 129.923 89.6374 129.485 94.72 129.51C98.62 129.61 101 129.91 101 129.91Z" fill="#263238"/>
<g opacity="0.3">
<path d="M65.73 119.39C65.73 119.39 78.06 117.82 83.47 120.65L82.84 120.31L88 122.76C88.3969 123.029 88.8487 123.206 89.3226 123.279C89.7966 123.352 90.2807 123.318 90.74 123.18C88.4524 121.212 85.8172 119.689 82.97 118.69C77.86 116.78 69.73 115.76 65.73 119.39Z" fill="black"/>
</g>
<path d="M65.5503 119.45C65.9041 119.193 66.2787 118.965 66.6703 118.77C67.7279 118.205 68.8492 117.769 70.0103 117.47C71.7332 117.024 73.5119 116.832 75.2903 116.9C77.4808 116.925 79.6401 117.423 81.6203 118.36C82.6287 118.864 83.604 119.432 84.5403 120.06C85.4403 120.66 86.3403 121.2 87.1503 121.8C87.8847 122.389 88.6637 122.921 89.4803 123.39C90.2157 123.748 91.0223 123.936 91.8403 123.94C94.8403 124.09 96.7203 123.52 96.6003 123.33C96.5433 123.431 96.4558 123.512 96.3503 123.56C96.048 123.687 95.7329 123.781 95.4103 123.84C94.2292 124.05 93.0288 124.13 91.8303 124.08C90.9922 124.084 90.1643 123.896 89.4103 123.53C88.5817 123.065 87.7924 122.533 87.0503 121.94C86.2503 121.35 85.3403 120.81 84.4403 120.21C83.5078 119.593 82.5394 119.032 81.5403 118.53C79.5853 117.602 77.4541 117.104 75.2903 117.07C73.524 116.995 71.756 117.174 70.0403 117.6C68.886 117.889 67.7661 118.301 66.7003 118.83C66.3203 119.02 66.0403 119.18 65.8503 119.29L65.5503 119.45Z" fill="#263238"/>
<g opacity="0.3">
<path d="M60.0002 128.87C62.0562 128.815 64.0993 128.526 66.0902 128.01C68.4302 127.58 70.7502 127.26 73.0902 126.72C74.8502 126.31 76.9302 125.95 78.0902 124.72C78.1607 125.154 78.1187 125.599 77.9682 126.012C77.8176 126.425 77.5635 126.793 77.2302 127.08C76.0627 127.792 74.7854 128.305 73.4502 128.6C68.878 129.846 64.1836 130.591 59.4502 130.82C59.588 130.141 59.7751 129.472 60.0102 128.82" fill="black"/>
</g>
<path d="M61.6004 124.45C60.1904 125.01 59.3204 125.39 59.2404 126.57C59.1704 127.57 59.3304 128.78 60.3004 128.98C60.5984 129.03 60.9025 129.03 61.2004 128.98L76.4804 126.43C77.0089 126.4 77.5107 126.188 77.9004 125.83C78.1162 125.491 78.19 125.081 78.1058 124.688C78.0216 124.295 77.7862 123.951 77.4504 123.73C76.7547 123.311 75.9523 123.102 75.1404 123.13C70.5869 122.969 66.0325 123.423 61.6004 124.48" fill="#FD6703"/>
<path d="M77.6603 126C77.8595 125.826 78.008 125.601 78.0903 125.35C78.1875 125.007 78.1866 124.643 78.0876 124.3C77.9886 123.957 77.7955 123.649 77.5303 123.41C76.6463 122.82 75.5895 122.546 74.5303 122.63C73.3103 122.63 71.9703 122.69 70.5303 122.78C68.1287 122.902 65.7427 123.237 63.4003 123.78C62.5103 123.99 61.7903 124.22 61.3003 124.37L60.7303 124.55L60.5303 124.61C60.5303 124.61 60.5903 124.61 60.7203 124.52L61.2803 124.3C61.9648 124.046 62.6624 123.829 63.3703 123.65C65.7123 123.056 68.1072 122.694 70.5203 122.57C71.9303 122.48 73.2803 122.45 74.5203 122.44C75.6272 122.355 76.7295 122.655 77.6403 123.29C77.9152 123.548 78.1117 123.878 78.2073 124.242C78.3028 124.607 78.2934 124.991 78.1803 125.35C78.1101 125.543 77.9973 125.717 77.8503 125.86L77.6603 126Z" fill="#263238"/>
<path d="M97.9804 125.39L88.4404 124.87L89.1504 127.59L99.5504 127.72L97.9804 125.39Z" fill="white"/>
<path d="M83.25 133.38C83.25 133.38 87.52 132.87 92.8 132.38C98.08 131.89 102.38 131.48 102.38 131.53C102.38 131.58 98.11 132.04 92.82 132.53C87.53 133.02 83.25 133.43 83.25 133.38Z" fill="#263238"/>
<path d="M115.14 268.32H41.6704V280.59H115.14V268.32Z" fill="#455A64"/>
<path d="M43.9204 274.25H77.9204V308.73C77.9204 310.565 77.1913 312.325 75.8936 313.623C74.5958 314.921 72.8357 315.65 71.0004 315.65H50.8404C49.9317 315.65 49.0318 315.471 48.1922 315.123C47.3527 314.775 46.5898 314.266 45.9472 313.623C45.3046 312.981 44.7949 312.218 44.4472 311.378C44.0994 310.539 43.9204 309.639 43.9204 308.73V274.25Z" fill="#455A64"/>
<path d="M77.9402 285.46C77.8418 284.754 77.795 284.042 77.8002 283.33C77.7732 281.404 77.5215 279.488 77.0502 277.62C76.8858 277.031 76.5842 276.49 76.1702 276.04C75.6829 275.568 75.1466 275.148 74.5702 274.79C73.2684 274.029 71.813 273.567 70.3102 273.44C67.1102 273.2 63.5202 273.31 59.7802 273.34C56.0402 273.37 52.4302 273.04 49.3002 273.73C47.8167 273.953 46.447 274.655 45.4002 275.73C44.643 276.794 44.2121 278.055 44.1602 279.36C43.9302 281.79 43.9802 283.78 43.9402 285.15C43.9402 285.79 43.9402 286.31 43.9402 286.73C43.9549 286.913 43.9549 287.097 43.9402 287.28C43.8948 287.1 43.8746 286.915 43.8802 286.73C43.8802 286.31 43.8802 285.79 43.8302 285.15C43.8302 283.78 43.7102 281.8 43.8902 279.33C43.9288 277.944 44.3701 276.599 45.1602 275.46C46.2614 274.298 47.7178 273.534 49.3002 273.29C50.9844 272.948 52.7023 272.8 54.4202 272.85C56.1802 272.85 58.0102 272.85 59.8802 272.85C63.6302 272.85 67.1802 272.72 70.4602 272.99C72.0276 273.139 73.5415 273.638 74.8902 274.45C75.4915 274.834 76.0482 275.283 76.5502 275.79C77.0246 276.281 77.3685 276.882 77.5502 277.54C78.0021 279.442 78.2038 281.395 78.1502 283.35C78.1502 283.99 78.1502 284.51 78.1502 284.93C78.0963 285.113 78.026 285.29 77.9402 285.46Z" fill="#263238"/>
<path d="M77.69 289.09C77.69 289.24 70.21 289.35 60.98 289.35C51.75 289.35 44.27 289.24 44.27 289.09C44.27 288.94 51.75 288.83 60.98 288.83C70.21 288.83 77.69 289 77.69 289.09Z" fill="#263238"/>
<path d="M53.6604 316C53.5104 316 53.4004 309.95 53.4004 302.49C53.4004 295.03 53.5104 288.97 53.6604 288.97C53.8104 288.97 53.9204 295.02 53.9204 302.49C53.9204 309.96 53.8004 316 53.6604 316Z" fill="#263238"/>
<path d="M69.0002 315.91C68.8602 315.91 68.7402 309.91 68.7402 302.53C68.7402 295.15 68.8602 289.14 69.0002 289.14C69.1402 289.14 69.2602 295.14 69.2602 302.53C69.2602 309.92 69.1402 315.91 69.0002 315.91Z" fill="#263238"/>
<path d="M115.14 268.32L119.38 274.25C119.38 274.25 123.17 309.59 121.48 311.25C119.79 312.91 114.11 312.87 114.11 312.87L112.56 270.56L115.14 268.32Z" fill="#455A64"/>
<path d="M101.83 280.1C101.164 276.159 101.11 272.138 101.67 268.18C101.825 270.176 101.871 272.179 101.81 274.18C101.923 276.152 101.93 278.128 101.83 280.1Z" fill="#263238"/>
<path d="M115.22 268.52C115.466 269.161 115.618 269.835 115.67 270.52C115.87 271.76 116.07 273.52 116.18 275.41C116.266 276.324 116.229 277.246 116.07 278.15C115.926 278.928 115.52 279.634 114.92 280.15C114.522 280.498 114.018 280.702 113.49 280.73C113.11 280.73 112.93 280.64 112.93 280.62C113.578 280.573 114.191 280.309 114.67 279.87C115.169 279.388 115.495 278.756 115.6 278.07C115.722 277.199 115.742 276.316 115.66 275.44C115.46 271.61 115.07 268.54 115.22 268.52Z" fill="#263238"/>
<path d="M452.51 274.1L457.19 269.68C462.257 270.441 467.425 269.28 471.679 266.425C475.933 263.571 478.966 259.228 480.183 254.252C481.399 249.275 480.71 244.023 478.252 239.528C475.794 235.033 471.744 231.619 466.898 229.957C462.051 228.296 456.759 228.506 452.06 230.548C447.361 232.589 443.595 236.313 441.501 240.989C439.408 245.666 439.139 250.955 440.746 255.82C442.354 260.685 445.723 264.772 450.19 267.28L452.51 274.1Z" fill="white"/>
<path d="M452.51 274.1L452.36 273.64C452.26 273.34 452.12 272.9 451.94 272.33C451.56 271.17 451 269.47 450.28 267.25L450.2 267.33C450.211 267.34 450.225 267.345 450.24 267.345C450.255 267.345 450.269 267.34 450.28 267.33C450.287 267.32 450.291 267.308 450.291 267.295C450.291 267.282 450.287 267.27 450.28 267.26C447.303 265.573 444.797 263.166 442.99 260.26C442.43 259.363 441.942 258.424 441.53 257.45C441.119 256.402 440.785 255.326 440.53 254.23C439.268 249.086 440.058 243.653 442.733 239.081C445.408 234.509 449.757 231.159 454.86 229.739C459.963 228.319 465.418 228.942 470.07 231.475C474.721 234.008 478.204 238.253 479.78 243.31C480.689 246.149 480.952 249.156 480.55 252.11C479.86 257.368 477.153 262.152 473 265.45L472.3 265.98C472.081 266.164 471.847 266.327 471.6 266.47L470.17 267.36C469.224 267.849 468.253 268.286 467.26 268.67C464.062 269.831 460.625 270.175 457.26 269.67H457.21C455.71 271.11 454.55 272.21 453.77 272.97L452.87 273.83L452.57 274.13L452.87 273.86L453.76 273.03L457.29 269.76H457.24C460.63 270.299 464.101 269.972 467.33 268.81C468.334 268.437 469.312 267.999 470.26 267.5L471.71 266.62C471.964 266.478 472.204 266.314 472.43 266.13L473.13 265.59C476.416 262.996 478.837 259.466 480.073 255.466C481.309 251.466 481.301 247.185 480.05 243.19C479.067 240.134 477.397 237.342 475.17 235.03C472.825 232.613 469.924 230.807 466.72 229.77C466.326 229.623 465.922 229.506 465.51 229.42L464.3 229.13L463.08 228.95C462.674 228.872 462.263 228.829 461.85 228.82L460.63 228.76C460.22 228.735 459.81 228.735 459.4 228.76C459 228.76 458.59 228.76 458.19 228.83L457 229.01C453.89 229.509 450.939 230.725 448.38 232.56C445.019 234.947 442.453 238.29 441.015 242.155C439.578 246.019 439.336 250.226 440.32 254.23C440.593 255.338 440.948 256.424 441.38 257.48C441.801 258.46 442.295 259.406 442.86 260.31C444.7 263.227 447.245 265.634 450.26 267.31V267.19C450.243 267.187 450.225 267.19 450.21 267.199C450.195 267.209 450.185 267.223 450.18 267.24L451.93 272.34L452.37 273.63C452.45 274 452.51 274.1 452.51 274.1Z" fill="#263238"/>
<path d="M449.6 249.05L452.69 246.28L458.07 251.6L467.83 242.5L470.39 245.57L457.35 257.23L449.6 249.05Z" fill="#263238"/>
</svg>
