<svg width="243" height="171" viewBox="0 0 243 171" fill="none" xmlns="http://www.w3.org/2000/svg">
<g clip-path="url(#clip0_533_517)">
<mask id="mask0_533_517" style="mask-type:luminance" maskUnits="userSpaceOnUse" x="0" y="0" width="243" height="171">
<path d="M243 0H0V170.986H243V0Z" fill="white"/>
</mask>
<g mask="url(#mask0_533_517)">
<path d="M242.676 110.435C242.39 102.629 242.182 94.8435 241.801 87.0386C241.477 80.5883 241.076 74.1383 240.467 67.7073C239.782 60.4938 238.317 53.4712 235.576 46.7539C232.778 39.922 228.475 34.6551 222.213 31.201C218.273 29.0256 214.086 28.5676 209.803 29.5217C206.186 30.3232 203.082 32.3269 200.341 34.9414C197.049 38.1092 194.479 41.9067 192.347 45.9905C188.959 52.536 185.742 59.158 182.469 65.7607C180.147 70.4361 177.805 75.0924 174.873 79.367C173.198 81.8097 171.333 84.0806 168.973 85.8364C166.117 87.9545 163.034 88.508 159.684 87.4584C155.934 86.2942 152.736 84.0806 149.671 81.5808C144.97 77.7069 140.877 73.1651 136.575 68.8331C132.121 64.3486 127.762 59.7114 122.832 55.7802C120.434 53.872 117.826 52.3643 114.894 51.6964C111.068 50.8378 107.528 51.8492 104.235 54.0055C100.751 56.2764 97.9342 59.3297 95.1171 62.4022C92.7949 64.9401 90.5867 67.5927 88.2455 70.0735C83.3344 75.2834 77.8714 79.7106 71.4186 82.6302C68.1827 84.0997 64.7944 84.9776 61.254 85.1684C56.2097 85.4356 51.6222 83.8516 47.3014 81.2372C42.9423 78.6037 38.9641 75.3787 34.9666 72.1728C32.5492 70.2262 29.9986 68.4706 27.2766 67.0202C25.6205 66.1234 23.8884 65.4364 22.0229 65.2837C19.3199 65.0547 17.0929 66.2188 15.1513 68.0889C12.6768 70.4934 11.0017 73.5085 9.53603 76.6573C6.22395 83.7753 4.35853 91.3705 2.81668 99.0801C1.61749 105.129 0.741882 111.236 0.208905 117.381C0.113729 118.392 0.0566246 119.423 0.0185547 120.434V136.044C0.285044 139.804 0.875126 143.525 1.96012 147.151C3.33063 151.769 5.23412 156.12 8.37489 159.765C11.8392 163.791 16.1792 166.215 21.0141 167.856C26.4199 169.669 31.9782 170.318 37.6125 170.623C45.3788 171.043 53.1451 170.738 60.8733 170.28C68.5443 169.822 76.1963 169.116 83.8675 168.562C88.6452 168.219 93.4419 167.99 98.2198 167.703C108.289 167.112 118.359 166.978 128.428 167.112C136.156 167.207 143.904 167.398 151.632 167.703C159.36 168.009 167.088 168.467 174.816 168.982C180.927 169.383 187.038 170.07 193.147 170.413C198.267 170.718 203.408 170.699 208.527 170.871C212.278 170.986 216.009 170.909 219.738 170.337C222.898 169.841 225.963 168.963 228.856 167.493C234.243 164.745 237.688 160.223 239.649 154.326C241.42 149.04 242.162 143.563 242.581 138.01C243.265 128.85 242.999 119.652 242.676 110.435Z" fill="#22272E"/>
<path d="M109.204 40.1324C119.711 40.1324 128.239 31.1442 128.239 20.0569C128.239 8.96951 119.73 0.000389099 109.204 0.000389099C98.6966 0.000389099 90.1689 8.98859 90.1689 20.0759C90.1689 31.1633 98.6966 40.1324 109.204 40.1324Z" fill="#267A7A"/>
<path d="M151.956 34.5768C159.875 34.5768 166.309 27.8024 166.309 19.4439C166.309 11.0854 159.894 4.31087 151.956 4.31087C144.038 4.31087 137.604 11.0854 137.604 19.4439C137.604 27.8024 144.038 34.5768 151.956 34.5768Z" fill="#D94E4E"/>
<path d="M186.219 38.2791C191.72 38.2791 196.174 33.5846 196.174 27.7834C196.174 21.982 191.72 17.2876 186.219 17.2876C180.719 17.2876 176.264 21.982 176.264 27.7834C176.264 33.5846 180.719 38.2791 186.219 38.2791Z" fill="#4B4BEB"/>
</g>
<path d="M31.6741 150.297C30.3608 150.297 29.1804 149.991 28.1525 149.4C27.1058 148.808 26.2873 147.968 25.6972 146.919C25.107 145.85 24.8025 144.629 24.8025 143.255C24.8025 141.862 25.107 140.621 25.6972 139.572C26.2873 138.522 27.1058 137.702 28.1525 137.11C29.1995 136.518 30.3608 136.232 31.6741 136.232C32.8733 136.232 33.9583 136.499 34.91 137.053C35.8619 137.606 36.6232 138.389 37.1942 139.438C37.7652 140.488 38.0508 141.747 38.0508 143.255C38.0508 144.743 37.7652 146.022 37.2133 147.072C36.6613 148.121 35.8998 148.922 34.9481 149.476C33.9774 150.029 32.8923 150.297 31.6741 150.297ZM31.8073 148.636C32.7782 148.636 33.6727 148.407 34.4342 147.968C35.2146 147.529 35.8238 146.881 36.2616 146.079C36.6992 145.258 36.9277 144.323 36.9277 143.255C36.9277 142.167 36.6992 141.213 36.2616 140.411C35.8238 139.61 35.1956 138.98 34.4342 138.541C33.6537 138.102 32.7782 137.873 31.8073 137.873C30.8556 137.873 29.9799 138.102 29.2185 138.541C28.4572 138.98 27.829 139.61 27.3912 140.411C26.9343 141.213 26.7061 142.167 26.7061 143.255C26.7061 144.323 26.9343 145.258 27.3912 146.079C27.8481 146.9 28.4572 147.529 29.2185 147.968C29.9799 148.426 30.8365 148.636 31.8073 148.636ZM36.9848 150.163V146.003L37.1752 143.217L36.9086 140.43V130.66H38.7741V150.163H36.9848Z" fill="#F2F2F2"/>
<path d="M52.2894 150.296C50.8617 150.296 49.6056 149.991 48.5205 149.38C47.4355 148.769 46.5979 147.949 45.9697 146.88C45.3606 145.812 45.0562 144.609 45.0562 143.235C45.0562 141.861 45.3417 140.659 45.9318 139.609C46.5219 138.56 47.3213 137.739 48.3492 137.129C49.3771 136.518 50.5192 136.232 51.7946 136.232C53.0888 136.232 54.231 136.518 55.2399 137.11C56.2487 137.701 57.0291 138.522 57.6192 139.571C58.1902 140.64 58.4758 141.861 58.4758 143.235C58.4758 143.331 58.4758 143.407 58.4567 143.522C58.4377 143.617 58.4377 143.712 58.4377 143.827H46.4647V142.434H57.4479L56.7056 142.987C56.7056 141.995 56.4962 141.098 56.0584 140.316C55.6396 139.533 55.0495 138.923 54.3071 138.484C53.5647 138.045 52.7272 137.835 51.7564 137.835C50.8048 137.835 49.9672 138.045 49.2058 138.484C48.4634 138.923 47.8733 139.533 47.4545 140.316C47.0357 141.098 46.8264 142.014 46.8264 143.026V143.312C46.8264 144.361 47.0548 145.277 47.5117 146.079C47.9686 146.88 48.6156 147.491 49.4532 147.949C50.2907 148.388 51.2235 148.617 52.2894 148.617C53.1269 148.617 53.9073 148.464 54.6307 148.178C55.354 147.873 55.9822 147.434 56.4962 146.804L57.5432 148.006C56.934 148.751 56.1725 149.304 55.2399 149.686C54.4023 150.105 53.3935 150.296 52.2894 150.296Z" fill="#F2F2F2"/>
<path d="M80.632 127.991C82.3071 127.991 84.1154 128.278 86.0569 128.869L85.2193 131.255C83.3729 130.72 81.774 130.453 80.4226 130.453C78.8997 130.453 77.6245 130.778 76.5775 131.407C75.5306 132.056 74.9977 132.877 74.9977 133.888C74.9977 134.461 75.169 134.957 75.5115 135.396C75.8541 135.835 76.2919 136.197 76.8441 136.483C77.396 136.77 78.0242 137.037 78.7284 137.304C79.4328 137.571 80.156 137.819 80.8795 138.048C81.6027 138.277 82.3261 138.564 83.0303 138.907C83.7347 139.251 84.3629 139.632 84.9148 140.052C85.4668 140.472 85.9046 141.006 86.2472 141.674C86.59 142.342 86.7612 143.105 86.7612 143.945C86.7612 144.537 86.666 145.109 86.4756 145.701C86.2853 146.273 85.9808 146.865 85.5621 147.418C85.1242 147.991 84.5911 148.487 83.9632 148.926C83.335 149.365 82.5355 149.708 81.5646 149.975C80.5939 150.243 79.5088 150.376 78.3287 150.376C77.1485 150.376 76.0446 150.262 75.0546 150.013C74.0649 149.765 72.9419 149.403 71.7046 148.907L72.5991 146.369C75.169 147.323 77.1866 147.8 78.6714 147.8C80.2322 147.8 81.4886 147.494 82.4784 146.865C83.4491 146.235 83.9441 145.395 83.9441 144.346C83.9441 143.64 83.7347 143.048 83.2969 142.533C82.859 142.018 82.3071 141.617 81.6027 141.292C80.9174 140.987 80.137 140.682 79.2994 140.415C78.462 140.147 77.6245 139.842 76.7869 139.537C75.9494 139.231 75.188 138.869 74.5027 138.449C73.8174 138.029 73.2463 137.476 72.8085 136.789C72.3709 136.083 72.1615 135.262 72.1615 134.327C72.1615 133.487 72.3709 132.686 72.7706 131.904C73.1703 131.14 73.7413 130.453 74.4455 129.881C75.169 129.308 76.0635 128.831 77.1295 128.488C78.2145 128.163 79.3756 127.991 80.632 127.991Z" fill="#F2F2F2"/>
<path d="M123.67 130.163C123.061 130.163 122.547 130.24 122.11 130.412C121.672 130.583 121.348 130.774 121.12 131.003C120.891 131.232 120.72 131.499 120.606 131.805C120.473 132.11 120.396 132.377 120.377 132.568C120.358 132.759 120.339 132.969 120.339 133.198V134.839H125.422V136.824H120.32V150.048H117.77V136.824H115.581V134.839H117.77V133.293C117.77 131.957 117.96 130.946 118.36 130.24C118.76 129.534 119.35 128.98 120.13 128.599C120.91 128.217 121.805 128.026 122.833 128.026C123.937 128.026 125.136 128.217 126.469 128.618L126.088 130.488C125.155 130.297 124.337 130.163 123.67 130.163Z" fill="#F2F2F2"/>
<path d="M139.926 149.797C138.441 150.179 137.28 150.37 136.461 150.37C135.624 150.37 134.939 150.236 134.348 149.969C133.777 149.702 133.339 149.32 133.035 148.824C132.73 148.328 132.521 147.794 132.388 147.221C132.255 146.649 132.197 146 132.197 145.256V136.821H130.161V134.836H132.197V130.485H134.71V134.836H139.355V136.821H134.729V145.236C134.729 147.336 135.567 148.385 137.223 148.385C137.527 148.385 138.308 148.271 139.583 148.061L139.926 149.797Z" fill="#F2F2F2"/>
<path d="M144.913 134.857H147.597L151.709 147.624L155.611 134.857H158.085L162.14 147.604L166.251 134.857H168.935L163.396 150.066H160.864L156.829 137.739L152.832 150.066H150.3L144.913 134.857Z" fill="#F2F2F2"/>
<path d="M180.641 134.573C181.765 134.573 182.717 134.707 183.515 134.974C184.297 135.241 184.905 135.622 185.323 136.119C185.742 136.615 186.048 137.187 186.238 137.798C186.429 138.409 186.524 139.115 186.524 139.916V150.088H184.734L184.144 148.695C182.906 149.821 181.479 150.393 179.879 150.393C178.453 150.393 177.234 149.954 176.245 149.095C175.255 148.237 174.76 147.206 174.76 146.061C174.76 145.45 174.874 144.897 175.103 144.401C175.331 143.905 175.654 143.504 176.073 143.16C176.492 142.836 176.987 142.55 177.52 142.321C178.053 142.092 178.7 141.92 179.423 141.786C180.147 141.672 180.87 141.576 181.594 141.519C182.316 141.462 183.116 141.443 183.992 141.443V140.241C183.992 139.897 183.972 139.592 183.954 139.325C183.934 139.077 183.839 138.752 183.706 138.409C183.553 138.046 183.364 137.76 183.116 137.531C182.868 137.302 182.507 137.092 182.013 136.939C181.517 136.768 180.927 136.691 180.26 136.691C179.214 136.691 177.863 136.92 176.206 137.378L175.731 135.527C177.387 134.878 179.024 134.573 180.641 134.573ZM183.972 143.332H183.041C182.45 143.332 181.955 143.351 181.517 143.37C181.08 143.389 180.584 143.447 179.994 143.542C179.423 143.637 178.948 143.771 178.567 143.943C178.205 144.115 177.882 144.363 177.615 144.706C177.348 145.031 177.215 145.431 177.215 145.908C177.215 146.557 177.539 147.13 178.186 147.626C178.833 148.122 179.614 148.389 180.508 148.389C181.822 148.389 182.964 147.874 183.934 146.824V143.332H183.972Z" fill="#F2F2F2"/>
<path d="M197.278 135.985C198.554 135.031 199.964 134.554 201.524 134.554C202.589 134.554 203.56 134.744 204.417 135.145L203.655 137.168C202.855 136.863 202.018 136.71 201.162 136.71C199.886 136.71 198.687 137.073 197.546 137.779V150.068H195.033V134.859H196.804L197.278 135.985Z" fill="#F2F2F2"/>
<path d="M216.845 134.573C217.59 134.573 218.255 134.668 218.846 134.84C219.435 135.012 219.93 135.241 220.311 135.527C220.71 135.813 221.033 136.176 221.319 136.615C221.605 137.054 221.815 137.493 221.966 137.912C222.119 138.332 222.234 138.829 222.309 139.42C222.385 140.012 222.442 140.508 222.462 140.947C222.48 141.386 222.5 141.882 222.5 142.473V143.676H212.068C212.068 144.229 212.201 144.782 212.449 145.336C212.697 145.889 213.058 146.386 213.515 146.843C213.971 147.301 214.563 147.664 215.305 147.969C216.047 148.256 216.865 148.408 217.778 148.408C218.846 148.408 219.987 148.218 221.243 147.855L221.682 149.572C220.025 150.145 218.427 150.412 216.827 150.412C215.704 150.412 214.714 150.259 213.858 149.973C213.001 149.668 212.296 149.286 211.764 148.809C211.231 148.332 210.794 147.76 210.47 147.092C210.127 146.424 209.899 145.756 209.766 145.088C209.633 144.42 209.575 143.733 209.575 142.989C209.575 141.844 209.708 140.813 209.994 139.859C210.28 138.905 210.641 138.122 211.117 137.474C211.592 136.825 212.145 136.29 212.773 135.851C213.402 135.413 214.067 135.088 214.753 134.897C215.4 134.668 216.123 134.573 216.845 134.573ZM216.313 136.748C215.418 136.748 214.638 136.997 213.991 137.493C213.344 137.989 212.868 138.619 212.564 139.344C212.259 140.088 212.126 140.87 212.126 141.729H220.045C220.045 138.409 218.806 136.748 216.313 136.748Z" fill="#F2F2F2"/>
<path d="M32.3595 130.813H24.0603V101.387H47.0355V107.856H32.3595V130.813ZM31.7313 114.287H45.2842V120.718H31.7313V114.287Z" fill="#F2F2F2"/>
<path d="M146.874 130.813V101.387H155.173V130.813H146.874Z" fill="#F2F2F2"/>
<path d="M175.73 131.404C173.408 131.404 171.276 131.022 169.316 130.297C167.355 129.553 165.642 128.503 164.195 127.149C162.749 125.794 161.607 124.172 160.807 122.282C159.989 120.412 159.589 118.351 159.589 116.099C159.589 113.867 159.989 111.806 160.807 109.916C161.626 108.046 162.749 106.424 164.195 105.05C165.642 103.695 167.355 102.646 169.316 101.901C171.276 101.157 173.408 100.795 175.73 100.795C178.433 100.795 180.87 101.272 183.001 102.207C185.135 103.142 186.923 104.516 188.35 106.348L183.059 111.138C182.108 110.012 181.06 109.153 179.919 108.581C178.776 107.989 177.52 107.703 176.149 107.703C174.95 107.703 173.846 107.894 172.837 108.294C171.828 108.695 170.972 109.248 170.267 109.993C169.563 110.737 168.992 111.634 168.592 112.664C168.193 113.695 167.983 114.859 167.983 116.118C167.983 117.378 168.193 118.523 168.592 119.572C168.992 120.603 169.563 121.5 170.267 122.244C170.972 122.988 171.847 123.561 172.837 123.943C173.846 124.343 174.95 124.534 176.149 124.534C177.52 124.534 178.776 124.248 179.919 123.656C181.06 123.065 182.108 122.206 183.059 121.042L188.35 125.832C186.923 127.664 185.135 129.038 183.001 129.992C180.87 130.927 178.433 131.404 175.73 131.404Z" fill="white"/>
<path d="M188.047 130.813L201.009 101.387H209.194L222.196 130.813H213.553L203.408 105.452H206.681L196.535 130.813H188.047ZM195.146 125.069L197.278 118.962H211.631L213.763 125.069H195.146Z" fill="white"/>
<path d="M117.256 129.668C117.789 128.733 118.569 128.008 119.578 127.512C120.835 126.901 122.357 126.71 124.07 126.882V122.989H128.563L132.807 129.229H136.043V130.813H142.782L136.462 121.558C138.251 120.718 139.66 119.535 140.65 118.027C141.697 116.424 142.23 114.497 142.23 112.226C142.23 110.012 141.697 108.085 140.65 106.444C139.603 104.803 138.099 103.543 136.138 102.684C134.178 101.826 131.856 101.387 129.172 101.387H115.79V130.813H116.818C116.932 130.393 117.065 130.012 117.256 129.668ZM132.56 109.096C133.417 109.86 133.854 110.909 133.854 112.226C133.854 113.6 133.417 114.669 132.56 115.432C131.703 116.195 130.39 116.558 128.658 116.558H124.089V107.932H128.658C130.39 107.951 131.703 108.333 132.56 109.096Z" fill="#F2F2F2"/>
<path d="M70.106 125.069L72.2378 130.393C72.6375 129.859 73.0944 129.363 73.6273 128.924C74.4649 128.237 75.5118 127.703 76.7301 127.302C77.5295 127.054 78.3671 126.882 79.2618 126.806L68.0311 101.387H59.8461L46.8833 130.813H55.3538L57.6571 125.05H70.106V125.069ZM60.1317 118.962L63.9005 109.554L67.6695 118.962H60.1317Z" fill="#F2F2F2"/>
<path d="M73.5128 92.6469H65.499L59.9219 99.0016H65.5371L73.5128 92.6469Z" fill="#F2F2F2"/>
<path d="M110.099 118.409C109.242 117.207 108.043 116.291 106.501 115.661C106.33 115.603 106.158 115.546 105.987 115.489C107.167 114.878 108.119 114.077 108.785 113.085C109.565 111.939 109.965 110.604 109.965 109.096C109.965 106.825 109.014 104.974 107.11 103.543C105.207 102.112 102.313 101.406 98.4301 101.406H83.5066V126.958C84.5345 127.111 85.5814 127.34 86.6665 127.664L87.9798 128.065L86.99 130.851H99.2867C103.265 130.851 106.272 130.145 108.328 128.714C110.384 127.282 111.412 125.298 111.412 122.779C111.393 121.061 110.955 119.63 110.099 118.409ZM97.3831 107.398C98.7726 107.398 99.8196 107.627 100.524 108.085C101.228 108.543 101.571 109.268 101.571 110.241C101.571 111.157 101.228 111.863 100.524 112.34C99.8196 112.817 98.7726 113.066 97.3831 113.066H91.6726V107.398H97.3831ZM101.913 124.077C101.19 124.573 100.086 124.821 98.6395 124.821H91.6726V118.848H98.6395C100.086 118.848 101.19 119.096 101.913 119.592C102.637 120.088 102.999 120.832 102.999 121.844C102.999 122.836 102.637 123.58 101.913 124.077Z" fill="#F2F2F2"/>
<path d="M101.475 144.17C100.619 144.17 99.8193 143.826 99.2102 143.235C98.6201 142.643 98.2776 141.823 98.2776 140.964C98.2776 140.105 98.6201 139.304 99.2102 138.693C99.8003 138.101 100.619 137.758 101.475 137.758C102.332 137.758 103.131 138.101 103.741 138.693C104.331 139.285 104.673 140.105 104.673 140.964C104.673 141.823 104.331 142.624 103.741 143.235C103.131 143.846 102.313 144.17 101.475 144.17ZM108.214 142.147C108.252 141.861 108.271 141.556 108.271 141.269C108.271 140.983 108.252 140.678 108.214 140.353L110.136 138.865C110.308 138.731 110.346 138.483 110.251 138.273L108.423 135.125C108.309 134.934 108.061 134.838 107.871 134.934L105.606 135.85C105.13 135.487 104.635 135.182 104.064 134.953L103.722 132.529C103.702 132.415 103.645 132.319 103.569 132.262C103.493 132.186 103.379 132.147 103.265 132.147H99.629C99.4005 132.147 99.2102 132.319 99.1721 132.529L98.8295 134.953C98.2585 135.182 97.7635 135.487 97.2876 135.85L95.0226 134.934C94.8322 134.857 94.5848 134.934 94.4704 135.125L92.6431 138.273C92.529 138.464 92.5861 138.712 92.7574 138.865L94.6798 140.353C94.6417 140.659 94.6229 140.964 94.6229 141.269C94.6229 141.575 94.6417 141.861 94.6798 142.147L92.7574 143.655C92.5861 143.788 92.529 144.036 92.6431 144.246L94.4704 147.395C94.5848 147.586 94.8322 147.662 95.0226 147.586L97.2876 146.67C97.7635 147.032 98.2585 147.338 98.8295 147.567L99.1912 149.99C99.2293 150.2 99.4196 150.372 99.648 150.372H103.284C103.512 150.372 103.702 150.2 103.741 149.99L104.083 147.567C104.654 147.338 105.149 147.032 105.625 146.67L107.89 147.586C108.08 147.662 108.328 147.586 108.442 147.395L110.27 144.246C110.384 144.055 110.327 143.807 110.155 143.655L108.214 142.147Z" fill="#F2F2F2"/>
<path d="M55.9627 71.0261C73.1719 71.0261 87.1228 57.0397 87.1228 39.7868C87.1228 22.5338 73.1719 8.5475 55.9627 8.5475C38.7534 8.5475 24.8025 22.5338 24.8025 39.7868C24.8025 57.0397 38.7534 71.0261 55.9627 71.0261Z" fill="#EA6D18"/>
</g>
<defs>
<clipPath id="clip0_533_517">
<rect width="243" height="171" fill="white"/>
</clipPath>
</defs>
</svg>
