<svg width="465" height="109" viewBox="0 0 465 109" fill="none" xmlns="http://www.w3.org/2000/svg">
<g clip-path="url(#clip0_101_37)">
<path d="M155.087 70.401C154.908 65.4299 154.773 60.459 154.522 55.4919C154.317 51.3789 154.062 47.2659 153.669 43.1726C153.228 38.5755 152.296 34.0926 150.537 29.8143C148.752 25.4651 145.998 22.1039 141.997 19.9037C139.475 18.5144 136.803 18.2271 134.068 18.8332C131.755 19.3448 129.772 20.6161 128.028 22.2849C125.921 24.304 124.278 26.7246 122.923 29.3341C120.757 33.5022 118.698 37.7293 116.61 41.9407C115.132 44.9201 113.635 47.8878 111.76 50.6193C110.69 52.1779 109.5 53.6223 107.988 54.7441C106.158 56.098 104.19 56.4444 102.053 55.7831C99.6544 55.0393 97.6075 53.6302 95.654 52.0322C92.6453 49.5684 90.0295 46.6637 87.279 43.9047C84.4275 41.0433 81.6508 38.0953 78.4998 35.5882C76.9693 34.372 75.2965 33.4156 73.4217 32.9905C70.9743 32.4395 68.7178 33.0889 66.6109 34.4586C64.388 35.9031 62.5843 37.8552 60.788 39.8114C59.3061 41.4251 57.8953 43.1175 56.391 44.7076C53.2475 48.0295 49.7561 50.8515 45.6397 52.7132C43.5702 53.646 41.4035 54.2127 39.1432 54.3347C35.9137 54.5079 32.9911 53.4964 30.2218 51.8276C27.4302 50.147 24.8892 48.0964 22.337 46.0537C20.7878 44.8139 19.1637 43.6882 17.4236 42.7633C16.3608 42.1965 15.2568 41.7596 14.0631 41.6573C12.3379 41.5077 10.9084 42.2477 9.67348 43.4442C8.08679 44.9792 7.02026 46.8999 6.08097 48.9111C3.95915 53.4492 2.76914 58.2942 1.78494 63.2101C1.01405 67.0633 0.456463 70.9559 0.119666 74.876C0.0635332 75.5255 0.0261113 76.1749 -0.00756836 76.8243V86.7702C0.168315 89.1711 0.538791 91.5405 1.22735 93.8548C2.10303 96.8028 3.32298 99.5736 5.32131 101.892C7.5292 104.458 10.3134 106.005 13.4007 107.044C16.851 108.205 20.4098 108.614 24.0023 108.807C28.9645 109.075 33.9229 108.882 38.8738 108.591C43.7761 108.303 48.6708 107.843 53.5731 107.493C56.6267 107.276 59.6878 107.127 62.7452 106.946C69.178 106.564 75.6146 106.485 82.0512 106.568C86.9946 106.631 91.9418 106.749 96.8815 106.946C101.821 107.146 106.761 107.438 111.693 107.76C115.604 108.016 119.503 108.449 123.414 108.673C126.688 108.862 129.97 108.858 133.248 108.961C135.647 109.035 138.034 108.988 140.411 108.622C142.431 108.311 144.389 107.752 146.241 106.808C149.68 105.052 151.884 102.167 153.138 98.4165C154.264 95.0513 154.743 91.5523 155.013 88.01C155.462 82.1377 155.297 76.2654 155.084 70.3891L155.087 70.401Z" fill="#F1F1F1"/>
<path d="M33.8667 44.4753C44.7172 44.4753 53.5132 35.224 53.5132 23.812C53.5132 12.4 44.7172 3.14868 33.8667 3.14868C23.0163 3.14868 14.2202 12.4 14.2202 23.812C14.2202 35.224 23.0163 44.4753 33.8667 44.4753Z" fill="#EA6D18"/>
<path d="M69.7918 25.5832C76.5087 25.5832 81.9539 19.8562 81.9539 12.7916C81.9539 5.72698 76.5087 0 69.7918 0C63.0748 0 57.6296 5.72698 57.6296 12.7916C57.6296 19.8562 63.0748 25.5832 69.7918 25.5832Z" fill="#267A7A"/>
<path d="M97.1098 22.0409C102.173 22.0409 106.278 17.7236 106.278 12.398C106.278 7.07239 102.173 2.75513 97.1098 2.75513C92.0462 2.75513 87.9414 7.07239 87.9414 12.398C87.9414 17.7236 92.0462 22.0409 97.1098 22.0409Z" fill="#D94E4E"/>
<path d="M119.002 24.4023C122.515 24.4023 125.363 21.4067 125.363 17.7114C125.363 14.016 122.515 11.0204 119.002 11.0204C115.488 11.0204 112.64 14.016 112.64 17.7114C112.64 21.4067 115.488 24.4023 119.002 24.4023Z" fill="#4B4BEB"/>
</g>
<path d="M175.591 104.569C173.603 104.569 171.821 104.119 170.244 103.218C168.667 102.317 167.428 101.066 166.527 99.4625C165.627 97.8586 165.176 96.0101 165.176 93.9169C165.176 91.7966 165.627 89.9403 166.527 88.352C167.428 86.7636 168.667 85.5248 170.244 84.6355C171.821 83.7462 173.603 83.3035 175.591 83.3035C177.42 83.3035 179.055 83.7152 180.5 84.5346C181.945 85.3578 183.098 86.5539 183.956 88.1306C184.818 89.7073 185.249 91.6335 185.249 93.913C185.249 96.1654 184.826 98.0877 183.976 99.6761C183.129 101.264 181.98 102.48 180.539 103.315C179.094 104.154 177.444 104.569 175.591 104.569ZM175.789 102.064C177.273 102.064 178.605 101.727 179.785 101.051C180.966 100.375 181.894 99.4197 182.57 98.1887C183.246 96.9577 183.583 95.5324 183.583 93.9169C183.583 92.2742 183.246 90.8413 182.57 89.6257C181.894 88.4063 180.966 87.4588 179.785 86.7831C178.605 86.1073 177.273 85.7695 175.789 85.7695C174.333 85.7695 173.021 86.1073 171.856 86.7831C170.69 87.4588 169.762 88.4063 169.071 89.6257C168.38 90.8451 168.038 92.2742 168.038 93.9169C168.038 95.5324 168.384 96.9577 169.071 98.1887C169.758 99.4197 170.687 100.375 171.856 101.051C173.021 101.727 174.333 102.064 175.789 102.064ZM183.661 104.371V98.0916L183.941 93.8781L183.545 89.6646V74.8765H186.368V104.371H183.661Z" fill="#F1F1F1"/>
<path d="M206.873 104.57C204.698 104.57 202.791 104.111 201.148 103.199C199.506 102.286 198.22 101.028 197.292 99.424C196.364 97.8201 195.902 95.9871 195.902 93.9173C195.902 91.8474 196.345 90.0222 197.234 88.4339C198.123 86.8455 199.339 85.5912 200.892 84.6786C202.442 83.766 204.185 83.3077 206.119 83.3077C208.08 83.3077 209.824 83.7504 211.346 84.6398C212.869 85.5291 214.069 86.7718 214.942 88.3756C215.816 89.9795 216.255 91.828 216.255 93.9212C216.255 94.0532 216.247 94.193 216.235 94.3406C216.22 94.4881 216.216 94.6396 216.216 94.7988H198.049V92.694H214.705L213.591 93.5289C213.591 92.0183 213.265 90.6746 212.616 89.494C211.968 88.3135 211.086 87.3931 209.972 86.7329C208.857 86.0689 207.572 85.7388 206.115 85.7388C204.682 85.7388 203.397 86.0689 202.259 86.7329C201.121 87.397 200.232 88.3212 199.595 89.5173C198.958 90.7096 198.64 92.0765 198.64 93.6105V94.0493C198.64 95.6376 198.989 97.0357 199.692 98.2434C200.395 99.4512 201.374 100.391 202.632 101.067C203.89 101.742 205.327 102.08 206.946 102.08C208.22 102.08 209.405 101.855 210.504 101.405C211.603 100.954 212.55 100.267 213.346 99.3385L214.935 101.168C214.006 102.282 212.849 103.129 211.455 103.711C210.072 104.278 208.542 104.57 206.873 104.57Z" fill="#F1F1F1"/>
<path d="M249.847 70.8263C252.394 70.8263 255.132 71.269 258.068 72.1544L256.786 75.766C253.99 74.9583 251.571 74.5544 249.52 74.5544C247.221 74.5544 245.276 75.0398 243.687 76.0107C242.095 76.9815 241.299 78.2359 241.299 79.7737C241.299 80.6281 241.555 81.3892 242.068 82.0572C242.581 82.7251 243.256 83.2688 244.095 83.6882C244.934 84.1076 245.889 84.5232 246.961 84.9348C248.033 85.3464 249.124 85.7231 250.235 86.0649C251.346 86.4066 252.437 86.8416 253.509 87.3697C254.58 87.8979 255.536 88.4765 256.375 89.1056C257.213 89.7347 257.889 90.5541 258.402 91.5638C258.914 92.5735 259.171 93.7152 259.171 94.989C259.171 95.8744 259.031 96.756 258.751 97.6336C258.472 98.5113 258.006 99.3812 257.353 100.243C256.701 101.105 255.893 101.863 254.93 102.515C253.967 103.167 252.751 103.696 251.283 104.1C249.815 104.503 248.181 104.705 246.383 104.705C244.581 104.705 242.922 104.519 241.412 104.146C239.897 103.773 238.2 103.214 236.324 102.468L237.676 98.6239C241.559 100.069 244.623 100.791 246.876 100.791C249.237 100.791 251.155 100.317 252.639 99.3695C254.122 98.4219 254.864 97.156 254.864 95.5715C254.864 94.5152 254.534 93.6026 253.874 92.8337C253.214 92.0648 252.359 91.4434 251.311 90.9696C250.262 90.4959 249.101 90.0532 247.827 89.6415C246.553 89.2299 245.284 88.7872 244.018 88.3134C242.752 87.8396 241.594 87.292 240.546 86.6707C239.497 86.0493 238.643 85.2105 237.983 84.1542C237.323 83.0979 236.992 81.8552 236.992 80.4261C236.992 79.1524 237.299 77.933 237.913 76.7679C238.526 75.6029 239.377 74.5816 240.464 73.7039C241.552 72.8263 242.911 72.1272 244.542 71.6069C246.165 71.0865 247.936 70.8263 249.847 70.8263Z" fill="#F1F1F1"/>
<path d="M315.111 74.1311C314.195 74.1311 313.403 74.2593 312.735 74.5156C312.067 74.7719 311.566 75.0671 311.232 75.401C310.898 75.735 310.634 76.1389 310.44 76.6127C310.246 77.0864 310.129 77.4748 310.09 77.7777C310.051 78.0806 310.032 78.3952 310.032 78.7214V81.2145H317.741V84.2203H310.032V104.228H306.164V84.2203H302.832V81.2145H306.164V78.8845C306.164 76.8651 306.467 75.3272 307.073 74.2709C307.679 73.1991 308.572 72.3758 309.752 71.8011C310.933 71.2263 312.3 70.939 313.853 70.939C315.515 70.939 317.356 71.2419 319.372 71.8477L318.789 74.6904C317.344 74.3176 316.117 74.1311 315.111 74.1311Z" fill="#F1F1F1"/>
<path d="M339.74 103.828C337.488 104.402 335.733 104.69 334.478 104.69C333.22 104.69 332.156 104.488 331.286 104.084C330.416 103.68 329.756 103.105 329.305 102.36C328.855 101.614 328.533 100.81 328.338 99.9481C328.144 99.086 328.047 98.0957 328.047 96.9773V84.2124H324.948V81.2066H328.047V74.6165H331.869V81.2066H338.878V84.2124H331.869V96.9307C331.869 100.115 333.127 101.703 335.643 101.703C336.094 101.703 337.282 101.54 339.208 101.214L339.74 103.828Z" fill="#F1F1F1"/>
<path d="M347.301 81.2141H351.379L357.62 100.523L363.534 81.2141H367.285L373.433 100.499L379.674 81.2141H383.751L375.344 104.223H371.499L365.375 85.5674L359.32 104.223H355.476L347.301 81.2141Z" fill="#F1F1F1"/>
<path d="M401.487 80.7715C403.195 80.7715 404.644 80.9695 405.832 81.3656C407.02 81.7618 407.937 82.3404 408.582 83.1015C409.226 83.8627 409.688 84.7093 409.968 85.6413C410.248 86.5733 410.387 87.6452 410.387 88.8568V104.227H407.684L406.799 102.13C404.919 103.839 402.76 104.693 400.325 104.693C398.151 104.693 396.31 104.037 394.807 102.725C393.3 101.412 392.547 99.878 392.547 98.1265C392.547 97.1945 392.718 96.3557 393.059 95.6101C393.401 94.8645 393.894 94.2431 394.539 93.746C395.184 93.2489 395.918 92.8257 396.741 92.4761C397.564 92.1266 398.523 91.8587 399.619 91.6723C400.714 91.4859 401.813 91.3538 402.916 91.2762C404.019 91.1985 405.23 91.1597 406.551 91.1597V89.3422C406.551 88.8141 406.531 88.3558 406.492 87.9675C406.453 87.5791 406.325 87.1131 406.108 86.5694C405.89 86.0258 405.595 85.5792 405.222 85.2297C404.85 84.8802 404.29 84.5772 403.545 84.3209C402.799 84.0646 401.914 83.9365 400.888 83.9365C399.304 83.9365 397.254 84.286 394.741 84.985L394.019 82.1889C396.558 81.2453 399.048 80.7715 401.487 80.7715ZM406.543 94.045H405.121C404.236 94.045 403.467 94.0606 402.815 94.0917C402.162 94.1227 401.397 94.212 400.52 94.3596C399.642 94.5072 398.923 94.713 398.364 94.9771C397.805 95.2411 397.327 95.6256 396.931 96.1305C396.535 96.6353 396.337 97.2372 396.337 97.9362C396.337 98.9149 396.83 99.7848 397.817 100.546C398.803 101.307 399.98 101.688 401.347 101.688C403.351 101.688 405.083 100.903 406.543 99.3343V94.045Z" fill="#F1F1F1"/>
<path d="M426.702 82.9347C428.644 81.49 430.787 80.7677 433.129 80.7677C434.745 80.7677 436.212 81.0706 437.529 81.6764L436.364 84.7288C435.152 84.2628 433.894 84.0298 432.589 84.0298C430.647 84.0298 428.822 84.5657 427.117 85.6375V104.224H423.3V81.2143H425.98L426.702 82.9347Z" fill="#F1F1F1"/>
<path d="M456.387 80.7715C457.505 80.7715 458.511 80.9074 459.404 81.1792C460.298 81.4511 461.039 81.7967 461.63 82.2161C462.22 82.6355 462.729 83.1831 463.156 83.8588C463.583 84.5345 463.909 85.1869 464.134 85.8161C464.36 86.4452 464.534 87.2024 464.659 88.0879C464.783 88.9733 464.861 89.7422 464.892 90.3946C464.923 91.047 464.938 91.816 464.938 92.7014V94.5188H449.125C449.125 95.3576 449.315 96.1926 449.696 97.0236C450.076 97.8547 450.612 98.6158 451.304 99.3071C451.995 99.9984 452.904 100.561 454.03 100.996C455.156 101.431 456.402 101.649 457.769 101.649C459.385 101.649 461.132 101.369 463.008 100.81L463.684 103.42C461.183 104.274 458.733 104.701 456.325 104.701C454.632 104.701 453.129 104.476 451.82 104.025C450.507 103.575 449.451 102.989 448.651 102.266C447.851 101.544 447.195 100.678 446.682 99.6683C446.17 98.6586 445.816 97.6528 445.622 96.6508C445.428 95.6489 445.331 94.5887 445.331 93.4703C445.331 91.7461 445.541 90.1694 445.96 88.7403C446.379 87.3112 446.946 86.1112 447.661 85.1403C448.375 84.1695 449.21 83.3501 450.166 82.6821C451.121 82.0142 452.123 81.5288 453.171 81.2258C454.208 80.9229 455.284 80.7715 456.387 80.7715ZM455.571 84.0763C454.204 84.0763 453.028 84.453 452.041 85.2064C451.055 85.9597 450.337 86.8957 449.886 88.0141C449.436 89.1325 449.21 90.3364 449.21 91.6257H461.23C461.233 86.5927 459.346 84.0763 455.571 84.0763Z" fill="#F1F1F1"/>
<path d="M177.541 75.1096H164.947V30.59H199.801V40.384H177.541V75.1096ZM176.586 50.1159H197.129V59.8477H176.586V50.1159Z" fill="#F1F1F1"/>
<path d="M350.276 75.1096V30.59H362.87V75.1096H350.276Z" fill="#F1F1F1"/>
<path d="M394.031 76.0027C390.512 76.0027 387.266 75.4396 384.299 74.3173C381.332 73.195 378.742 71.6028 376.54 69.5485C374.334 67.4941 372.617 65.0437 371.39 62.201C370.159 59.3622 369.546 56.2438 369.546 52.8536C369.546 49.4634 370.159 46.345 371.39 43.5062C372.617 40.6674 374.338 38.2169 376.54 36.1587C378.745 34.1044 381.332 32.5122 384.299 31.3899C387.266 30.2676 390.508 29.7045 394.031 29.7045C398.143 29.7045 401.821 30.4151 405.063 31.8365C408.306 33.2578 411.009 35.3432 413.172 38.1004L405.157 45.3508C403.716 43.6538 402.124 42.3606 400.388 41.4713C398.648 40.582 396.741 40.1354 394.664 40.1354C392.838 40.1354 391.165 40.4344 389.639 41.0247C388.112 41.6188 386.807 42.4771 385.728 43.5994C384.648 44.7217 383.798 46.0692 383.184 47.6382C382.571 49.2071 382.26 50.9468 382.26 52.8536C382.26 54.7604 382.567 56.5001 383.184 58.069C383.798 59.638 384.648 60.9855 385.728 62.1078C386.807 63.2301 388.112 64.0922 389.639 64.6825C391.165 65.2767 392.838 65.5718 394.664 65.5718C396.741 65.5718 398.648 65.1252 400.388 64.2359C402.128 63.3466 403.716 62.0302 405.157 60.2943L413.172 67.5446C411.009 70.3019 408.306 72.3989 405.063 73.8397C401.821 75.2804 398.143 76.0027 394.031 76.0027Z" fill="#F1F1F1"/>
<path d="M412.726 75.1096L432.38 30.59H444.783L464.499 75.1096H451.397L436.007 36.7607H440.966L425.576 75.1096H412.726ZM423.475 66.3991L426.718 57.1759H448.469L451.711 66.3991H423.475Z" fill="#F1F1F1"/>
<path d="M305.383 73.3694C306.183 71.9559 307.372 70.853 308.917 70.1035C310.828 69.1715 313.135 68.8802 315.74 69.1598V63.2803H322.552L328.995 72.7209H333.892V75.1092H344.109L334.497 61.1017C337.22 59.8202 339.336 58.0493 340.835 55.7736C342.427 53.3581 343.22 50.43 343.22 46.9971C343.22 43.6496 342.424 40.7331 340.835 38.2516C339.247 35.7701 336.967 33.875 333.996 32.5585C331.03 31.2459 327.507 30.5857 323.437 30.5857H303.15V75.1053H304.696C304.875 74.4723 305.092 73.8782 305.383 73.3694ZM328.587 42.2632C329.899 43.4282 330.56 45.0088 330.56 47.001C330.56 49.0786 329.903 50.6902 328.587 51.8358C327.274 52.9814 325.301 53.5523 322.672 53.5523H315.74V40.5117H322.672C325.301 40.5117 327.274 41.0943 328.587 42.2632Z" fill="#F1F1F1"/>
<path d="M233.889 66.3991L237.124 74.4611C237.726 73.6534 238.425 72.9039 239.245 72.2437C240.519 71.2146 242.107 70.3913 243.963 69.801C245.171 69.4165 246.456 69.1758 247.8 69.0437L230.771 30.5939H218.367L198.713 75.1135H211.56L215.055 66.3991H233.889ZM218.764 57.176L224.476 42.9393L230.189 57.176H218.764Z" fill="#F1F1F1"/>
<path d="M239.039 17.3632H226.891L218.433 26.9669H226.957L239.039 17.3632Z" fill="#F1F1F1"/>
<path d="M294.529 56.3484C293.236 54.527 291.411 53.1368 289.061 52.1814C288.809 52.0805 288.533 52.0028 288.269 51.9096C290.063 50.9776 291.496 49.7737 292.525 48.267C293.714 46.5272 294.308 44.5156 294.308 42.2243C294.308 38.7914 292.867 35.9914 289.982 33.8284C287.096 31.6653 282.708 30.5857 276.817 30.5857H254.177V69.2219C255.726 69.4549 257.322 69.8045 258.965 70.2977L260.945 70.8957L259.45 75.1053H278.091C284.11 75.1053 288.681 74.0257 291.795 71.8627C294.91 69.6996 296.467 66.7094 296.467 62.8958C296.471 60.3561 295.822 58.1736 294.529 56.3484ZM275.229 39.6846C277.349 39.6846 278.937 40.0341 279.997 40.7331C281.058 41.4321 281.586 42.5234 281.586 44.0068C281.586 45.4049 281.054 46.465 279.997 47.1874C278.937 47.9097 277.349 48.2708 275.229 48.2708H266.58V39.6846H275.229ZM282.094 64.9036C280.992 65.6453 279.337 66.0181 277.135 66.0181H266.576V56.9853H277.135C279.341 56.9853 280.992 57.3581 282.094 58.0998C283.197 58.8415 283.749 59.9755 283.749 61.5017C283.749 63.0279 283.197 64.1618 282.094 64.9036Z" fill="#F1F1F1"/>
<path d="M281.43 95.3152C280.145 95.3152 278.91 94.8026 277.998 93.8939C277.089 92.9851 276.576 91.7502 276.576 90.4609C276.576 89.1755 277.089 87.9406 277.998 87.028C278.906 86.1192 280.141 85.6066 281.43 85.6066C282.716 85.6066 283.951 86.1192 284.863 87.028C285.772 87.9367 286.285 89.1716 286.285 90.4609C286.285 91.7463 285.772 92.9812 284.863 93.8939C283.951 94.8065 282.72 95.3152 281.43 95.3152ZM291.675 92.2434C291.729 91.8007 291.772 91.3619 291.772 90.9075C291.772 90.4531 291.729 89.9988 291.675 89.5289L294.584 87.2804C294.844 87.0745 294.914 86.7017 294.751 86.3988L291.993 81.6261C291.826 81.3232 291.457 81.1989 291.151 81.3232L287.718 82.7018C286.999 82.1659 286.258 81.696 285.388 81.3504L284.879 77.6961C284.852 77.533 284.766 77.3854 284.642 77.2805C284.514 77.1757 284.355 77.1174 284.192 77.1174H278.677C278.332 77.1174 278.044 77.366 277.986 77.6961L277.477 81.3504C276.607 81.696 275.866 82.162 275.147 82.7018L271.714 81.3232C271.411 81.1989 271.038 81.3232 270.871 81.6261L268.114 86.3988C267.936 86.7017 268.017 87.0745 268.281 87.2804L271.19 89.5289C271.136 89.9988 271.093 90.4531 271.093 90.9075C271.093 91.3619 271.136 91.8046 271.19 92.2434L268.281 94.5307C268.021 94.7366 267.936 95.1094 268.114 95.4123L270.871 100.185C271.038 100.488 271.407 100.601 271.714 100.488L275.147 99.0938C275.866 99.6452 276.607 100.115 277.477 100.461L277.986 104.115C278.04 104.445 278.332 104.694 278.677 104.694H284.192C284.537 104.694 284.825 104.445 284.883 104.115L285.392 100.461C286.261 100.103 287.003 99.6491 287.722 99.0938L291.155 100.488C291.458 100.597 291.83 100.488 291.997 100.185L294.755 95.4123C294.922 95.1094 294.852 94.7366 294.588 94.5307L291.675 92.2434Z" fill="#F1F1F1"/>
<defs>
<clipPath id="clip0_101_37">
<rect width="155.301" height="109" fill="white"/>
</clipPath>
</defs>
</svg>
