<svg width="303" height="213" viewBox="0 0 303 213" fill="none" xmlns="http://www.w3.org/2000/svg">
<mask id="mask0_101_70" style="mask-type:luminance" maskUnits="userSpaceOnUse" x="0" y="0" width="303" height="213">
<path d="M303 0H0V212.665H303V0Z" fill="white"/>
</mask>
<g mask="url(#mask0_101_70)">
<path d="M302.597 137.354C302.241 127.646 301.98 117.962 301.505 108.255C301.101 100.233 300.603 92.2101 299.843 84.2114C298.989 75.2396 297.161 66.5052 293.744 58.1505C290.255 49.6534 284.89 43.1026 277.082 38.8065C272.169 36.1008 266.947 35.5311 261.606 36.7179C257.097 37.7147 253.228 40.2069 249.81 43.4586C245.704 47.3986 242.5 52.1218 239.842 57.2011C235.617 65.3422 231.606 73.5782 227.523 81.7905C224.627 87.6055 221.708 93.3969 218.053 98.7135C215.964 101.752 213.638 104.576 210.695 106.76C207.135 109.394 203.29 110.083 199.112 108.777C194.437 107.329 190.449 104.576 186.628 101.467C180.765 96.6485 175.662 90.9996 170.298 85.6118C164.744 80.0341 159.309 74.2665 153.162 69.3771C150.171 67.0036 146.919 65.1286 143.264 64.2978C138.493 63.2298 134.079 64.4877 129.973 67.1698C125.629 69.9942 122.116 73.7918 118.604 77.6131C115.708 80.7699 112.955 84.069 110.035 87.1546C103.912 93.6342 97.0997 99.1407 89.0536 102.772C85.0187 104.6 80.7939 105.692 76.3792 105.929C70.0894 106.261 64.3693 104.291 58.9815 101.04C53.5462 97.7641 48.5856 93.7529 43.6012 89.7654C40.5869 87.3445 37.4064 85.1608 34.0123 83.357C31.9474 82.2414 29.7875 81.387 27.4615 81.1971C24.0911 80.9123 21.3142 82.3601 18.8932 84.6861C15.8076 87.6767 13.719 91.4269 11.8914 95.3431C7.76151 104.196 5.43549 113.643 3.51296 123.232C2.01766 130.756 0.925853 138.351 0.261275 145.993C0.1426 147.251 0.0713956 148.533 0.0239258 149.791V169.206C0.356215 173.882 1.092 178.51 2.44489 183.02C4.1538 188.764 6.52729 194.175 10.4436 198.709C14.7633 203.717 20.1749 206.731 26.2035 208.772C32.9443 211.027 39.8749 211.834 46.9004 212.214C56.5842 212.736 66.2681 212.356 75.9045 211.787C85.4696 211.217 95.0111 210.339 104.576 209.651C110.534 209.223 116.515 208.938 122.472 208.582C135.028 207.847 147.584 207.681 160.14 207.847C169.776 207.965 179.436 208.203 189.073 208.582C198.709 208.962 208.345 209.532 217.982 210.173C225.601 210.671 233.22 211.526 240.838 211.953C247.223 212.333 253.632 212.309 260.016 212.522C264.692 212.665 269.344 212.57 273.996 211.858C277.936 211.241 281.757 210.149 285.365 208.321C292.082 204.904 296.378 199.278 298.823 191.944C301.03 185.37 301.956 178.558 302.478 171.651C303.332 160.258 303 148.818 302.597 137.354Z" fill="white"/>
<path d="M136.167 49.9143C149.269 49.9143 159.902 38.7351 159.902 24.9452C159.902 11.1552 149.293 -0.000244141 136.167 -0.000244141C123.066 -0.000244141 112.432 11.1789 112.432 24.9689C112.432 38.7589 123.066 49.9143 136.167 49.9143Z" fill="#267A7A"/>
<path d="M189.476 43.0075C199.35 43.0075 207.372 34.5816 207.372 24.1857C207.372 13.7898 199.373 5.36389 189.476 5.36389C179.602 5.36389 171.58 13.7898 171.58 24.1857C171.58 34.5816 179.602 43.0075 189.476 43.0075Z" fill="#D94E4E"/>
<path d="M232.199 47.6122C239.058 47.6122 244.612 41.7734 244.612 34.558C244.612 27.3426 239.058 21.5038 232.199 21.5038C225.339 21.5038 219.785 27.3426 219.785 34.558C219.785 41.7734 225.339 47.6122 232.199 47.6122Z" fill="#4B4BEB"/>
</g>
<path d="M39.4951 186.936C37.8573 186.936 36.3858 186.556 35.1041 185.821C33.7987 185.085 32.7781 184.04 32.0423 182.735C31.3065 181.406 30.9268 179.887 30.9268 178.178C30.9268 176.445 31.3065 174.902 32.0423 173.597C32.7781 172.292 33.7987 171.271 35.1041 170.535C36.4095 169.799 37.8573 169.443 39.4951 169.443C40.9904 169.443 42.3432 169.776 43.53 170.464C44.7167 171.152 45.6661 172.125 46.3782 173.431C47.0902 174.736 47.4463 176.303 47.4463 178.178C47.4463 180.029 47.0902 181.619 46.4019 182.925C45.7136 184.23 44.7642 185.227 43.5775 185.915C42.367 186.604 41.0141 186.936 39.4951 186.936ZM39.6612 184.871C40.8717 184.871 41.9872 184.586 42.9366 184.04C43.9098 183.494 44.6693 182.687 45.2152 181.691C45.7611 180.67 46.0459 179.507 46.0459 178.178C46.0459 176.825 45.7611 175.638 45.2152 174.641C44.6693 173.644 43.886 172.861 42.9366 172.315C41.9635 171.769 40.8717 171.485 39.6612 171.485C38.4745 171.485 37.3827 171.769 36.4333 172.315C35.4839 172.861 34.7006 173.644 34.1547 174.641C33.5851 175.638 33.3002 176.825 33.3002 178.178C33.3002 179.507 33.5851 180.67 34.1547 181.691C34.7243 182.711 35.4839 183.494 36.4333 184.04C37.3827 184.61 38.4507 184.871 39.6612 184.871ZM46.1171 186.77V181.596L46.3545 178.13L46.0222 174.665V162.513H48.3482V186.77H46.1171Z" fill="#22272E"/>
<path d="M65.1999 186.936C63.4198 186.936 61.8533 186.556 60.5004 185.797C59.1475 185.037 58.1032 184.016 57.3199 182.687C56.5604 181.358 56.1807 179.863 56.1807 178.154C56.1807 176.445 56.5367 174.95 57.2725 173.644C58.0083 172.339 59.0051 171.318 60.2868 170.559C61.5685 169.799 62.9926 169.443 64.5828 169.443C66.1968 169.443 67.6209 169.799 68.8788 170.535C70.1368 171.271 71.1099 172.291 71.8457 173.597C72.5578 174.926 72.9138 176.445 72.9138 178.154C72.9138 178.273 72.9138 178.368 72.89 178.51C72.8663 178.629 72.8663 178.747 72.8663 178.89H57.937V177.157H71.6321L70.7064 177.845C70.7064 176.611 70.4453 175.496 69.8994 174.523C69.3773 173.549 68.6415 172.79 67.7158 172.244C66.7902 171.698 65.7458 171.437 64.5354 171.437C63.3486 171.437 62.3043 171.698 61.3549 172.244C60.4292 172.79 59.6934 173.549 59.1713 174.523C58.6491 175.496 58.388 176.635 58.388 177.893V178.249C58.388 179.554 58.6728 180.694 59.2425 181.69C59.8121 182.687 60.6191 183.447 61.6634 184.016C62.7078 184.562 63.8708 184.847 65.1999 184.847C66.2443 184.847 67.2174 184.657 68.1193 184.301C69.0213 183.922 69.8045 183.376 70.4454 182.592L71.7508 184.088C70.9913 185.013 70.0419 185.702 68.8788 186.176C67.8345 186.699 66.5766 186.936 65.1999 186.936Z" fill="#22272E"/>
<path d="M100.541 159.19C102.63 159.19 104.885 159.546 107.306 160.281L106.261 163.248C103.959 162.584 101.965 162.251 100.28 162.251C98.3812 162.251 96.791 162.655 95.4856 163.438C94.1802 164.245 93.5156 165.266 93.5156 166.524C93.5156 167.236 93.7292 167.853 94.1564 168.399C94.5836 168.945 95.1295 169.396 95.8179 169.752C96.5062 170.108 97.2894 170.44 98.1676 170.772C99.0458 171.105 99.9477 171.413 100.85 171.698C101.752 171.983 102.654 172.339 103.532 172.766C104.41 173.193 105.193 173.668 105.881 174.19C106.57 174.712 107.116 175.377 107.543 176.208C107.97 177.038 108.184 177.988 108.184 179.032C108.184 179.768 108.065 180.48 107.828 181.216C107.59 181.928 107.211 182.664 106.688 183.352C106.143 184.064 105.478 184.681 104.695 185.227C103.911 185.773 102.915 186.2 101.704 186.532C100.494 186.865 99.1408 187.031 97.6692 187.031C96.1976 187.031 94.821 186.888 93.5868 186.58C92.3526 186.271 90.9522 185.82 89.4094 185.203L90.525 182.046C93.7292 183.233 96.2451 183.827 98.0964 183.827C100.043 183.827 101.609 183.447 102.843 182.664C104.054 181.88 104.671 180.836 104.671 179.531C104.671 178.652 104.41 177.917 103.864 177.276C103.318 176.635 102.63 176.136 101.752 175.733C100.897 175.353 99.924 174.973 98.8797 174.641C97.8353 174.309 96.791 173.929 95.7467 173.549C94.7023 173.17 93.7529 172.719 92.8985 172.196C92.044 171.674 91.332 170.986 90.7861 170.131C90.2402 169.253 89.9791 168.233 89.9791 167.07C89.9791 166.025 90.2402 165.028 90.7386 164.055C91.237 163.106 91.9491 162.251 92.8273 161.539C93.7292 160.827 94.8447 160.234 96.1739 159.807C97.5268 159.403 98.9746 159.19 100.541 159.19Z" fill="#22272E"/>
<path d="M154.206 161.895C153.446 161.895 152.805 161.99 152.259 162.204C151.714 162.417 151.31 162.655 151.025 162.94C150.74 163.224 150.527 163.557 150.384 163.936C150.218 164.316 150.123 164.648 150.1 164.886C150.076 165.123 150.052 165.384 150.052 165.669V167.71H156.389V170.179H150.028V186.627H146.848V170.179H144.118V167.71H146.848V165.788C146.848 164.126 147.085 162.868 147.584 161.99C148.082 161.112 148.818 160.424 149.791 159.949C150.764 159.474 151.88 159.237 153.161 159.237C154.538 159.237 156.033 159.474 157.695 159.973L157.22 162.299C156.057 162.061 155.036 161.895 154.206 161.895Z" fill="#22272E"/>
<path d="M174.476 186.319C172.624 186.793 171.176 187.031 170.156 187.031C169.111 187.031 168.257 186.865 167.521 186.532C166.809 186.2 166.263 185.725 165.884 185.108C165.504 184.491 165.243 183.827 165.077 183.114C164.91 182.402 164.839 181.595 164.839 180.67V170.179H162.3V167.711H164.839V162.299H167.972V167.711H173.764V170.179H167.996V180.646C167.996 183.257 169.04 184.562 171.105 184.562C171.485 184.562 172.458 184.42 174.048 184.159L174.476 186.319Z" fill="#22272E"/>
<path d="M180.694 167.734H184.041L189.167 183.613L194.033 167.734H197.119L202.174 183.589L207.301 167.734H210.648L203.741 186.651H200.584L195.552 171.318L190.568 186.651H187.411L180.694 167.734Z" fill="#22272E"/>
<path d="M225.244 167.378C226.645 167.378 227.832 167.544 228.828 167.877C229.802 168.209 230.561 168.684 231.083 169.301C231.605 169.918 231.985 170.63 232.223 171.389C232.46 172.149 232.579 173.027 232.579 174.024V186.675H230.348L229.612 184.942C228.069 186.342 226.289 187.055 224.295 187.055C222.515 187.055 220.996 186.509 219.762 185.441C218.528 184.372 217.91 183.091 217.91 181.667C217.91 180.907 218.053 180.219 218.338 179.602C218.622 178.985 219.026 178.486 219.548 178.059C220.07 177.656 220.687 177.299 221.352 177.015C222.017 176.73 222.824 176.516 223.725 176.35C224.627 176.208 225.529 176.089 226.431 176.018C227.333 175.947 228.33 175.923 229.422 175.923V174.428C229.422 174 229.398 173.621 229.374 173.288C229.351 172.98 229.232 172.576 229.066 172.149C228.876 171.698 228.639 171.342 228.33 171.057C228.021 170.772 227.571 170.511 226.953 170.321C226.336 170.108 225.601 170.013 224.77 170.013C223.464 170.013 221.779 170.298 219.714 170.867L219.121 168.565C221.186 167.758 223.227 167.378 225.244 167.378ZM229.398 178.273H228.235C227.499 178.273 226.882 178.296 226.336 178.32C225.79 178.344 225.173 178.415 224.438 178.534C223.725 178.652 223.132 178.819 222.657 179.032C222.206 179.246 221.803 179.554 221.471 179.982C221.138 180.385 220.972 180.883 220.972 181.477C220.972 182.284 221.376 182.996 222.183 183.613C222.99 184.23 223.963 184.562 225.078 184.562C226.716 184.562 228.14 183.922 229.351 182.616V178.273H229.398Z" fill="#22272E"/>
<path d="M245.989 169.135C247.579 167.948 249.335 167.355 251.282 167.355C252.611 167.355 253.821 167.592 254.889 168.091L253.94 170.606C252.943 170.227 251.899 170.037 250.831 170.037C249.24 170.037 247.745 170.488 246.321 171.366V186.651H243.188V167.735H245.395L245.989 169.135Z" fill="#22272E"/>
<path d="M270.388 167.378C271.314 167.378 272.145 167.497 272.88 167.711C273.616 167.924 274.233 168.209 274.708 168.565C275.206 168.921 275.61 169.372 275.966 169.918C276.322 170.464 276.583 171.01 276.773 171.532C276.963 172.054 277.105 172.671 277.2 173.407C277.295 174.143 277.366 174.76 277.39 175.306C277.414 175.852 277.438 176.469 277.438 177.205V178.7H264.431C264.431 179.388 264.597 180.076 264.906 180.765C265.214 181.453 265.665 182.07 266.235 182.64C266.804 183.209 267.54 183.66 268.466 184.04C269.391 184.396 270.412 184.586 271.551 184.586C272.88 184.586 274.305 184.349 275.871 183.898L276.417 186.034C274.352 186.746 272.358 187.078 270.365 187.078C268.964 187.078 267.73 186.888 266.662 186.532C265.594 186.153 264.716 185.678 264.051 185.085C263.386 184.491 262.841 183.779 262.437 182.948C262.01 182.118 261.725 181.287 261.559 180.456C261.393 179.626 261.322 178.771 261.322 177.845C261.322 176.421 261.488 175.14 261.844 173.953C262.2 172.766 262.651 171.793 263.244 170.986C263.837 170.179 264.526 169.514 265.309 168.969C266.092 168.423 266.923 168.019 267.777 167.782C268.584 167.497 269.486 167.378 270.388 167.378ZM269.724 170.084C268.608 170.084 267.635 170.393 266.828 171.01C266.021 171.627 265.428 172.41 265.048 173.312C264.668 174.238 264.502 175.211 264.502 176.279H274.376C274.376 172.149 272.833 170.084 269.724 170.084Z" fill="#22272E"/>
<path d="M40.3494 162.703H30.001V126.103H58.649V134.15H40.3494V162.703ZM39.5662 142.148H56.4654V150.147H39.5662V142.148Z" fill="#22272E"/>
<path d="M183.139 162.703V126.103H193.487V162.703H183.139Z" fill="#22272E"/>
<path d="M219.121 163.438C216.225 163.438 213.567 162.964 211.122 162.062C208.678 161.136 206.541 159.831 204.738 158.145C202.934 156.46 201.51 154.443 200.513 152.093C199.492 149.767 198.994 147.204 198.994 144.403C198.994 141.626 199.492 139.062 200.513 136.713C201.533 134.387 202.934 132.369 204.738 130.66C206.541 128.975 208.678 127.67 211.122 126.744C213.567 125.818 216.225 125.367 219.121 125.367C222.491 125.367 225.529 125.961 228.188 127.124C230.846 128.287 233.077 129.996 234.857 132.274L228.259 138.232C227.072 136.831 225.767 135.763 224.343 135.051C222.918 134.315 221.352 133.959 219.643 133.959C218.148 133.959 216.771 134.197 215.513 134.695C214.255 135.194 213.187 135.882 212.309 136.808C211.431 137.733 210.719 138.849 210.22 140.131C209.722 141.412 209.461 142.86 209.461 144.427C209.461 145.993 209.722 147.417 210.22 148.723C210.719 150.004 211.431 151.12 212.309 152.045C213.187 152.971 214.279 153.683 215.513 154.158C216.771 154.656 218.148 154.894 219.643 154.894C221.352 154.894 222.918 154.538 224.343 153.802C225.767 153.066 227.072 151.998 228.259 150.55L234.857 156.508C233.077 158.786 230.846 160.495 228.188 161.682C225.529 162.845 222.491 163.438 219.121 163.438Z" fill="#22272E"/>
<path d="M234.478 162.703L250.641 126.103H260.847L277.058 162.703H266.282L253.632 131.159H257.714L245.063 162.703H234.478ZM243.331 155.558L245.989 147.963H263.885L266.543 155.558H243.331Z" fill="#22272E"/>
<path d="M146.207 161.279C146.872 160.116 147.845 159.214 149.103 158.597C150.669 157.837 152.568 157.6 154.704 157.813V152.971H160.306L165.599 160.733H169.634V162.703H178.036L170.156 151.191C172.387 150.147 174.143 148.675 175.377 146.8C176.683 144.807 177.347 142.409 177.347 139.585C177.347 136.832 176.683 134.434 175.377 132.393C174.072 130.352 172.197 128.785 169.752 127.717C167.308 126.649 164.412 126.103 161.065 126.103H144.38V162.703H145.661C145.804 162.18 145.97 161.706 146.207 161.279ZM165.29 135.692C166.358 136.642 166.904 137.947 166.904 139.585C166.904 141.294 166.358 142.623 165.29 143.572C164.222 144.522 162.584 144.973 160.424 144.973H154.728V134.244H160.424C162.584 134.268 164.222 134.743 165.29 135.692Z" fill="#22272E"/>
<path d="M87.4158 155.558L90.0741 162.18C90.5726 161.516 91.1422 160.899 91.8068 160.353C92.8511 159.498 94.1565 158.834 95.6756 158.335C96.6725 158.027 97.7168 157.813 98.8323 157.718L84.8287 126.103H74.6227L58.4592 162.703H69.0213L71.8932 155.535H87.4158V155.558ZM74.9787 147.963L79.6782 136.262L84.3778 147.963H74.9787Z" fill="#22272E"/>
<path d="M91.6643 115.233H81.6719L74.7175 123.136H81.7193L91.6643 115.233Z" fill="#22272E"/>
<path d="M137.283 147.275C136.215 145.779 134.72 144.64 132.797 143.857C132.583 143.786 132.37 143.715 132.156 143.643C133.628 142.884 134.815 141.887 135.645 140.653C136.618 139.229 137.117 137.567 137.117 135.692C137.117 132.868 135.93 130.565 133.557 128.785C131.183 127.005 127.575 126.127 122.733 126.127H104.125V157.908C105.407 158.098 106.712 158.383 108.065 158.786L109.703 159.285L108.469 162.75H123.801C128.762 162.75 132.512 161.872 135.076 160.092C137.639 158.311 138.921 155.843 138.921 152.71C138.897 150.574 138.351 148.794 137.283 147.275ZM121.428 133.58C123.161 133.58 124.466 133.865 125.344 134.434C126.222 135.004 126.65 135.906 126.65 137.116C126.65 138.255 126.222 139.134 125.344 139.727C124.466 140.32 123.161 140.629 121.428 140.629H114.308V133.58H121.428ZM127.077 154.324C126.175 154.941 124.798 155.25 122.995 155.25H114.308V147.821H122.995C124.798 147.821 126.175 148.129 127.077 148.746C127.979 149.363 128.43 150.289 128.43 151.547C128.43 152.781 127.979 153.707 127.077 154.324Z" fill="#22272E"/>
<path d="M126.531 179.317C125.463 179.317 124.466 178.89 123.706 178.154C122.971 177.418 122.543 176.398 122.543 175.329C122.543 174.261 122.971 173.264 123.706 172.505C124.442 171.769 125.463 171.342 126.531 171.342C127.599 171.342 128.596 171.769 129.355 172.505C130.091 173.241 130.518 174.261 130.518 175.329C130.518 176.398 130.091 177.394 129.355 178.154C128.596 178.913 127.575 179.317 126.531 179.317ZM134.933 176.801C134.981 176.445 135.004 176.065 135.004 175.709C135.004 175.353 134.981 174.973 134.933 174.57L137.33 172.719C137.544 172.552 137.591 172.244 137.473 171.983L135.194 168.067C135.052 167.829 134.743 167.711 134.506 167.829L131.681 168.968C131.088 168.518 130.471 168.138 129.759 167.853L129.332 164.839C129.308 164.696 129.237 164.578 129.142 164.506C129.047 164.411 128.904 164.364 128.762 164.364H124.229C123.944 164.364 123.706 164.578 123.659 164.839L123.232 167.853C122.52 168.138 121.903 168.518 121.309 168.968L118.485 167.829C118.247 167.734 117.939 167.829 117.796 168.067L115.518 171.983C115.376 172.22 115.447 172.529 115.66 172.719L118.058 174.57C118.01 174.95 117.986 175.329 117.986 175.709C117.986 176.089 118.01 176.445 118.058 176.801L115.66 178.676C115.447 178.842 115.376 179.151 115.518 179.412L117.796 183.328C117.939 183.565 118.247 183.66 118.485 183.565L121.309 182.426C121.903 182.877 122.52 183.257 123.232 183.542L123.683 186.556C123.73 186.817 123.968 187.031 124.252 187.031H128.786C129.071 187.031 129.308 186.817 129.355 186.556L129.783 183.542C130.495 183.257 131.112 182.877 131.705 182.426L134.53 183.565C134.767 183.66 135.076 183.565 135.218 183.328L137.496 179.412C137.639 179.174 137.568 178.866 137.354 178.676L134.933 176.801Z" fill="#22272E"/>
<path d="M69.7806 88.3413C91.2391 88.3413 108.635 70.9458 108.635 49.4872C108.635 28.0287 91.2391 10.6332 69.7806 10.6332C48.3221 10.6332 30.9265 28.0287 30.9265 49.4872C30.9265 70.9458 48.3221 88.3413 69.7806 88.3413Z" fill="#EA6D18"/>
</svg>
