<svg width="343" height="229" viewBox="0 0 343 229" fill="none" xmlns="http://www.w3.org/2000/svg">
<path d="M12.1703 228.623C9.89691 228.623 7.85889 228.111 6.05617 227.086C4.25345 226.061 2.83702 224.639 1.8069 222.815C0.776779 220.991 0.261719 218.889 0.261719 216.508C0.261719 214.097 0.776779 211.986 1.8069 210.18C2.83702 208.373 4.25345 206.965 6.05617 205.953C7.85889 204.942 9.89691 204.438 12.1703 204.438C14.2616 204.438 16.1309 204.906 17.7827 205.838C19.4345 206.774 20.7532 208.135 21.7345 209.928C22.7202 211.721 23.213 213.911 23.213 216.504C23.213 219.066 22.7291 221.252 21.7567 223.058C20.7887 224.864 19.4744 226.247 17.8271 227.196C16.1753 228.15 14.2883 228.623 12.1703 228.623ZM12.3967 225.774C14.0929 225.774 15.6159 225.39 16.9657 224.622C18.3155 223.853 19.3767 222.767 20.1493 221.367C20.9219 219.967 21.3082 218.346 21.3082 216.508C21.3082 214.64 20.9219 213.011 20.1493 211.628C19.3767 210.242 18.3155 209.164 16.9657 208.395C15.6159 207.627 14.0929 207.243 12.3967 207.243C10.7317 207.243 9.23089 207.627 7.89884 208.395C6.56679 209.164 5.50557 210.242 4.71522 211.628C3.92488 213.015 3.53414 214.64 3.53414 216.508C3.53414 218.346 3.92931 219.967 4.71522 221.367C5.50115 222.767 6.56234 223.853 7.89884 224.622C9.23089 225.39 10.7317 225.774 12.3967 225.774ZM21.397 228.398V221.256L21.7167 216.464L21.2638 211.673V194.854H24.4918V228.398H21.397Z" fill="white"/>
<path d="M47.9364 228.623C45.4497 228.623 43.2696 228.102 41.3915 227.064C39.5133 226.026 38.0436 224.595 36.9823 222.771C35.9213 220.947 35.3928 218.863 35.3928 216.509C35.3928 214.155 35.8991 212.079 36.9159 210.273C37.9326 208.466 39.3223 207.04 41.0986 206.002C42.8701 204.964 44.8637 204.443 47.0749 204.443C49.3173 204.443 51.3109 204.946 53.0515 205.958C54.792 206.969 56.164 208.382 57.163 210.206C58.1621 212.03 58.6639 214.133 58.6639 216.513C58.6639 216.663 58.6548 216.822 58.6416 216.99C58.6238 217.158 58.6194 217.33 58.6194 217.511H37.8483V215.117H56.8922L55.6178 216.067C55.6178 214.349 55.2449 212.821 54.5034 211.478C53.7619 210.135 52.754 209.089 51.4797 208.338C50.2054 207.583 48.7357 207.207 47.0704 207.207C45.432 207.207 43.9624 207.583 42.6615 208.338C41.3606 209.093 40.3435 210.144 39.6153 211.505C38.8872 212.86 38.5231 214.415 38.5231 216.16V216.659C38.5231 218.465 38.9228 220.055 39.7266 221.428C40.53 222.802 41.6491 223.871 43.0875 224.639C44.5262 225.408 46.1691 225.792 48.0208 225.792C49.4772 225.792 50.8315 225.536 52.0878 225.024C53.3445 224.511 54.4279 223.729 55.3381 222.674L57.1542 224.754C56.0929 226.022 54.7698 226.984 53.1757 227.647C51.5951 228.292 49.8457 228.623 47.9364 228.623Z" fill="white"/>
<path d="M97.0714 190.248C99.9841 190.248 103.114 190.752 106.471 191.759L105.006 195.866C101.809 194.947 99.0429 194.488 96.6984 194.488C94.0698 194.488 91.8454 195.04 90.0293 196.144C88.2089 197.248 87.2986 198.675 87.2986 200.424C87.2986 201.395 87.5916 202.261 88.1776 203.021C88.7639 203.781 89.5363 204.399 90.4955 204.876C91.4545 205.353 92.5468 205.825 93.7724 206.293C94.9978 206.761 96.2455 207.19 97.5154 207.578C98.7853 207.967 100.033 208.462 101.258 209.063C102.484 209.663 103.576 210.321 104.535 211.037C105.495 211.752 106.267 212.684 106.853 213.832C107.439 214.981 107.732 216.279 107.732 217.728C107.732 218.735 107.572 219.737 107.253 220.735C106.933 221.733 106.4 222.723 105.654 223.703C104.908 224.684 103.985 225.545 102.884 226.287C101.782 227.029 100.393 227.629 98.7142 228.089C97.036 228.548 95.1665 228.778 93.1106 228.778C91.0505 228.778 89.1545 228.566 87.4273 228.142C85.6956 227.718 83.7553 227.082 81.6106 226.234L83.1558 221.861C87.596 223.504 91.0992 224.326 93.6747 224.326C96.3742 224.326 98.5676 223.787 100.264 222.71C101.96 221.632 102.808 220.192 102.808 218.39C102.808 217.189 102.431 216.151 101.676 215.276C100.921 214.402 99.9443 213.695 98.7452 213.157C97.5464 212.618 96.219 212.114 94.7626 211.646C93.3062 211.178 91.8542 210.675 90.4067 210.136C88.9592 209.597 87.6359 208.974 86.4371 208.268C85.2383 207.561 84.2614 206.607 83.5066 205.406C82.7518 204.204 82.3745 202.791 82.3745 201.166C82.3745 199.717 82.725 198.33 83.4267 197.006C84.1283 195.681 85.1008 194.519 86.3438 193.521C87.5872 192.523 89.1412 191.728 91.006 191.136C92.8621 190.544 94.8868 190.248 97.0714 190.248Z" fill="white"/>
<path d="M171.693 194.007C170.645 194.007 169.74 194.152 168.976 194.444C168.212 194.735 167.639 195.071 167.257 195.451C166.876 195.831 166.574 196.29 166.352 196.829C166.13 197.367 165.997 197.809 165.952 198.154C165.908 198.498 165.885 198.856 165.885 199.227V202.062H174.699V205.481H165.885V228.234H161.463V205.481H157.653V202.062H161.463V199.412C161.463 197.116 161.809 195.367 162.502 194.166C163.195 192.947 164.216 192.01 165.566 191.357C166.916 190.703 168.479 190.376 170.254 190.376C172.155 190.376 174.26 190.721 176.564 191.41L175.898 194.643C174.246 194.219 172.843 194.007 171.693 194.007Z" fill="white"/>
<path d="M199.853 227.779C197.277 228.433 195.27 228.76 193.836 228.76C192.398 228.76 191.181 228.53 190.186 228.071C189.192 227.612 188.437 226.958 187.922 226.11C187.407 225.262 187.038 224.348 186.816 223.367C186.594 222.387 186.483 221.261 186.483 219.989V205.472H182.94V202.053H186.483V194.559H190.853V202.053H198.867V205.472H190.853V219.936C190.853 223.557 192.291 225.363 195.168 225.363C195.684 225.363 197.042 225.178 199.245 224.807L199.853 227.779Z" fill="white"/>
<path d="M208.498 202.062H213.16L220.295 224.021L227.058 202.062H231.347L238.376 223.994L245.511 202.062H250.174L240.561 228.23H236.165L229.163 207.013L222.24 228.23H217.844L208.498 202.062Z" fill="white"/>
<path d="M270.452 201.558C272.405 201.558 274.061 201.784 275.421 202.234C276.778 202.685 277.827 203.343 278.564 204.208C279.301 205.074 279.83 206.037 280.148 207.097C280.468 208.157 280.63 209.376 280.63 210.754V228.234H277.538L276.525 225.849C274.377 227.792 271.908 228.764 269.123 228.764C266.639 228.764 264.532 228.017 262.816 226.525C261.091 225.032 260.23 223.287 260.23 221.296C260.23 220.236 260.426 219.282 260.815 218.434C261.206 217.586 261.771 216.879 262.508 216.314C263.245 215.749 264.084 215.267 265.027 214.87C265.967 214.472 267.063 214.167 268.316 213.955C269.569 213.744 270.824 213.593 272.085 213.505C273.348 213.417 274.733 213.373 276.241 213.373V211.306C276.241 210.705 276.22 210.184 276.176 209.742C276.132 209.301 275.983 208.771 275.736 208.152C275.486 207.534 275.15 207.026 274.723 206.628C274.296 206.231 273.658 205.887 272.806 205.595C271.952 205.304 270.941 205.158 269.767 205.158C267.957 205.158 265.613 205.555 262.74 206.35L261.914 203.17C264.818 202.097 267.662 201.558 270.452 201.558ZM276.233 216.654H274.608C273.595 216.654 272.715 216.672 271.97 216.707C271.225 216.742 270.35 216.844 269.345 217.012C268.342 217.18 267.522 217.413 266.881 217.714C266.243 218.014 265.696 218.451 265.243 219.026C264.79 219.6 264.563 220.284 264.563 221.079C264.563 222.192 265.128 223.181 266.256 224.047C267.384 224.913 268.73 225.346 270.293 225.346C272.582 225.346 274.564 224.453 276.233 222.669V216.654Z" fill="white"/>
<path d="M299.283 204.019C301.502 202.376 303.952 201.554 306.63 201.554C308.479 201.554 310.156 201.899 311.661 202.588L310.33 206.059C308.945 205.529 307.505 205.264 306.012 205.264C303.793 205.264 301.707 205.874 299.757 207.092V228.23H295.392V202.062H298.457L299.283 204.019Z" fill="white"/>
<path d="M333.223 201.558C334.502 201.558 335.65 201.713 336.674 202.022C337.695 202.331 338.541 202.724 339.216 203.201C339.893 203.678 340.474 204.301 340.963 205.07C341.45 205.838 341.823 206.58 342.081 207.296C342.338 208.011 342.539 208.872 342.68 209.879C342.823 210.886 342.911 211.761 342.948 212.502C342.982 213.244 343 214.119 343 215.126V217.193H324.92C324.92 218.147 325.136 219.096 325.571 220.041C326.006 220.987 326.621 221.852 327.41 222.638C328.202 223.424 329.241 224.065 330.528 224.559C331.814 225.054 333.241 225.301 334.804 225.301C336.65 225.301 338.648 224.983 340.794 224.347L341.565 227.315C338.705 228.287 335.906 228.773 333.153 228.773C331.215 228.773 329.499 228.517 328.001 228.004C326.501 227.492 325.293 226.825 324.379 226.004C323.464 225.182 322.712 224.197 322.126 223.049C321.54 221.901 321.136 220.757 320.915 219.617C320.693 218.478 320.581 217.272 320.581 216C320.581 214.039 320.821 212.246 321.3 210.621C321.779 208.996 322.428 207.631 323.246 206.527C324.063 205.423 325.017 204.491 326.11 203.731C327.202 202.972 328.348 202.42 329.546 202.075C330.731 201.731 331.963 201.558 333.223 201.558ZM332.291 205.317C330.728 205.317 329.382 205.745 328.254 206.602C327.126 207.459 326.306 208.523 325.79 209.795C325.274 211.067 325.017 212.436 325.017 213.903H338.76C338.765 208.179 336.606 205.317 332.291 205.317Z" fill="white"/>
<path d="M14.3995 195.12H0V144.489H39.8508V155.628H14.3995V195.12ZM13.3073 166.695H36.7958V177.763H13.3073V166.695Z" fill="#EA6D18"/>
<path d="M211.899 195.12V144.489H226.299V195.12H211.899Z" fill="#EA6D18"/>
<path d="M261.928 196.136C257.904 196.136 254.192 195.495 250.8 194.219C247.408 192.942 244.446 191.132 241.928 188.795C239.406 186.459 237.444 183.672 236.041 180.439C234.633 177.211 233.932 173.665 233.932 169.809C233.932 165.953 234.633 162.407 236.041 159.179C237.444 155.95 239.411 153.163 241.928 150.822C244.45 148.486 247.408 146.675 250.8 145.399C254.192 144.123 257.9 143.482 261.928 143.482C266.629 143.482 270.835 144.29 274.541 145.907C278.249 147.523 281.338 149.895 283.812 153.031L274.648 161.276C273.002 159.346 271.181 157.876 269.197 156.864C267.207 155.853 265.027 155.345 262.652 155.345C260.563 155.345 258.65 155.685 256.905 156.356C255.16 157.032 253.668 158.008 252.434 159.284C251.199 160.561 250.227 162.093 249.526 163.877C248.824 165.662 248.469 167.64 248.469 169.809C248.469 171.977 248.819 173.956 249.526 175.74C250.227 177.524 251.199 179.057 252.434 180.333C253.668 181.61 255.16 182.59 256.905 183.262C258.65 183.937 260.563 184.273 262.652 184.273C265.027 184.273 267.207 183.765 269.197 182.754C271.184 181.742 273.002 180.245 274.648 178.271L283.812 186.516C281.338 189.652 278.249 192.037 274.541 193.675C270.835 195.314 266.629 196.136 261.928 196.136Z" fill="#EA6D18"/>
<path d="M283.302 195.12L305.773 144.489H319.956L342.497 195.12H327.517L309.921 151.507H315.591L297.993 195.12H283.302ZM295.592 185.213L299.301 174.724H324.17L327.876 185.213H295.592Z" fill="#EA6D18"/>
<path d="M160.57 193.141C161.485 191.533 162.844 190.279 164.611 189.426C166.796 188.366 169.433 188.035 172.412 188.353V181.667H180.201L187.567 192.403H193.166V195.119H204.848L193.859 179.189C196.971 177.732 199.391 175.718 201.105 173.13C202.925 170.383 203.831 167.053 203.831 163.148C203.831 159.341 202.921 156.025 201.105 153.202C199.289 150.38 196.683 148.225 193.286 146.728C189.893 145.235 185.866 144.484 181.213 144.484H158.017V195.115H159.785C159.989 194.395 160.238 193.719 160.57 193.141ZM187.101 157.765C188.601 159.09 189.356 160.887 189.356 163.153C189.356 165.516 188.606 167.348 187.101 168.651C185.6 169.954 183.344 170.603 180.338 170.603H172.412V155.773H180.338C183.344 155.773 185.6 156.435 187.101 157.765Z" fill="#EA6D18"/>
<path d="M78.8265 185.213L82.525 194.382C83.2133 193.463 84.0126 192.611 84.9494 191.86C86.4058 190.69 88.2219 189.754 90.3442 189.082C91.725 188.645 93.195 188.371 94.731 188.221L75.261 144.494H61.079L38.6072 195.124H53.2952L57.2914 185.213H78.8265ZM61.5319 174.724L68.0635 158.534L74.5948 174.724H61.5319Z" fill="#EA6D18"/>
<path d="M84.714 129.447H70.825L61.1543 140.369H70.9005L84.714 129.447Z" fill="#EA6D18"/>
<path d="M148.16 173.783C146.681 171.712 144.594 170.131 141.908 169.044C141.619 168.93 141.304 168.841 141.002 168.735C143.054 167.675 144.692 166.306 145.869 164.593C147.227 162.614 147.907 160.326 147.907 157.721C147.907 153.816 146.259 150.632 142.96 148.172C139.661 145.712 134.644 144.484 127.908 144.484H102.022V188.424C103.793 188.689 105.618 189.086 107.497 189.647L109.761 190.327L108.052 195.115H129.365C136.247 195.115 141.473 193.887 145.034 191.427C148.595 188.967 150.376 185.567 150.376 181.23C150.38 178.341 149.638 175.859 148.16 173.783ZM126.092 154.832C128.516 154.832 130.332 155.23 131.545 156.025C132.757 156.82 133.361 158.061 133.361 159.748C133.361 161.338 132.752 162.543 131.545 163.365C130.332 164.186 128.516 164.597 126.092 164.597H116.204V154.832H126.092ZM133.942 183.513C132.681 184.356 130.79 184.78 128.272 184.78H116.199V174.507H128.272C130.794 174.507 132.681 174.932 133.942 175.775C135.203 176.619 135.834 177.908 135.834 179.644C135.834 181.38 135.203 182.669 133.942 183.513Z" fill="#EA6D18"/>
<path d="M133.184 218.099C131.714 218.099 130.302 217.516 129.258 216.482C128.219 215.449 127.633 214.044 127.633 212.578C127.633 211.116 128.219 209.712 129.258 208.674C130.297 207.64 131.709 207.057 133.184 207.057C134.653 207.057 136.065 207.64 137.109 208.674C138.148 209.707 138.734 211.112 138.734 212.578C138.734 214.04 138.148 215.444 137.109 216.482C136.065 217.52 134.658 218.099 133.184 218.099ZM144.897 214.605C144.959 214.102 145.008 213.603 145.008 213.086C145.008 212.569 144.959 212.053 144.897 211.518L148.222 208.961C148.52 208.727 148.6 208.303 148.413 207.958L145.261 202.53C145.07 202.186 144.648 202.045 144.297 202.186L140.372 203.754C139.551 203.144 138.703 202.61 137.708 202.217L137.126 198.061C137.095 197.876 136.997 197.708 136.855 197.589C136.709 197.469 136.527 197.403 136.34 197.403H130.035C129.64 197.403 129.312 197.686 129.245 198.061L128.663 202.217C127.669 202.61 126.821 203.14 125.999 203.754L122.074 202.186C121.728 202.045 121.301 202.186 121.111 202.53L117.958 207.958C117.754 208.303 117.847 208.727 118.149 208.961L121.475 211.518C121.412 212.053 121.364 212.569 121.364 213.086C121.364 213.603 121.412 214.106 121.475 214.605L118.149 217.206C117.851 217.441 117.754 217.865 117.958 218.209L121.111 223.637C121.301 223.981 121.723 224.11 122.074 223.981L125.999 222.396C126.821 223.023 127.669 223.558 128.663 223.951L129.245 228.106C129.307 228.482 129.64 228.764 130.035 228.764H136.34C136.736 228.764 137.064 228.482 137.131 228.106L137.712 223.951C138.707 223.544 139.555 223.028 140.377 222.396L144.302 223.981C144.648 224.105 145.074 223.981 145.265 223.637L148.418 218.209C148.609 217.865 148.529 217.441 148.227 217.206L144.897 214.605Z" fill="white"/>
<mask id="mask0_101_128" style="mask-type:luminance" maskUnits="userSpaceOnUse" x="82" y="0" width="179" height="124">
<path d="M260.283 0H82.7168V123.962H260.283V0Z" fill="white"/>
</mask>
<g mask="url(#mask0_101_128)">
<path d="M260.039 80.0644C259.833 74.4109 259.68 68.7577 259.393 63.1089C259.157 58.4312 258.867 53.7538 258.417 49.0987C257.913 43.8705 256.847 38.7722 254.836 33.9067C252.795 28.9604 249.646 25.1379 245.072 22.6358C242.188 21.0557 239.133 20.729 236.006 21.4183C233.361 22.0002 231.094 23.446 229.1 25.3438C226.691 27.64 224.812 30.393 223.264 33.3606C220.786 38.1007 218.433 42.9082 216.045 47.6975C214.355 51.0861 212.644 54.461 210.5 57.5673C209.277 59.3399 207.916 60.9826 206.187 62.2584C204.095 63.7982 201.844 64.192 199.401 63.4399C196.658 62.5941 194.318 60.9916 192.085 59.1744C188.644 56.3723 185.654 53.0689 182.509 49.9313C179.249 46.6771 176.074 43.3245 172.471 40.4731C170.721 39.09 168.809 38.0023 166.665 37.5189C163.867 36.8922 161.286 37.6308 158.878 39.1885C156.336 40.8311 154.274 43.0514 152.22 45.2759C150.526 47.1112 148.913 49.036 147.193 50.8442C143.598 54.6221 139.606 57.8315 134.9 59.9487C132.534 61.0095 130.056 61.654 127.472 61.7929C123.779 61.9898 120.438 60.8393 117.272 58.9415C114.08 57.0303 111.174 54.6983 108.256 52.3751C106.485 50.9651 104.628 49.6849 102.638 48.6332C101.423 47.9884 100.161 47.4915 98.7962 47.3752C96.8239 47.2053 95.1893 48.0467 93.7772 49.4075C91.9633 51.1532 90.7436 53.3375 89.6698 55.6247C87.2438 60.7857 85.883 66.296 84.7579 71.8865C83.8763 76.2686 83.2388 80.6955 82.8538 85.1537C82.7895 85.8923 82.7468 86.6308 82.7083 87.3694V98.6805C82.9093 101.411 83.333 104.106 84.1204 106.738C85.1215 110.09 86.5164 113.241 88.8013 115.878C91.3257 118.796 94.5091 120.555 98.0388 121.737C101.984 123.057 106.053 123.523 110.16 123.742C115.834 124.047 121.503 123.827 127.164 123.496C132.769 123.169 138.366 122.646 143.971 122.247C147.462 122.001 150.962 121.831 154.458 121.625C161.813 121.191 169.172 121.101 176.532 121.195C182.184 121.267 187.84 121.401 193.488 121.625C199.136 121.853 204.784 122.185 210.423 122.552C214.894 122.843 219.353 123.335 223.824 123.59C227.568 123.805 231.32 123.801 235.068 123.917C237.811 124.002 240.541 123.948 243.258 123.532C245.568 123.178 247.806 122.543 249.924 121.468C253.856 119.472 256.376 116.191 257.81 111.925C259.098 108.098 259.645 104.119 259.953 100.091C260.466 93.4123 260.279 86.7337 260.035 80.051L260.039 80.0644Z" fill="#F2F2F2"/>
<path d="M121.439 50.5802C133.845 50.5802 143.902 40.0591 143.902 27.0805C143.902 14.1021 133.845 3.58093 121.439 3.58093C109.033 3.58093 98.9758 14.1021 98.9758 27.0805C98.9758 40.0591 109.033 50.5802 121.439 50.5802Z" fill="#EA6D18"/>
<path d="M162.515 29.0948C170.195 29.0948 176.421 22.5817 176.421 14.5474C176.421 6.51308 170.195 0 162.515 0C154.835 0 148.609 6.51308 148.609 14.5474C148.609 22.5817 154.835 29.0948 162.515 29.0948Z" fill="#267A7A"/>
<path d="M193.749 25.0663C199.539 25.0663 204.232 20.1564 204.232 14.0998C204.232 8.04318 199.539 3.1333 193.749 3.1333C187.96 3.1333 183.266 8.04318 183.266 14.0998C183.266 20.1564 187.96 25.0663 193.749 25.0663Z" fill="#D94E4E"/>
<path d="M218.779 27.7519C222.797 27.7519 226.053 24.3452 226.053 20.1426C226.053 15.9401 222.797 12.5332 218.779 12.5332C214.762 12.5332 211.506 15.9401 211.506 20.1426C211.506 24.3452 214.762 27.7519 218.779 27.7519Z" fill="#4B4BEB"/>
</g>
</svg>
