<?xml version="1.0" encoding="utf-8"?>
<!-- Generator: Adobe Illustrator 27.3.1, SVG Export Plug-In . SVG Version: 6.00 Build 0)  -->
<svg version="1.1" id="Camada_1" xmlns="http://www.w3.org/2000/svg" xmlns:xlink="http://www.w3.org/1999/xlink" x="0px" y="0px"
	 viewBox="0 0 500 500" style="enable-background:new 0 0 500 500;" xml:space="preserve">
<style type="text/css">
	.st0{fill:#EA6C16;}
	.st1{fill:#287A7A;}
	.st2{fill:#D94E4E;}
	.st3{fill:#4652A0;}
	.st4{fill:#F2F2F2;}
</style>
<path d="M70.78,205.29"/>
<path d="M105.55,418.32"/>
<path d="M347.7,407.04"/>
<g>
	<g>
		<circle class="st0" cx="105.86" cy="116.87" r="74.96"/>
		<circle class="st1" cx="234.75" cy="69.88" r="46.99"/>
		<circle class="st2" cx="325.6" cy="74.8" r="34.08"/>
		<circle class="st3" cx="389.94" cy="99.84" r="21.52"/>
	</g>
	<path class="st4" d="M490.89,211.83c-14.03-59.73-46.03-69.14-78.62-59.73c-39.29,11.34-49.17,124.6-87.82,115.78
		c-52.36-11.9-49.32-88.94-95.21-88.94c-45.16,0-52.72,75.93-96.65,80.82c-40.71,9.15-61.74-45.51-92.46-45.51
		C9.42,214.24,0,317.42,0,371.91c0,6.93,0,13.6,0.12,19.89C0.05,393.3,0,394.81,0,396.33c0,7.26,0.67,14.34,2,21.1
		c0.8,4.86,1.91,9.13,3.47,12.68c9.74,27.2,32.92,46.39,72.87,44.81c47.91-1.89,95.59-7.06,136.02-8.39
		c2.24,0.05,4.89-0.02,7.98-0.21c2.49-0.05,4.95-0.09,7.38-0.1c0.66,0,1.29-0.02,1.91-0.05c42.81,0.45,175.68,11.42,187.19,10.93
		c12.81-0.55,33.22-1.23,49.85-16.1C513.62,425.11,499.53,248.62,490.89,211.83z M161,423.03h-35.64l16.29-132.37h90.83l-3.87,30.55
		h-55.19l-2.55,21.48h46.43l-3.46,27.7h-46.43L161,423.03z M230.24,424.86c-11.2,0-18.43-7.84-18.43-18.53
		c0-12.22,9.37-20.97,21.08-20.97c11.2,0,18.43,7.84,18.43,18.53C251.32,416.1,241.95,424.86,230.24,424.86z M378.19,335.66
		l-32.58,3.46c-0.1-14.56-7.33-20.87-21.08-20.87c-8.15,0-14.97,2.24-14.97,9.37c0,8.25,8.96,10.9,21.59,14.36
		c28.1,7.74,43.58,15.68,43.58,38.39c0,27.29-22.3,44.5-56.92,44.5c-30.04,0-53.97-12.93-52.44-46.33l34.42-3.46
		c0,14.56,7.13,20.16,21.28,20.16c11.3,0,16.8-3.67,16.8-9.88c0-5.91-4.58-8.66-22.2-12.73c-29.02-6.62-42.46-17.31-42.46-39.71
		c0-27.19,20.16-44.09,54.88-44.09C361.29,288.83,378.8,304.2,378.19,335.66z"/>
</g>
</svg>
