<?xml version="1.0" encoding="utf-8"?>
<!-- Generator: Adobe Illustrator 27.3.1, SVG Export Plug-In . SVG Version: 6.00 Build 0)  -->
<svg version="1.1" id="Camada_1" xmlns="http://www.w3.org/2000/svg" xmlns:xlink="http://www.w3.org/1999/xlink" x="0px" y="0px"
	 viewBox="0 0 500 500" style="enable-background:new 0 0 500 500;" xml:space="preserve">
<style type="text/css">
	.st0{fill:#EA6C16;}
	.st1{fill:#287A7A;}
	.st2{fill:#D94E4E;}
	.st3{fill:#4652A0;}
	.st4{fill:#F2F2F2;}
</style>
<path d="M-636.56-236.21"/>
<path d="M-601.79-23.18"/>
<path d="M-359.64-34.45"/>
<g>
	<g>
		<circle class="st0" cx="-601.48" cy="-324.62" r="74.96"/>
		<circle class="st1" cx="-472.59" cy="-371.62" r="46.99"/>
		<circle class="st2" cx="-381.75" cy="-366.7" r="34.08"/>
		<circle class="st3" cx="-317.4" cy="-341.65" r="21.52"/>
	</g>
	<path class="st4" d="M-216.45-229.67c-14.03-59.73-46.03-69.14-78.62-59.73c-39.29,11.34-49.17,124.6-87.82,115.78
		c-52.36-11.9-49.32-88.94-95.21-88.94c-45.16,0-52.72,75.93-96.65,80.82c-40.71,9.15-61.74-45.51-92.46-45.51
		c-30.72,0-40.14,103.18-40.14,157.67c0,6.93,0,13.6,0.12,19.89c-0.08,1.5-0.12,3.01-0.12,4.54c0,7.26,0.67,14.34,2,21.1
		c0.8,4.86,1.91,9.13,3.47,12.68c9.74,27.2,32.92,46.39,72.87,44.81c47.91-1.89,95.59-7.06,136.02-8.39
		c2.24,0.05,4.89-0.02,7.98-0.21c2.49-0.05,4.95-0.09,7.38-0.1c0.66,0,1.29-0.02,1.91-0.05c42.81,0.45,175.68,11.42,187.19,10.93
		c12.81-0.55,33.22-1.23,49.85-16.1C-193.72-16.38-207.81-192.87-216.45-229.67z M-546.34-18.47h-35.64l16.29-132.37h90.83
		l-3.87,30.55h-55.19l-2.55,21.48h46.43l-3.46,27.7h-46.43L-546.34-18.47z M-477.1-16.63c-11.2,0-18.43-7.84-18.43-18.53
		c0-12.22,9.37-20.97,21.08-20.97c11.2,0,18.43,7.84,18.43,18.53C-456.02-25.39-465.39-16.63-477.1-16.63z M-329.15-105.83
		l-32.58,3.46c-0.1-14.56-7.33-20.87-21.08-20.87c-8.15,0-14.97,2.24-14.97,9.37c0,8.25,8.96,10.9,21.59,14.36
		c28.1,7.74,43.58,15.68,43.58,38.39c0,27.29-22.3,44.5-56.92,44.5c-30.04,0-53.97-12.93-52.44-46.33l34.42-3.46
		c0,14.56,7.13,20.16,21.28,20.16c11.3,0,16.8-3.67,16.8-9.88c0-5.91-4.58-8.66-22.2-12.73c-29.02-6.62-42.46-17.31-42.46-39.71
		c0-27.19,20.16-44.09,54.88-44.09C-346.05-152.67-328.54-137.29-329.15-105.83z"/>
</g>
<path class="st4" d="M67.82,88.84v377.41h364.35V88.84H67.82z"/>
<g>
	<path class="st0" d="M187.31,81.84c-3.45-27.12-26.6-48.09-54.66-48.09c-30.44,0-55.12,24.68-55.12,55.12
		c0,29.71,23.51,53.92,52.95,55.07v-12.73c-22.4-1.13-40.22-19.66-40.22-42.34c0-23.41,18.98-42.4,42.4-42.4
		c21.02,0,38.46,15.3,41.8,35.37H187.31z"/>
	<path class="st0" d="M175.04,88.87"/>
	<path class="st0" d="M187.77,88.84"/>
</g>
<path class="st1" d="M210.36,33.85c-12.77,0-24.52,4.36-33.87,11.65c2.98,3.02,5.64,6.35,7.95,9.93c7.17-5.55,16.15-8.85,25.92-8.85
	c20.98,0,38.4,15.25,41.79,35.27h12.86C261.51,54.77,238.39,33.85,210.36,33.85z"/>
<path class="st1" d="M167.97,88.97c0-1.62,0.1-3.22,0.28-4.79c-0.88-6.89-3.71-13.19-7.94-18.29c-3.24,7.02-5.07,14.84-5.07,23.08
	c0,29.71,23.51,53.92,52.95,55.07v-12.73C185.78,130.18,167.97,111.65,167.97,88.97z"/>
<path class="st2" d="M344.3,81.84c-3.45-27.12-26.6-48.09-54.66-48.09c-12.77,0-24.52,4.36-33.87,11.65
	c2.98,3.02,5.64,6.35,7.95,9.93c7.17-5.55,16.15-8.85,25.92-8.85c21.02,0,38.46,15.3,41.8,35.37h12.11H344.3z"/>
<path class="st2" d="M247.24,88.87c0-1.62,0.1-3.22,0.28-4.79c-0.88-6.89-3.71-13.19-7.94-18.29c-3.24,7.02-5.07,14.84-5.07,23.08
	c0,29.71,23.51,53.92,52.95,55.07v-12.73C265.06,130.08,247.24,111.56,247.24,88.87z"/>
<path class="st3" d="M420.07,81.84h3.51c-3.45-27.12-26.6-48.09-54.66-48.09c-12.77,0-24.52,4.36-33.87,11.65
	c2.98,3.02,5.64,6.35,7.95,9.93c7.17-5.55,16.15-8.85,25.92-8.85c21.02,0,38.46,15.3,41.8,35.37h8.61H420.07z"/>
<path class="st3" d="M326.52,88.87c0-1.62,0.1-3.22,0.28-4.79c-0.88-6.89-3.71-13.19-7.94-18.29c-3.24,7.02-5.07,14.84-5.07,23.08
	c0,29.71,23.51,53.92,52.95,55.07v-12.73C344.34,130.08,326.52,111.56,326.52,88.87z"/>
<rect x="93.74" y="227.52" class="st0" width="312.51" height="20"/>
<rect x="93.74" y="276.22" class="st1" width="312.51" height="20"/>
<rect x="93.74" y="324.92" class="st2" width="312.51" height="20"/>
<rect x="93.74" y="373.61" class="st3" width="312.51" height="20"/>
</svg>
