<?xml version="1.0" encoding="utf-8"?>
<!-- Generator: Adobe Illustrator 27.3.1, SVG Export Plug-In . SVG Version: 6.00 Build 0)  -->
<svg version="1.1" id="Camada_1" xmlns="http://www.w3.org/2000/svg" xmlns:xlink="http://www.w3.org/1999/xlink" x="0px" y="0px"
	 viewBox="0 0 500 500" style="enable-background:new 0 0 500 500;" xml:space="preserve">
<style type="text/css">
	.st0{fill:#EA6C16;}
	.st1{fill:#287A7A;}
	.st2{fill:#D94E4E;}
	.st3{fill:#4652A0;}
	.st4{fill:#F2F2F2;}
	.st5{fill:none;stroke:#000000;stroke-width:13;}
	.st6{fill:none;}
	.st7{fill:#131313;}
	.st8{fill:#61615E;}
	.st9{fill:#F2F2F2;stroke:#F1F1F1;stroke-miterlimit:10;}
	.st10{fill:none;stroke:#F2F2F2;stroke-width:10;stroke-miterlimit:10;}
	.st11{fill:#F2F2F2;stroke:#F1F1F1;stroke-width:1;stroke-miterlimit:10;}
	.st12{fill:#F1F1F1;}
</style>
<path d="M-636.6-236.2"/>
<path d="M-601.8-23.2"/>
<path d="M-359.6-34.5"/>
<g>
	<g>
		<circle class="st0" cx="-550.7" cy="-441.8" r="65.8"/>
		<circle class="st1" cx="-437.5" cy="-483.1" r="41.2"/>
		<circle class="st2" cx="-357.8" cy="-478.8" r="29.9"/>
		<circle class="st3" cx="-301.3" cy="-456.8" r="18.9"/>
	</g>
	<path class="st4" d="M-212.7-358.5c-12.3-52.4-40.4-60.7-69-52.4c-34.5,10-43.2,109.4-77.1,101.6c-46-10.5-43.3-78.1-83.6-78.1
		c-39.6,0-46.3,66.7-84.9,71c-35.7,8-54.2-40-81.2-40c-27,0-35.2,90.6-35.2,138.4c0,6.1,0,11.9,0.1,17.5c-0.1,1.3-0.1,2.6-0.1,4
		c0,6.4,0.6,12.6,1.8,18.5c0.7,4.3,1.7,8,3,11.1c8.5,23.9,28.9,40.7,64,39.3c42.1-1.7,83.9-6.2,119.4-7.4c2,0,4.3,0,7-0.2
		c2.2,0,4.4-0.1,6.5-0.1c0.6,0,1.1,0,1.7,0c37.6,0.4,154.2,10,164.3,9.6c11.2-0.5,29.2-1.1,43.8-14.1
		C-192.7-171.2-205.1-326.2-212.7-358.5z M-502.3-173h-31.3l14.3-116.2h79.7l-3.4,26.8h-48.5l-2.2,18.9h40.8l-3,24.3h-40.8
		L-502.3-173z M-441.5-171.4c-9.8,0-16.2-6.9-16.2-16.3c0-10.7,8.2-18.4,18.5-18.4c9.8,0,16.2,6.9,16.2,16.3
		C-423-179.1-431.2-171.4-441.5-171.4z M-311.6-249.7l-28.6,3c-0.1-12.8-6.4-18.3-18.5-18.3c-7.2,0-13.1,2-13.1,8.2
		c0,7.2,7.9,9.6,19,12.6c24.7,6.8,38.3,13.8,38.3,33.7c0,24-19.6,39.1-50,39.1c-26.4,0-47.4-11.4-46-40.7l30.2-3
		c0,12.8,6.3,17.7,18.7,17.7c9.9,0,14.8-3.2,14.8-8.7c0-5.2-4-7.6-19.5-11.2c-25.5-5.8-37.3-15.2-37.3-34.9
		c0-23.9,17.7-38.7,48.2-38.7C-326.5-290.9-311.1-277.4-311.6-249.7z"/>
</g>
<g>
	<g>
		<path class="st5" d="M29.9-511.9"/>
	</g>
	<g>
		<path class="st5" d="M42.6-510.3"/>
	</g>
	<g>
		<path class="st0" d="M29.9-511.9"/>
	</g>
	<g>
		<path class="st0" d="M42.6-510.3"/>
	</g>
	<g>
		<path class="st0" d="M48-516.7c-0.1-27.3-20.5-51-48.3-54.4c-30.2-3.7-57.7,17.7-61.5,47.9c-3.6,29.5,16.7,56.4,45.8,61.1
			l1.6-12.6c-22.1-3.9-37.5-24.5-34.7-47c2.9-23.2,24-39.7,47.3-36.9c20.9,2.6,36.3,19.9,37.2,40.2L48-516.7z"/>
	</g>
	<path class="st1" d="M76.7-561.5c-12.7-1.6-24.9,1.3-35,7.4c2.6,3.4,4.8,7,6.7,10.8c7.8-4.6,17.1-6.8,26.8-5.6
		c20.8,2.6,36.2,19.8,37.1,40.1l12.8,1.6C124.9-534.5,104.6-558.1,76.7-561.5z"/>
	<path class="st1" d="M27.9-512c0.2-1.6,0.5-3.2,0.9-4.7c0-7-2.1-13.5-5.6-19.1c-4.1,6.6-6.9,14.1-7.9,22.3
		C11.6-484.1,32-457.2,61-452.4l1.6-12.6C40.5-468.9,25.1-489.5,27.9-512z"/>
	<path class="st2" d="M203.8-497.4c-0.1-27.3-20.5-51-48.3-54.4c-12.7-1.6-24.9,1.3-35,7.4c2.6,3.4,4.8,7,6.7,10.8
		c7.8-4.6,17.1-6.8,26.8-5.6c20.9,2.6,36.3,19.9,37.1,40.2l12,1.5L203.8-497.4z"/>
	<path class="st2" d="M106.6-502.4c0.2-1.6,0.5-3.2,0.9-4.7c0-6.9-2.1-13.5-5.6-19.1c-4.1,6.6-6.8,14.1-7.9,22.3
		c-3.7,29.5,16.7,56.4,45.8,61.1l1.6-12.6C119.2-459.3,103.8-479.9,106.6-502.4z"/>
	<path class="st3" d="M279-488.1l3.5,0.4c-0.1-27.3-20.5-51-48.3-54.4c-12.7-1.6-24.9,1.3-35,7.4c2.6,3.4,4.8,7,6.7,10.8
		c7.8-4.6,17.1-6.8,26.8-5.6c20.9,2.6,36.3,19.9,37.2,40.2l8.5,1.1L279-488.1z"/>
	<path class="st3" d="M185.3-492.6c0.2-1.6,0.5-3.2,0.9-4.7c0-7-2.1-13.5-5.6-19.1c-4.1,6.6-6.9,14.1-7.9,22.3
		c-3.6,29.5,16.7,56.4,45.8,61.1l1.6-12.6C197.9-449.5,182.5-470.1,185.3-492.6z"/>
	<g>
		
			<rect x="64.6" y="-359.9" transform="matrix(0.1228 -0.9924 0.9924 0.1228 268.2848 -116.7044)" class="st4" width="7" height="299.5"/>
		
			<rect x="70.6" y="-408.2" transform="matrix(0.1228 -0.9924 0.9924 0.1228 321.4998 -153.1549)" class="st4" width="7" height="299.5"/>
		
			<rect x="82.6" y="-504.8" transform="matrix(0.1228 -0.9924 0.9924 0.1228 427.9149 -226.0745)" class="st4" width="7" height="299.5"/>
		<path class="st4" d="M191.7-491.9L191.7-491.9c-2.4,19,10.6,36.5,29.4,39.8l0,0c3.4,0.6,5.7,3.8,5.3,7.2l-1.6,12.6
			c-0.5,3.7-3.9,6.2-7.5,5.6l0,0c-32.8-5.4-55.3-35.4-51.2-68.4v0l-46.1-5.7c-3,2.8-4.3,4.1-7.3,6.8c1.2,15.9,13.2,29.4,29.6,32.2
			l0,0c3.4,0.6,5.8,3.8,5.3,7.2l-1.5,12.3c-0.5,3.7-3.9,6.2-7.5,5.6l0,0c-32.8-5.3-55.3-35-51.3-67.6c0-0.2,0.1-0.4,0.1-0.6l-46-5.7
			c-3.1,3-4.1,3.9-7.3,6.9c1.4,15.8,13.3,29.3,29.5,32.1l0,0c3.4,0.6,5.7,3.8,5.3,7.2l-1.6,12.6c-0.5,3.7-3.9,6.2-7.5,5.6l0,0
			c-32.8-5.4-55.3-35.4-51.2-68.4c0,0,0-0.1,0-0.1l-51.6-6.4c0,0,0,0,0,0c-2.3,19,10.6,36.5,29.4,39.8l0,0c3.4,0.6,5.7,3.8,5.3,7.2
			l-1.6,12.6c-0.5,3.7-3.9,6.2-7.5,5.6l0,0c-32.5-5.3-54.9-34.9-51.3-67.6l0.1-0.7h0c0,0,0,0,0,0l-3.2-0.4v0l-3.6-0.4
			c-3.6-0.4-6.8,2.1-7.2,5.6L-127-157.6c-0.4,3.6,2.1,6.8,5.6,7.2l3.6,0.4l3.2,0.4l352,43.6c3.6,0.4,6.8-2.1,7.2-5.6l44.7-361.7
			c0.4-3.6-2.1-6.8-5.6-7.2L191.7-491.9z M-78.9-294l310.2,38.4c3.6,0.4,6.1,3.7,5.6,7.2l-2.5,19.9c-0.4,3.6-3.7,6.1-7.2,5.6
			L-83-261.3c-3.6-0.4-6.1-3.7-5.6-7.2l2.5-19.9C-85.7-291.9-82.5-294.5-78.9-294z M221.2-174.6L-89-213c-3.6-0.4-6.1-3.7-5.6-7.2
			l2.5-19.9c0.4-3.6,3.7-6.1,7.2-5.6l310.2,38.4c3.6,0.4,6.1,3.7,5.6,7.2l-2.5,19.9C228-176.7,224.7-174.1,221.2-174.6z
			 M233.1-271.2L-77-309.6c-3.6-0.4-6.1-3.7-5.6-7.2l2.5-19.9c0.4-3.6,3.7-6.1,7.2-5.6L237.2-304c3.6,0.4,6.1,3.7,5.6,7.2l-2.5,19.9
			C239.9-273.3,236.7-270.8,233.1-271.2z M239.1-319.6L-71-357.9c-3.6-0.4-6.1-3.7-5.6-7.2l2.5-19.9c0.4-3.6,3.7-6.1,7.2-5.6
			l310.2,38.4c3.6,0.4,6.1,3.7,5.6,7.2l-2.5,19.9C245.9-321.6,242.7-319.1,239.1-319.6z"/>
		
			<rect x="76.6" y="-456.5" transform="matrix(0.1228 -0.9924 0.9924 0.1228 374.7073 -189.6144)" class="st4" width="7" height="299.5"/>
	</g>
	<g>
		<path class="st0" d="M-69.7-368.6l1.4-11.4c0.3-2.3,2.4-4,4.8-3.7l301.6,37.3c2.3,0.3,4,2.4,3.7,4.8l-1.4,11.4
			c-0.3,2.3-2.4,4-4.8,3.7L-66-363.8C-68.3-364.1-70-366.3-69.7-368.6z"/>
	</g>
	<path class="st6" d="M101.6-503c0.2-1.4,0.4-2.7,0.8-4c0-6.9-2.1-13.4-5.7-18.9c-4,6.3-6.7,13.5-7.7,21.4L101.6-503z"/>
	<path class="st1" d="M-75.7-320.3l1.4-11.4c0.3-2.3,2.4-4,4.8-3.7l301.6,37.3c2.3,0.3,4,2.4,3.7,4.8l-1.4,11.4
		c-0.3,2.3-2.4,4-4.8,3.7l-301.6-37.3C-74.3-315.8-76-318-75.7-320.3z"/>
	<path class="st2" d="M-81.7-272l1.4-11.4c0.3-2.3,2.4-4,4.8-3.7l301.6,37.3c2.3,0.3,4,2.4,3.7,4.8l-1.4,11.4
		c-0.3,2.3-2.4,4-4.8,3.7l-301.6-37.3C-80.3-267.5-81.9-269.6-81.7-272z"/>
	<path class="st3" d="M-87.6-223.7l1.4-11.4c0.3-2.3,2.4-4,4.8-3.7l301.6,37.3c2.3,0.3,4,2.4,3.7,4.8l-1.4,11.4
		c-0.3,2.3-2.4,4-4.8,3.7l-301.6-37.3C-86.3-219.2-87.9-221.3-87.6-223.7z"/>
</g>
<path class="st7" d="M-417.6,215.8"/>
<path class="st8" d="M-310.5,201.7c4.3-35.9-1.6-62.5-11.6-85.1c-1-2.2-4.2-1.3-3.9,1.1v0c0.2,1.1-0.6,2.2-1.8,2.3L-507,144.3
	c-1.1,0.2-2.2-0.6-2.3-1.8l-4-29.8c-0.2-1.1,0.6-2.2,1.8-2.3l170.1-23.1c1.5-0.2,2.3-1.9,1.5-3.1c-2.4-3.8-4.9-7.6-7.3-11.3
	c-0.4-0.7-1.2-1-2-0.9l-146,19.8c-1.1,0.2-2.2-0.6-2.3-1.8l-3.5-25.9c-0.2-1.1,0.6-2.2,1.8-2.3L-368.3,44c1.4-0.2,2.2-1.7,1.5-3
	c-0.4-0.7-0.8-1.4-1.1-2.2c-0.4-0.8-1.2-1.2-2.1-1.1l-130.4,17.7c-1.1,0.2-2.2-0.6-2.3-1.8l-0.2-1.4c-0.2-1.1-1.2-1.9-2.3-1.7
	c-0.5,0.1-0.9,0.1-1.4,0.2c-1.1,0.2-1.9,1.2-1.7,2.3l5.2,38.3c0.2,1.1-0.6,2.2-1.8,2.3L-670.9,116c-1.1,0.2-2.2-0.6-2.3-1.8
	l-4.9-36.1c-0.2-1.1-1.2-1.9-2.3-1.8c-27.7,4-55.4,8-83.2,12.1c-1.6,0.2-2.3,2.2-1.2,3.4c13.8,14.6,29.7,34.4,43.7,60
	c25.2,46.2,32.3,89.7,34.5,117.2c0.1,1.2,1.2,2,2.3,1.9l374.7-53c0.9-0.1,1.6-0.9,1.8-1.8C-307,209.4-311.6,210.4-310.5,201.7z
	 M-655.1,247.6l-16.8-123.9c-0.2-1.1,0.6-2.2,1.8-2.3l123.9-16.8c1.1-0.2,2.2,0.6,2.3,1.8l16.8,123.9c0.2,1.1-0.6,2.2-1.8,2.3
	l-123.9,16.8C-653.9,249.5-654.9,248.7-655.1,247.6z M-506,151.6l179.2-24.3c1.1-0.2,2.2,0.6,2.3,1.8l4,29.8
	c0.2,1.1-0.6,2.2-1.8,2.3l-179.2,24.3c-1.1,0.2-2.2-0.6-2.3-1.8l-4-29.8C-507.9,152.7-507.2,151.7-506,151.6z M-498.1,225.4l-4-29.8
	c-0.2-1.1,0.6-2.2,1.8-2.3l179.2-24.3c1.1-0.2,2.2,0.6,2.3,1.8l4,29.8c0.2,1.1-0.6,2.2-1.8,2.3l-179.2,24.3
	C-496.9,227.3-497.9,226.5-498.1,225.4z"/>
<g>
	<path class="st0" d="M-672.6,54.8L-519.5,34c1.1-0.2,2.2,0.6,2.3,1.8l6.8,49.9c0.2,1.1-0.6,2.2-1.8,2.3l-153.1,20.7
		c-1.1,0.2-2.2-0.6-2.3-1.8l-6.8-49.9C-674.5,56-673.7,54.9-672.6,54.8z"/>
</g>
<g>
	<path class="st1" d="M-497.1,31l145-20.1c1.1-0.2,2.2,0.6,2.3,1.8l1.8,13c0.2,1.1-0.6,2.2-1.8,2.3l-145,20.1
		c-1.1,0.2-2.2-0.6-2.3-1.8l-1.8-13C-499,32.2-498.2,31.2-497.1,31z"/>
</g>
<g>
	<path class="st2" d="M-662.8,127l111-15c1.1-0.2,2.2,0.6,2.3,1.8l15,111c0.2,1.1-0.6,2.2-1.8,2.3l-111,15c-1.1,0.2-2.2-0.6-2.3-1.8
		l-15-111C-664.7,128.1-663.9,127.1-662.8,127z"/>
</g>
<g>
	<path class="st3" d="M-504.3,115.9L-338,93.4c1.1-0.2,2.2,0.6,2.3,1.8l2.3,17c0.2,1.1-0.6,2.2-1.8,2.3l-166.3,22.5
		c-1.1,0.2-2.2-0.6-2.3-1.8l-2.3-17C-506.2,117.1-505.4,116.1-504.3,115.9z"/>
</g>
<g>
	<path class="st3" d="M-498.7,157.1l166.3-22.5c1.1-0.2,2.2,0.6,2.3,1.8l2.3,17c0.2,1.1-0.6,2.2-1.8,2.3l-166.3,22.5
		c-1.1,0.2-2.2-0.6-2.3-1.8l-2.3-17C-500.6,158.3-499.8,157.3-498.7,157.1z"/>
</g>
<g>
	<path class="st3" d="M-493.1,198.8l166.3-22.5c1.1-0.2,2.2,0.6,2.3,1.8l2.3,17c0.2,1.1-0.6,2.2-1.8,2.3l-166.3,22.5
		c-1.1,0.2-2.2-0.6-2.3-1.8l-2.3-17C-495,200-494.2,198.9-493.1,198.8z"/>
</g>
<path class="st4" d="M-484.9,72.9l135.1-18.3c1.1-0.2,2.2,0.6,2.3,1.8l0,0.1c0.2,1.1-0.6,2.2-1.8,2.3l-135.1,18.3
	c-1.1,0.2-2.2-0.6-2.3-1.8l0-0.1C-486.8,74.1-486,73.1-484.9,72.9z"/>
<path class="st9" d="M-342.3-19.3c-125,16.9-250,33.9-375,50.8c-1.3,0.2-2.1,1.5-1.6,2.8c20.9,54,38.9,124.8,34.6,206
	c-0.5,10.2-1.4,20.1-2.6,29.7c-0.2,1.3,1,2.4,2.3,2.3l375-50.8c0.9-0.1,1.6-0.8,1.7-1.6c1.6-8.2,3-16.7,4-25.5
	c10.2-84.7-12.8-159.8-36.3-212.4C-340.5-19-341.4-19.5-342.3-19.3z M-334.6,69.9l-160.8,21.8c-1.1,0.2-2.2-0.6-2.3-1.8l-3.5-25.9
	c-0.2-1.1,0.6-2.2,1.8-2.3L-338.7,40c1.1-0.2,2.2,0.6,2.3,1.8l3.5,25.9C-332.7,68.7-333.5,69.8-334.6,69.9z M-341.3,5.4l3.5,25.9
	c0.2,1.1-0.6,2.2-1.8,2.3l-160.8,21.8c-1.1,0.2-2.2-0.6-2.3-1.8l-3.5-25.9c-0.2-1.1,0.6-2.2,1.8-2.3l160.8-21.8
	C-342.5,3.5-341.4,4.3-341.3,5.4z M-679.9,49.2L-514,26.7c1.1-0.2,2.2,0.6,2.3,1.8l8.5,62.7c0.2,1.1-0.6,2.2-1.8,2.3L-670.9,116
	c-1.1,0.2-2.2-0.6-2.3-1.8l-8.5-62.7C-681.8,50.4-681,49.4-679.9,49.2z M-655.1,247.6l-16.8-123.9c-0.2-1.1,0.6-2.2,1.8-2.3
	l123.9-16.8c1.1-0.2,2.2,0.6,2.3,1.8l16.8,123.9c0.2,1.1-0.6,2.2-1.8,2.3l-123.9,16.8C-653.9,249.5-654.9,248.7-655.1,247.6z
	 M-511.6,110.4l179.2-24.3c1.1-0.2,2.2,0.6,2.3,1.8l4,29.8c0.2,1.1-0.6,2.2-1.8,2.3L-507,144.3c-1.1,0.2-2.2-0.6-2.3-1.8l-4-29.8
	C-513.5,111.5-512.7,110.5-511.6,110.4z M-506,151.6l179.2-24.3c1.1-0.2,2.2,0.6,2.3,1.8l4,29.8c0.2,1.1-0.6,2.2-1.8,2.3
	l-179.2,24.3c-1.1,0.2-2.2-0.6-2.3-1.8l-4-29.8C-507.9,152.7-507.2,151.7-506,151.6z M-498.1,225.4l-4-29.8
	c-0.2-1.1,0.6-2.2,1.8-2.3l179.2-24.3c1.1-0.2,2.2,0.6,2.3,1.8l4,29.8c0.2,1.1-0.6,2.2-1.8,2.3l-179.2,24.3
	C-496.9,227.3-497.9,226.5-498.1,225.4z"/>
<g>
	<path class="st1" d="M-492.2,67.3l148-20.1c1.1-0.2,2.2,0.6,2.3,1.8l1.8,13c0.2,1.1-0.6,2.2-1.8,2.3l-148,20.1
		c-1.1,0.2-2.2-0.6-2.3-1.8l-1.8-13C-494.1,68.5-493.3,67.5-492.2,67.3z"/>
</g>
<g>
	<g>
		<path class="st0" d="M-949.5-159.1c0-15.2,10.6-26.2,24.9-26.2c15.2,0,24.9,11,24.9,26.2c0,14.8-9.7,26.2-24.9,26.2
			C-939.3-132.9-949.5-144.3-949.5-159.1z"/>
	</g>
	<polygon class="st0" points="-938.9,-223.5 -944.8,-341.6 -904.3,-341.6 -910.2,-223.5 	"/>
	<g>
		<rect x="-1141.6" y="-134" class="st2" width="150.3" height="41.1"/>
	</g>
	<g>
		<rect x="-1141.6" y="-66.9" class="st1" width="150.3" height="41.1"/>
	</g>
	<path class="st4" d="M-1176.2-206.4v318.7H-862v-318.7H-1176.2z M-984.7,47.8h-163.3V-6.3h163.3L-984.7,47.8L-984.7,47.8z
		 M-984.7-19.3h-163.3v-54.1h163.3L-984.7-19.3L-984.7-19.3z M-984.7-86.4h-163.3v-54.1h163.3L-984.7-86.4L-984.7-86.4z
		 M-924.6-126.4c-17.9,0-31.4-14.1-31.4-32.7s13.5-32.7,31.4-32.7c18.5,0,31.4,13.4,31.4,32.7C-893.1-140.1-906.3-126.4-924.6-126.4
		z"/>
	<g>
		<rect x="-1141.6" y="0.2" class="st3" width="150.3" height="41.1"/>
	</g>
</g>
<g>
	<path class="st9" d="M-908.7,461.4l0.7-4.7l27.1-15.3l-5.6-24l-33-2.3l-1.8-4.1c-3.1-5.6-7.1-11-11.9-16.2l-3.6-3.7l8.8-31.8
		l-21.1-13.1l-24.7,22l-4.9-1.6l-19.8-3.5l-4.5,0.1l-16.6-28.6l-24,5.6l-2.3,33l-4.1,1.9c-5.6,3.1-11,7.1-16.2,11.9l-3.7,3.6
		l-31.8-8.9l-13.2,21.1l22,24.7l-1.6,4.9l-3.5,19.8l0.1,4.5l-28.6,16.6l5.6,24l33,2.3l1.8,4.1c3.1,5.6,7.1,11,11.9,16.2l3.6,3.7
		l-8.8,31.8l21.1,13.2l24.7-22l4.9,1.6c6.8,2,13.4,3.2,19.8,3.5l4.7,0.7l16.4,27.8l24-5.6l2.5-32.2l3.9-2.7
		c6.5-3.3,11.8-7.3,17-12.1l3.7-3.6l31,9l13.2-21.1l-21.1-24.9l1.6-4.9C-910,475.2-908.8,468.6-908.7,461.4z M-990.4,517.3
		c-33.4,7.8-66.1-12.6-73.8-46s12.6-66.1,46-73.8s66.1,12.6,73.8,46S-957,509.6-990.4,517.3z"/>
	<circle class="st0" cx="-1175.3" cy="302.6" r="65.8"/>
	<circle class="st1" cx="-1051.3" cy="261.4" r="41.2"/>
	<circle class="st2" cx="-942.7" cy="270.5" r="29.9"/>
	<circle class="st3" cx="-872" cy="333.8" r="18.9"/>
	<path class="st4" d="M-976.3,412.5c-8.4-5.2-17.9-7.9-27.6-7.9c-4.1,0-8.2,0.5-12.2,1.4c-13.9,3.2-25.6,11.5-33,23.4
		c-7.4,11.9-9.7,26-6.5,39.9c3.2,13.9,11.5,25.6,23.4,33c11.9,7.4,26,9.7,39.9,6.5c13.8-3.2,25.6-11.5,33-23.4s9.7-26,6.5-39.9
		C-956.2,431.6-964.5,419.9-976.3,412.5z M-994.4,500.2c-3.5,0.8-6.9,1.2-10.3,1.2c-20,0-37.7-13.5-42.4-34.1
		c-5.6-24,8.9-47.2,32.9-52.8s47.2,8.9,52.8,32.9C-955.9,471.5-970.4,494.7-994.4,500.2z"/>
	<path class="st4" d="M-1123.6,514.9l25.8,2.1l8.1,11.7l-6.8,25c-1.4,5.7,1.1,12.4,6.3,15.7l25.3,15.8c5.3,3.3,12.3,2.5,16.9-1.2
		l19.5-17.2l14,2.2l13.3,22.2c2.9,4.7,9,7.8,15,6.4l29.1-6.8c6-1.4,10.1-6.9,9.6-13.1l2.1-25.8c4.9-2,8.8-4.8,12.5-8.3l25,6.8
		c5.7,1.4,12.4-1.1,15.7-6.3l15.8-25.3c3.3-5.3,2.5-12.3-1.2-16.9l-16.1-18.8c0.7-4.7,1.2-10.2,2-14.9l22.2-13.3
		c4.7-2.9,7.8-9,6.4-15l-6.8-29.1c-1.4-6-6.9-10.1-13.2-10.5l-25.8-2.1l-8.1-11.6l6.8-25c1.4-5.7-1.1-12.4-6.3-15.7l-25.3-15.8
		c-5.3-3.3-12.3-2.5-16.9,1.2l-19.5,17.1l-14-2.2l-13.5-23c-2.9-4.7-9-7.8-15-6.4l-29.1,6.8c-6,1.4-10.1,6.9-10.7,12.4l-1.9,26.6
		l-11.7,8.1l-25-6.8c-5.7-1.4-12.4,1.1-15.7,6.3l-15.8,25.3c-3.3,5.3-2.6,12.3,1.2,16.9l17.2,19.5l-2.2,14l-23,13.5
		c-4.7,2.9-7.8,9-6.4,15l6.8,29.1C-1135.7,509.6-1130,514.6-1123.6,514.9z M-1126.1,473l28.6-16.6l-0.1-4.5l3.5-19.8l1.6-4.9
		l-22-24.7l13.2-21.1l31.8,8.9l3.7-3.6c5.2-4.8,10.6-8.8,16.2-11.9l4.1-1.9l2.3-33l24-5.6l16.6,28.6l4.5-0.1l19.8,3.5l4.9,1.6
		l24.7-22l21.1,13.1l-8.8,31.8l3.6,3.7c4.8,5.2,8.8,10.6,11.9,16.2l1.8,4.1l33,2.3l5.6,24l-27.1,15.3l-0.7,4.7
		c-0.1,7.2-1.3,13.8-3.3,20.6l-1.6,4.9l21.1,24.9l-13.2,21.1l-31-9l-3.7,3.6c-5.2,4.8-10.6,8.8-17,12.1l-3.9,2.7l-2.5,32.2l-24,5.6
		l-16.4-27.8l-4.7-0.7c-6.4-0.3-13-1.5-19.8-3.5l-4.9-1.6l-24.7,22l-21.1-13.2l8.8-31.8l-3.6-3.7c-4.8-5.2-8.8-10.6-11.9-16.2
		l-1.8-4.1l-33-2.3L-1126.1,473z"/>
</g>
<g>
	<path class="st3" d="M-370.5,700.2c0,14.3-11.6,25.9-25.9,25.9h-30.9v13h30.9c21.5,0,38.9-17.5,38.9-38.9v-30.9h-13L-370.5,700.2
		L-370.5,700.2z"/>
	<path class="st1" d="M-357.5,391.6c0-21.5-17.5-38.9-38.9-38.9h-30.9v13h30.9c14.3,0,25.9,11.6,25.9,25.9v30.9h13L-357.5,391.6
		L-357.5,391.6z"/>
	<path class="st0" d="M-730.9,391.6c0-14.3,11.6-25.9,25.9-25.9h30.9v-13H-705c-21.5,0-38.9,17.5-38.9,38.9v30.9h13V391.6z"/>
	<path class="st2" d="M-743.9,700.2c0,21.5,17.5,38.9,38.9,38.9h30.9v-13H-705c-14.3,0-25.9-11.6-25.9-25.9v-30.9h-13V700.2z"/>
	<path class="st10" d="M-674.1,489.1c0-64.1,44.5-78,80-76.9c55.4,1.8,70.9,26.3,69,69.4c-2.5,53.9-142.2,85.1-116.2,106.4
		c40,32.7,28.3,19.8,95.2,71.2"/>
	<circle class="st10" cx="-461.7" cy="499.5" r="25.1"/>
	<circle class="st10" cx="-619.3" cy="499.5" r="25.1"/>
</g>
<g>
	<path class="st9" d="M-1448.5,180.7c-12.5,0-23.2-4.5-32.2-13.5c-8.9-9-13.3-19.7-13.3-32.2l91.1,0.2c0,12.5-4.5,23.2-13.5,32.2
		C-1425.3,176.3-1436,180.7-1448.5,180.7z"/>
	
		<rect x="-1471.1" y="-1.6" transform="matrix(2.134378e-03 -1 1 2.134378e-03 -1534.8022 -1358.9869)" class="st11" width="45.6" height="182.2"/>
	<g>
		<circle class="st0" cx="-1475.4" cy="-47.4" r="68.3"/>
	</g>
	<g>
		<path class="st12" d="M-1326.7-224.8c-33.2-33.3-73.5-50-120.9-50.1c-47.4-0.1-87.8,16.4-121.1,49.6
			c-33.3,33.1-50,73.5-50.1,120.9c-0.1,30.8,7.5,59.2,22.9,85.5c15.3,26.2,36.1,47.1,62.2,62.8l170.8,0.4
			c26.2-15.5,47.1-36.3,62.5-62.5c15.4-26.2,23.2-54.6,23.2-85.4C-1277-151.1-1293.5-191.5-1326.7-224.8z M-1333.3-53.3
			c-1.1,2.4-2.2,4.7-3.4,7c-9.3,17.8-22.6,32.8-39.7,44.9l-40-0.1c-13.7,17.6-35,28.9-59,28.9c-34.7,0-64-23.8-72.4-55.9
			c-4.4-5.7-8.2-11.8-11.6-18.2c-9.3-17.9-13.9-37-13.8-57.5c0.1-22.9,5.3-43.6,15.9-61.9c-1.2-4.3-1.9-8.8-1.9-13.4
			c0-27.2,22.1-49.3,49.3-49.3c8.1,0,15.8,2,22.6,5.5c12.3-3.9,25.5-5.9,39.6-5.8c30.9,0.1,57.7,9.6,80.2,28.8
			c0.9-0.1,1.9-0.1,2.8-0.1c20.7,0,37.6,16.9,37.6,37.6c0,5.3-1.1,10.3-3.1,14.8c5,13.7,7.5,28.6,7.5,44.5c0,6.9-0.6,13.6-1.6,20.2
			c1.1,2.9,1.7,5.9,1.7,9.2C-1322.6-65.7-1326.8-58.1-1333.3-53.3z"/>
	</g>
	<g>
		<circle class="st1" cx="-1509.9" cy="-179.7" r="42.8"/>
	</g>
	<g>
		<circle class="st2" cx="-1364.7" cy="-163.1" r="31.1"/>
	</g>
	<g>
		<circle class="st3" cx="-1348.7" cy="-74.4" r="19.6"/>
	</g>
</g>
<g>
	<g>
		<path class="st4" d="M-1639.3,629.1c-8.3,0-16.2,3.3-22,9.1c-5.8,5.8-9.1,13.8-9.1,22c0,8.3,3.3,16.2,9.1,22
			c5.8,5.8,13.8,9.1,22,9.1c8.3,0,16.2-3.3,22-9.1c5.8-5.8,9.1-13.8,9.1-22c0-8.3-3.3-16.2-9.1-22
			C-1623.1,632.4-1631.1,629.1-1639.3,629.1z"/>
		<path class="st4" d="M-1390,629.1c-8.3,0-16.2,3.3-22,9.1c-5.8,5.8-9.1,13.8-9.1,22c0,8.3,3.3,16.2,9.1,22
			c5.8,5.8,13.8,9.1,22,9.1c8.3,0,16.2-3.3,22-9.1c5.8-5.8,9.1-13.8,9.1-22c0-8.3-3.3-16.2-9.1-22
			C-1373.8,632.4-1381.7,629.1-1390,629.1z"/>
	</g>
	<g>
		<circle class="st1" cx="-1423.7" cy="451.9" r="39.8"/>
	</g>
	<g>
		<circle class="st0" cx="-1570.5" cy="431.5" r="63.5"/>
	</g>
	<g>
		<circle class="st2" cx="-1471.8" cy="370.5" r="28.9"/>
	</g>
	<g>
		<path class="st9" d="M-1303.9,334.6c-0.6-3.2-1.9-6.2-3.8-8.8c-1.9-2.6-4.5-4.7-7.3-6.2c-2.9-1.5-6.1-2.2-9.3-2.2h-316.7
			l-67.4-67.4l-29.4,29.4l67.4,67.4v240.8c0,5.5,2.2,10.8,6.1,14.7c3.9,3.9,9.2,6.1,14.7,6.1h249.4v-41.6h-228.6v-41.6h254.7
			c4.5,0,8.8-1.4,12.4-4.1c3.6-2.7,6.2-6.4,7.5-10.7l49.9-166.3C-1303.5,341-1303.3,337.8-1303.9,334.6z M-1377.3,442.3
			c0.6,3.1,1,6.3,1,9.6c0,26.1-21.2,47.3-47.3,47.3c-13.9,0-26.4-6-35.1-15.6h-63.7c-12.7,11.7-29.6,18.9-48.1,18.9
			c-18.6,0-35.5-7.2-48.1-18.9l-6.1-6.2l-4.2-5.6c-7.9-11.5-12.6-25.4-12.6-40.3s4.7-28.9,12.6-40.3v-32.2h122.7
			c4.9-14.4,18.5-24.8,34.5-24.8c16,0,29.6,10.4,34.5,24.8h30.1c3.8-2.2,8.2-3.5,13-3.5c4.7,0,9.1,1.3,13,3.5h29L-1377.3,442.3z"/>
	</g>
	<g>
		<circle class="st3" cx="-1394.2" cy="381.2" r="18.2"/>
	</g>
</g>
<g>
	<path class="st1" d="M-498.6,30.9l148-20.1c1.1-0.2,2.2,0.6,2.3,1.8l1.8,13c0.2,1.1-0.6,2.2-1.8,2.3l-148,20.1
		c-1.1,0.2-2.2-0.6-2.3-1.8l-1.8-13C-500.5,32.1-499.7,31.1-498.6,30.9z"/>
</g>
<g>
	<line class="st6" x1="904.8" y1="-180.4" x2="943" y2="-180.4"/>
	<g>
		<g>
			<path class="st0" d="M1067.9-286.2c-18.6-18.6-41.2-28-67.6-28c-26.4,0-49,9.3-67.6,27.9c-18.6,18.6-28,41.2-28,67.6v38.2H943
				v-38.2c0-15.9,5.6-29.5,16.7-40.6c11.1-11.1,24.7-16.7,40.6-16.7c15.9,0,29.5,5.6,40.6,16.7c11.1,11.1,16.7,24.7,16.7,40.6v0.2
				h38.2v-0.2C1095.9-245,1086.6-267.5,1067.9-286.2z"/>
		</g>
	</g>
	<g>
		<g>
			<path class="st1" d="M1000.3-25.1c10.5,0,19.5-3.7,27-11.2c7.5-7.5,11.2-16.5,11.2-27c0-10.5-3.7-19.5-11.2-27
				c-7.5-7.5-16.5-11.2-27-11.2c-10.5,0-19.5,3.7-27,11.2c-7.5,7.5-11.2,16.5-11.2,27c0,10.5,3.7,19.5,11.2,27
				C980.8-28.9,989.8-25.1,1000.3-25.1z"/>
		</g>
	</g>
	<g>
		<path class="st9" d="M1142-169.1c-7.5-7.5-16.5-11.2-27-11.2h-9.4c-1.8,0-3.3,1.5-3.3,3.3v0c0,1.8-1.5,3.3-3.2,3.3h-44.7
			c-1.8,0-3.3-1.5-3.3-3.3v0c0-1.8-1.5-3.3-3.2-3.3h-95.2c-1.8,0-3.3,1.5-3.3,3.3v0c0,1.8-1.5,3.3-3.3,3.3h-44.7
			c-1.8,0-3.3-1.5-3.3-3.3v0c0-1.8-1.5-3.3-3.3-3.3h-9.4c-10.5,0-19.5,3.7-27,11.2c-7.5,7.5-11.2,16.5-11.2,27V49
			c0,10.5,3.7,19.5,11.2,27c7.5,7.5,16.5,11.2,27,11.2H1115c10.5,0,19.5-3.7,27-11.2c7.5-7.5,11.2-16.5,11.2-27v-191.1
			C1153.2-152.6,1149.5-161.6,1142-169.1z M1118.2,55.5H882.4c-1.8,0-3.3-1.5-3.3-3.3v-197.6c0-1.8,1.5-3.3,3.3-3.3h235.8
			c1.8,0,3.2,1.5,3.2,3.3V52.2C1121.5,54,1120,55.5,1118.2,55.5z"/>
	</g>
	<path class="st2" d="M1000.3-18.6C1000.3-18.6,1000.3-18.6,1000.3-18.6c-7,0-13.4-1.4-19.3-4.3V8.4h38.5v-31.3
		C1013.7-20.1,1007.3-18.6,1000.3-18.6z"/>
	<rect x="1057.8" y="-212.2" class="st3" width="38.2" height="31.8"/>
</g>
<g>
	<line class="st6" x1="885.5" y1="266.9" x2="923.7" y2="266.9"/>
	<g>
		<g>
			<path class="st0" d="M1048.7,161.1c-18.6-18.6-41.2-28-67.6-28c-26.4,0-49,9.3-67.6,27.9c-18.6,18.6-28,41.2-28,67.6v38.2h38.2
				v-38.2c0-15.9,5.6-29.5,16.7-40.6c11.1-11.1,24.7-16.7,40.6-16.7c15.9,0,29.5,5.6,40.6,16.7c11.1,11.1,16.7,24.7,16.7,40.6v0.2
				h38.2v-0.2C1076.6,202.3,1067.3,179.7,1048.7,161.1z"/>
		</g>
	</g>
	<g>
		<g>
			<path class="st2" d="M981.1,422.1c10.5,0,19.5-3.7,27-11.2s11.2-16.5,11.2-27c0-10.5-3.7-19.5-11.2-27
				c-7.5-7.5-16.5-11.2-27-11.2c-10.5,0-19.5,3.7-27,11.2c-7.5,7.5-11.2,16.5-11.2,27c0,10.5,3.7,19.5,11.2,27
				C961.6,418.4,970.6,422.1,981.1,422.1z"/>
		</g>
	</g>
	<g>
		<path class="st9" d="M1122.7,278.1c-7.5-7.5-16.5-11.2-27-11.2h-9.4c-1.8,0-3.2,1.5-3.2,3.3l0,0c0,1.8-1.5,3.3-3.3,3.3h-44.7
			c-1.8,0-3.2-1.5-3.2-3.3l0,0c0-1.8-1.5-3.3-3.3-3.3h-95.2c-1.8,0-3.3,1.5-3.3,3.3l0,0c0,1.8-1.5,3.3-3.3,3.3h-44.7
			c-1.8,0-3.3-1.5-3.3-3.3l0,0c0-1.8-1.5-3.3-3.3-3.3h-9.4c-10.5,0-19.5,3.7-27,11.2c-7.5,7.5-11.2,16.5-11.2,27v191.1
			c0,10.5,3.7,19.5,11.2,27c7.5,7.5,16.5,11.2,27,11.2h229.3c10.5,0,19.5-3.7,27-11.2c7.5-7.5,11.2-16.5,11.2-27V305.1
			C1134,294.6,1130.2,285.6,1122.7,278.1z M1099,502.7H863.2c-1.8,0-3.3-1.5-3.3-3.3V301.9c0-1.8,1.5-3.3,3.3-3.3H1099
			c1.8,0,3.3,1.5,3.3,3.3v197.6C1102.2,501.3,1100.8,502.7,1099,502.7z"/>
	</g>
	<path class="st3" d="M981.1,428.6C981.1,428.6,981,428.6,981.1,428.6c-7,0-13.4-1.4-19.3-4.3v31.3h38.5v-31.3
		C994.5,427.2,988,428.6,981.1,428.6z"/>
	<rect x="1038.5" y="235.1" class="st1" width="38.2" height="31.8"/>
</g>
<g>
	<line class="st6" x1="154.5" y1="183.1" x2="192.7" y2="183.1"/>
	<g>
		<g>
			<path class="st0" d="M317.6,77.3c-18.6-18.6-41.2-28-67.6-28c-26.4,0-49,9.3-67.6,27.9c-18.6,18.6-28,41.2-28,67.6v38.2h38.2
				v-38.2c0-15.9,5.6-29.5,16.7-40.6c11.1-11.1,24.7-16.7,40.6-16.7c15.9,0,29.5,5.6,40.6,16.7c11.1,11.1,16.7,24.7,16.7,40.6v0.2
				h38.2v-0.2C345.6,118.5,336.2,96,317.6,77.3z"/>
		</g>
	</g>
	<g>
		<g>
			<path class="st1" d="M250,338.3c10.5,0,19.5-3.7,27-11.2s11.2-16.5,11.2-27c0-10.5-3.7-19.5-11.2-27c-7.5-7.5-16.5-11.2-27-11.2
				c-10.5,0-19.5,3.7-27,11.2c-7.5,7.5-11.2,16.5-11.2,27c0,10.5,3.7,19.5,11.2,27C230.5,334.6,239.5,338.3,250,338.3z"/>
		</g>
	</g>
	<g>
		<path class="st9" d="M391.7,194.4c-7.5-7.5-16.5-11.2-27-11.2h-9.4c-1.8,0-3.3,1.5-3.3,3.3v0c0,1.8-1.5,3.3-3.3,3.3h-44.7
			c-1.8,0-3.3-1.5-3.3-3.3v0c0-1.8-1.5-3.3-3.3-3.3h-95.2c-1.8,0-3.3,1.5-3.3,3.3v0c0,1.8-1.5,3.3-3.3,3.3h-44.7
			c-1.8,0-3.3-1.5-3.3-3.3v0c0-1.8-1.5-3.3-3.3-3.3h-9.4c-10.5,0-19.5,3.7-27,11.2c-7.5,7.5-11.2,16.5-11.2,27v191.1
			c0,10.5,3.7,19.5,11.2,27c7.5,7.5,16.5,11.2,27,11.2h229.3c10.5,0,19.5-3.7,27-11.2c7.5-7.5,11.2-16.5,11.2-27V221.3
			C402.9,210.8,399.1,201.8,391.7,194.4z M367.9,418.9H132.1c-1.8,0-3.3-1.5-3.3-3.3V218.1c0-1.8,1.5-3.3,3.3-3.3h235.8
			c1.8,0,3.3,1.5,3.3,3.3v197.6C371.2,417.5,369.7,418.9,367.9,418.9z"/>
	</g>
	<path class="st3" d="M250,344.8C250,344.8,250,344.8,250,344.8c-7,0-13.4-1.4-19.3-4.3v31.3h38.5v-31.3
		C263.4,343.4,257,344.8,250,344.8z"/>
	<rect x="307.5" y="151.3" class="st2" width="38.2" height="31.8"/>
</g>
</svg>
